%TF.GenerationSoftware,KiCad,Pcbnew,9.0.6*%
%TF.CreationDate,2025-12-28T14:00:27+01:00*%
%TF.ProjectId,astro-control,61737472-6f2d-4636-9f6e-74726f6c2e6b,rev?*%
%TF.SameCoordinates,Original*%
%TF.FileFunction,Drillmap*%
%TF.FilePolarity,Positive*%
%FSLAX45Y45*%
G04 Gerber Fmt 4.5, Leading zero omitted, Abs format (unit mm)*
G04 Created by KiCad (PCBNEW 9.0.6) date 2025-12-28 14:00:27*
%MOMM*%
%LPD*%
G01*
G04 APERTURE LIST*
%ADD10C,0.050000*%
%ADD11C,0.200000*%
%ADD12C,0.100000*%
%ADD13C,0.110000*%
%ADD14C,0.180000*%
G04 APERTURE END LIST*
D10*
X20200000Y-5000000D02*
X20200000Y-12000000D01*
X20200000Y-12000000D02*
X8200000Y-12000000D01*
X8200000Y-12000000D02*
X8200000Y-5000000D01*
X8200000Y-5000000D02*
X20200000Y-5000000D01*
D11*
D12*
X9279637Y-7060000D02*
X9359637Y-7140000D01*
X9359637Y-7060000D02*
X9279637Y-7140000D01*
X9529637Y-7060000D02*
X9609637Y-7140000D01*
X9609637Y-7060000D02*
X9529637Y-7140000D01*
X10010000Y-7760000D02*
X10090000Y-7840000D01*
X10090000Y-7760000D02*
X10010000Y-7840000D01*
X10110000Y-7058750D02*
X10190000Y-7138750D01*
X10190000Y-7058750D02*
X10110000Y-7138750D01*
X10460000Y-7058750D02*
X10540000Y-7138750D01*
X10540000Y-7058750D02*
X10460000Y-7138750D01*
X10510000Y-7760000D02*
X10590000Y-7840000D01*
X10590000Y-7760000D02*
X10510000Y-7840000D01*
X11198000Y-6960000D02*
X11278000Y-7040000D01*
X11278000Y-6960000D02*
X11198000Y-7040000D01*
X11198000Y-7260000D02*
X11278000Y-7340000D01*
X11278000Y-7260000D02*
X11198000Y-7340000D01*
X11960000Y-6960000D02*
X12040000Y-7040000D01*
X12040000Y-6960000D02*
X11960000Y-7040000D01*
X11960000Y-7260000D02*
X12040000Y-7340000D01*
X12040000Y-7260000D02*
X11960000Y-7340000D01*
X13929000Y-7310000D02*
X14009000Y-7390000D01*
X14009000Y-7310000D02*
X13929000Y-7390000D01*
X14298000Y-8210000D02*
X14378000Y-8290000D01*
X14378000Y-8210000D02*
X14298000Y-8290000D01*
X14298000Y-8560000D02*
X14378000Y-8640000D01*
X14378000Y-8560000D02*
X14298000Y-8640000D01*
X14360000Y-10210000D02*
X14440000Y-10290000D01*
X14440000Y-10210000D02*
X14360000Y-10290000D01*
X14610000Y-9760000D02*
X14690000Y-9840000D01*
X14690000Y-9760000D02*
X14610000Y-9840000D01*
X14691000Y-7310000D02*
X14771000Y-7390000D01*
X14771000Y-7310000D02*
X14691000Y-7390000D01*
X15060000Y-8210000D02*
X15140000Y-8290000D01*
X15140000Y-8210000D02*
X15060000Y-8290000D01*
X15060000Y-8560000D02*
X15140000Y-8640000D01*
X15140000Y-8560000D02*
X15060000Y-8640000D01*
X15110000Y-9760000D02*
X15190000Y-9840000D01*
X15190000Y-9760000D02*
X15110000Y-9840000D01*
X15122000Y-10210000D02*
X15202000Y-10290000D01*
X15202000Y-10210000D02*
X15122000Y-10290000D01*
X16160000Y-10210000D02*
X16240000Y-10290000D01*
X16240000Y-10210000D02*
X16160000Y-10290000D01*
X16160000Y-10710000D02*
X16240000Y-10790000D01*
X16240000Y-10710000D02*
X16160000Y-10790000D01*
X16361250Y-8361000D02*
X16441250Y-8441000D01*
X16441250Y-8361000D02*
X16361250Y-8441000D01*
X16379000Y-9910000D02*
X16459000Y-9990000D01*
X16459000Y-9910000D02*
X16379000Y-9990000D01*
X16380250Y-6810000D02*
X16460250Y-6890000D01*
X16460250Y-6810000D02*
X16380250Y-6890000D01*
X16560000Y-10229000D02*
X16640000Y-10309000D01*
X16640000Y-10229000D02*
X16560000Y-10309000D01*
X16560000Y-10991000D02*
X16640000Y-11071000D01*
X16640000Y-10991000D02*
X16560000Y-11071000D01*
X17123250Y-8361000D02*
X17203250Y-8441000D01*
X17203250Y-8361000D02*
X17123250Y-8441000D01*
X17141000Y-9910000D02*
X17221000Y-9990000D01*
X17221000Y-9910000D02*
X17141000Y-9990000D01*
X17142250Y-6810000D02*
X17222250Y-6890000D01*
X17222250Y-6810000D02*
X17142250Y-6890000D01*
X17430250Y-6810000D02*
X17510250Y-6890000D01*
X17510250Y-6810000D02*
X17430250Y-6890000D01*
X17510000Y-9910000D02*
X17590000Y-9990000D01*
X17590000Y-9910000D02*
X17510000Y-9990000D01*
X17525250Y-8361000D02*
X17605250Y-8441000D01*
X17605250Y-8361000D02*
X17525250Y-8441000D01*
X18192250Y-6810000D02*
X18272250Y-6890000D01*
X18272250Y-6810000D02*
X18192250Y-6890000D01*
X18272000Y-9910000D02*
X18352000Y-9990000D01*
X18352000Y-9910000D02*
X18272000Y-9990000D01*
X18287250Y-8361000D02*
X18367250Y-8441000D01*
X18367250Y-8361000D02*
X18287250Y-8441000D01*
X11441000Y-8050000D02*
G75*
G02*
X11351000Y-8050000I-45000J0D01*
G01*
X11351000Y-8050000D02*
G75*
G02*
X11441000Y-8050000I45000J0D01*
G01*
X11695000Y-8050000D02*
G75*
G02*
X11605000Y-8050000I-45000J0D01*
G01*
X11605000Y-8050000D02*
G75*
G02*
X11695000Y-8050000I45000J0D01*
G01*
X12018000Y-8050000D02*
G75*
G02*
X11928000Y-8050000I-45000J0D01*
G01*
X11928000Y-8050000D02*
G75*
G02*
X12018000Y-8050000I45000J0D01*
G01*
X12272000Y-8050000D02*
G75*
G02*
X12182000Y-8050000I-45000J0D01*
G01*
X12182000Y-8050000D02*
G75*
G02*
X12272000Y-8050000I45000J0D01*
G01*
X12591000Y-8050000D02*
G75*
G02*
X12501000Y-8050000I-45000J0D01*
G01*
X12501000Y-8050000D02*
G75*
G02*
X12591000Y-8050000I45000J0D01*
G01*
X12845000Y-8050000D02*
G75*
G02*
X12755000Y-8050000I-45000J0D01*
G01*
X12755000Y-8050000D02*
G75*
G02*
X12845000Y-8050000I45000J0D01*
G01*
X10200000Y-5750000D02*
X10200000Y-5850000D01*
X10150000Y-5800000D02*
X10250000Y-5800000D01*
X10100000Y-5850000D02*
X10300000Y-5850000D01*
X10300000Y-5750000D02*
G75*
G02*
X10300000Y-5850000I0J-50000D01*
G01*
X10300000Y-5750000D02*
X10100000Y-5750000D01*
X10100000Y-5750000D02*
G75*
G03*
X10100000Y-5850000I0J-50000D01*
G01*
X10200000Y-6370000D02*
X10200000Y-6470000D01*
X10150000Y-6420000D02*
X10250000Y-6420000D01*
X10100000Y-6470000D02*
X10300000Y-6470000D01*
X10300000Y-6370000D02*
G75*
G02*
X10300000Y-6470000I0J-50000D01*
G01*
X10300000Y-6370000D02*
X10100000Y-6370000D01*
X10100000Y-6370000D02*
G75*
G03*
X10100000Y-6470000I0J-50000D01*
G01*
X10670000Y-6070000D02*
X10670000Y-6170000D01*
X10620000Y-6120000D02*
X10720000Y-6120000D01*
X10720000Y-6220000D02*
X10720000Y-6020000D01*
X10620000Y-6020000D02*
G75*
G02*
X10720000Y-6020000I50000J0D01*
G01*
X10620000Y-6020000D02*
X10620000Y-6220000D01*
X10620000Y-6220000D02*
G75*
G03*
X10720000Y-6220000I50000J0D01*
G01*
X11119000Y-11113000D02*
X11119000Y-11213000D01*
X11069000Y-11163000D02*
X11169000Y-11163000D01*
X11127000Y-5127000D02*
X11127000Y-5227000D01*
X11077000Y-5177000D02*
X11177000Y-5177000D01*
X11127000Y-5381000D02*
X11127000Y-5481000D01*
X11077000Y-5431000D02*
X11177000Y-5431000D01*
X11127000Y-6319000D02*
X11127000Y-6419000D01*
X11077000Y-6369000D02*
X11177000Y-6369000D01*
X11127000Y-6573000D02*
X11127000Y-6673000D01*
X11077000Y-6623000D02*
X11177000Y-6623000D01*
X11373000Y-11113000D02*
X11373000Y-11213000D01*
X11323000Y-11163000D02*
X11423000Y-11163000D01*
X11627000Y-11113000D02*
X11627000Y-11213000D01*
X11577000Y-11163000D02*
X11677000Y-11163000D01*
X11881000Y-11113000D02*
X11881000Y-11213000D01*
X11831000Y-11163000D02*
X11931000Y-11163000D01*
X13073000Y-5127000D02*
X13073000Y-5227000D01*
X13023000Y-5177000D02*
X13123000Y-5177000D01*
X13073000Y-5381000D02*
X13073000Y-5481000D01*
X13023000Y-5431000D02*
X13123000Y-5431000D01*
X13073000Y-6319000D02*
X13073000Y-6419000D01*
X13023000Y-6369000D02*
X13123000Y-6369000D01*
X13073000Y-6573000D02*
X13073000Y-6673000D01*
X13023000Y-6623000D02*
X13123000Y-6623000D01*
X13450000Y-6900000D02*
X13450000Y-7000000D01*
X13400000Y-6950000D02*
X13500000Y-6950000D01*
X13450000Y-7154000D02*
X13450000Y-7254000D01*
X13400000Y-7204000D02*
X13500000Y-7204000D01*
X13450000Y-7408000D02*
X13450000Y-7508000D01*
X13400000Y-7458000D02*
X13500000Y-7458000D01*
X13450000Y-7662000D02*
X13450000Y-7762000D01*
X13400000Y-7712000D02*
X13500000Y-7712000D01*
X13450000Y-7916000D02*
X13450000Y-8016000D01*
X13400000Y-7966000D02*
X13500000Y-7966000D01*
X13450000Y-8170000D02*
X13450000Y-8270000D01*
X13400000Y-8220000D02*
X13500000Y-8220000D01*
X13450000Y-8424000D02*
X13450000Y-8524000D01*
X13400000Y-8474000D02*
X13500000Y-8474000D01*
X13450000Y-8678000D02*
X13450000Y-8778000D01*
X13400000Y-8728000D02*
X13500000Y-8728000D01*
X13450000Y-8932000D02*
X13450000Y-9032000D01*
X13400000Y-8982000D02*
X13500000Y-8982000D01*
X13450000Y-9186000D02*
X13450000Y-9286000D01*
X13400000Y-9236000D02*
X13500000Y-9236000D01*
X13450000Y-9440000D02*
X13450000Y-9540000D01*
X13400000Y-9490000D02*
X13500000Y-9490000D01*
X13450000Y-9694000D02*
X13450000Y-9794000D01*
X13400000Y-9744000D02*
X13500000Y-9744000D01*
X13450000Y-9948000D02*
X13450000Y-10048000D01*
X13400000Y-9998000D02*
X13500000Y-9998000D01*
X13450000Y-10202000D02*
X13450000Y-10302000D01*
X13400000Y-10252000D02*
X13500000Y-10252000D01*
X13450000Y-10456000D02*
X13450000Y-10556000D01*
X13400000Y-10506000D02*
X13500000Y-10506000D01*
X13450000Y-10710000D02*
X13450000Y-10810000D01*
X13400000Y-10760000D02*
X13500000Y-10760000D01*
X15736000Y-6900000D02*
X15736000Y-7000000D01*
X15686000Y-6950000D02*
X15786000Y-6950000D01*
X15736000Y-7154000D02*
X15736000Y-7254000D01*
X15686000Y-7204000D02*
X15786000Y-7204000D01*
X15736000Y-7408000D02*
X15736000Y-7508000D01*
X15686000Y-7458000D02*
X15786000Y-7458000D01*
X15736000Y-7662000D02*
X15736000Y-7762000D01*
X15686000Y-7712000D02*
X15786000Y-7712000D01*
X15736000Y-7916000D02*
X15736000Y-8016000D01*
X15686000Y-7966000D02*
X15786000Y-7966000D01*
X15736000Y-8170000D02*
X15736000Y-8270000D01*
X15686000Y-8220000D02*
X15786000Y-8220000D01*
X15736000Y-8424000D02*
X15736000Y-8524000D01*
X15686000Y-8474000D02*
X15786000Y-8474000D01*
X15736000Y-8678000D02*
X15736000Y-8778000D01*
X15686000Y-8728000D02*
X15786000Y-8728000D01*
X15736000Y-8932000D02*
X15736000Y-9032000D01*
X15686000Y-8982000D02*
X15786000Y-8982000D01*
X15736000Y-9186000D02*
X15736000Y-9286000D01*
X15686000Y-9236000D02*
X15786000Y-9236000D01*
X15736000Y-9440000D02*
X15736000Y-9540000D01*
X15686000Y-9490000D02*
X15786000Y-9490000D01*
X15736000Y-9694000D02*
X15736000Y-9794000D01*
X15686000Y-9744000D02*
X15786000Y-9744000D01*
X15736000Y-9948000D02*
X15736000Y-10048000D01*
X15686000Y-9998000D02*
X15786000Y-9998000D01*
X15736000Y-10202000D02*
X15736000Y-10302000D01*
X15686000Y-10252000D02*
X15786000Y-10252000D01*
X15736000Y-10456000D02*
X15736000Y-10556000D01*
X15686000Y-10506000D02*
X15786000Y-10506000D01*
X15736000Y-10710000D02*
X15736000Y-10810000D01*
X15686000Y-10760000D02*
X15786000Y-10760000D01*
X17260000Y-10300000D02*
X17260000Y-10400000D01*
X17210000Y-10350000D02*
X17310000Y-10350000D01*
X17510000Y-10300000D02*
X17510000Y-10400000D01*
X17460000Y-10350000D02*
X17560000Y-10350000D01*
X17760000Y-10300000D02*
X17760000Y-10400000D01*
X17710000Y-10350000D02*
X17810000Y-10350000D01*
X18778750Y-9200000D02*
X18778750Y-9300000D01*
X18728750Y-9250000D02*
X18828750Y-9250000D01*
X18728750Y-9150000D02*
X18728750Y-9350000D01*
X18828750Y-9350000D02*
G75*
G02*
X18728750Y-9350000I-50000J0D01*
G01*
X18828750Y-9350000D02*
X18828750Y-9150000D01*
X18828750Y-9150000D02*
G75*
G03*
X18728750Y-9150000I-50000J0D01*
G01*
X18780000Y-6100000D02*
X18780000Y-6200000D01*
X18730000Y-6150000D02*
X18830000Y-6150000D01*
X18730000Y-6050000D02*
X18730000Y-6250000D01*
X18830000Y-6250000D02*
G75*
G02*
X18730000Y-6250000I-50000J0D01*
G01*
X18830000Y-6250000D02*
X18830000Y-6050000D01*
X18830000Y-6050000D02*
G75*
G03*
X18730000Y-6050000I-50000J0D01*
G01*
X18780000Y-7650000D02*
X18780000Y-7750000D01*
X18730000Y-7700000D02*
X18830000Y-7700000D01*
X18730000Y-7600000D02*
X18730000Y-7800000D01*
X18830000Y-7800000D02*
G75*
G02*
X18730000Y-7800000I-50000J0D01*
G01*
X18830000Y-7800000D02*
X18830000Y-7600000D01*
X18830000Y-7600000D02*
G75*
G03*
X18730000Y-7600000I-50000J0D01*
G01*
X18827000Y-10519000D02*
X18827000Y-10619000D01*
X18777000Y-10569000D02*
X18877000Y-10569000D01*
X18827000Y-10773000D02*
X18827000Y-10873000D01*
X18777000Y-10823000D02*
X18877000Y-10823000D01*
X18827000Y-11027000D02*
X18827000Y-11127000D01*
X18777000Y-11077000D02*
X18877000Y-11077000D01*
X18827000Y-11281000D02*
X18827000Y-11381000D01*
X18777000Y-11331000D02*
X18877000Y-11331000D01*
X19078750Y-9670000D02*
X19078750Y-9770000D01*
X19028750Y-9720000D02*
X19128750Y-9720000D01*
X18978750Y-9770000D02*
X19178750Y-9770000D01*
X19178750Y-9670000D02*
G75*
G02*
X19178750Y-9770000I0J-50000D01*
G01*
X19178750Y-9670000D02*
X18978750Y-9670000D01*
X18978750Y-9670000D02*
G75*
G03*
X18978750Y-9770000I0J-50000D01*
G01*
X19080000Y-6570000D02*
X19080000Y-6670000D01*
X19030000Y-6620000D02*
X19130000Y-6620000D01*
X18980000Y-6670000D02*
X19180000Y-6670000D01*
X19180000Y-6570000D02*
G75*
G02*
X19180000Y-6670000I0J-50000D01*
G01*
X19180000Y-6570000D02*
X18980000Y-6570000D01*
X18980000Y-6570000D02*
G75*
G03*
X18980000Y-6670000I0J-50000D01*
G01*
X19080000Y-8120000D02*
X19080000Y-8220000D01*
X19030000Y-8170000D02*
X19130000Y-8170000D01*
X18980000Y-8220000D02*
X19180000Y-8220000D01*
X19180000Y-8120000D02*
G75*
G02*
X19180000Y-8220000I0J-50000D01*
G01*
X19180000Y-8120000D02*
X18980000Y-8120000D01*
X18980000Y-8120000D02*
G75*
G03*
X18980000Y-8220000I0J-50000D01*
G01*
X19398750Y-9200000D02*
X19398750Y-9300000D01*
X19348750Y-9250000D02*
X19448750Y-9250000D01*
X19348750Y-9150000D02*
X19348750Y-9350000D01*
X19448750Y-9350000D02*
G75*
G02*
X19348750Y-9350000I-50000J0D01*
G01*
X19448750Y-9350000D02*
X19448750Y-9150000D01*
X19448750Y-9150000D02*
G75*
G03*
X19348750Y-9150000I-50000J0D01*
G01*
X19400000Y-6100000D02*
X19400000Y-6200000D01*
X19350000Y-6150000D02*
X19450000Y-6150000D01*
X19350000Y-6050000D02*
X19350000Y-6250000D01*
X19450000Y-6250000D02*
G75*
G02*
X19350000Y-6250000I-50000J0D01*
G01*
X19450000Y-6250000D02*
X19450000Y-6050000D01*
X19450000Y-6050000D02*
G75*
G03*
X19350000Y-6050000I-50000J0D01*
G01*
X19400000Y-7650000D02*
X19400000Y-7750000D01*
X19350000Y-7700000D02*
X19450000Y-7700000D01*
X19350000Y-7600000D02*
X19350000Y-7800000D01*
X19450000Y-7800000D02*
G75*
G02*
X19350000Y-7800000I-50000J0D01*
G01*
X19450000Y-7800000D02*
X19450000Y-7600000D01*
X19450000Y-7600000D02*
G75*
G03*
X19350000Y-7600000I-50000J0D01*
G01*
D13*
X8956891Y-8363891D02*
X8956891Y-8286109D01*
X8879109Y-8286109D01*
X8879109Y-8363891D01*
X8956891Y-8363891D01*
X8956891Y-8813891D02*
X8956891Y-8736109D01*
X8879109Y-8736109D01*
X8879109Y-8813891D01*
X8956891Y-8813891D01*
X8956891Y-10823891D02*
X8956891Y-10746109D01*
X8879109Y-10746109D01*
X8879109Y-10823891D01*
X8956891Y-10823891D01*
X8956891Y-11273891D02*
X8956891Y-11196109D01*
X8879109Y-11196109D01*
X8879109Y-11273891D01*
X8956891Y-11273891D01*
X8963891Y-9163891D02*
X8963891Y-9086109D01*
X8886109Y-9086109D01*
X8886109Y-9163891D01*
X8963891Y-9163891D01*
X8963891Y-9613891D02*
X8963891Y-9536109D01*
X8886109Y-9536109D01*
X8886109Y-9613891D01*
X8963891Y-9613891D01*
X8963891Y-9988891D02*
X8963891Y-9911109D01*
X8886109Y-9911109D01*
X8886109Y-9988891D01*
X8963891Y-9988891D01*
X8963891Y-10438891D02*
X8963891Y-10361109D01*
X8886109Y-10361109D01*
X8886109Y-10438891D01*
X8963891Y-10438891D01*
X9606891Y-8363891D02*
X9606891Y-8286109D01*
X9529109Y-8286109D01*
X9529109Y-8363891D01*
X9606891Y-8363891D01*
X9606891Y-8813891D02*
X9606891Y-8736109D01*
X9529109Y-8736109D01*
X9529109Y-8813891D01*
X9606891Y-8813891D01*
X9606891Y-10823891D02*
X9606891Y-10746109D01*
X9529109Y-10746109D01*
X9529109Y-10823891D01*
X9606891Y-10823891D01*
X9606891Y-11273891D02*
X9606891Y-11196109D01*
X9529109Y-11196109D01*
X9529109Y-11273891D01*
X9606891Y-11273891D01*
X9613891Y-9163891D02*
X9613891Y-9086109D01*
X9536109Y-9086109D01*
X9536109Y-9163891D01*
X9613891Y-9163891D01*
X9613891Y-9613891D02*
X9613891Y-9536109D01*
X9536109Y-9536109D01*
X9536109Y-9613891D01*
X9613891Y-9613891D01*
X9613891Y-9988891D02*
X9613891Y-9911109D01*
X9536109Y-9911109D01*
X9536109Y-9988891D01*
X9613891Y-9988891D01*
X9613891Y-10438891D02*
X9613891Y-10361109D01*
X9536109Y-10361109D01*
X9536109Y-10438891D01*
X9613891Y-10438891D01*
X18283891Y-8976891D02*
X18283891Y-8899109D01*
X18206109Y-8899109D01*
X18206109Y-8976891D01*
X18283891Y-8976891D01*
X18283891Y-9230891D02*
X18283891Y-9153109D01*
X18206109Y-9153109D01*
X18206109Y-9230891D01*
X18283891Y-9230891D01*
X18283891Y-9484891D02*
X18283891Y-9407109D01*
X18206109Y-9407109D01*
X18206109Y-9484891D01*
X18283891Y-9484891D01*
X18285141Y-7431891D02*
X18285141Y-7354109D01*
X18207359Y-7354109D01*
X18207359Y-7431891D01*
X18285141Y-7431891D01*
X18285141Y-7685891D02*
X18285141Y-7608109D01*
X18207359Y-7608109D01*
X18207359Y-7685891D01*
X18285141Y-7685891D01*
X18285141Y-7939891D02*
X18285141Y-7862109D01*
X18207359Y-7862109D01*
X18207359Y-7939891D01*
X18285141Y-7939891D01*
X18290141Y-5840891D02*
X18290141Y-5763109D01*
X18212359Y-5763109D01*
X18212359Y-5840891D01*
X18290141Y-5840891D01*
X18290141Y-6094891D02*
X18290141Y-6017109D01*
X18212359Y-6017109D01*
X18212359Y-6094891D01*
X18290141Y-6094891D01*
X18290141Y-6348891D02*
X18290141Y-6271109D01*
X18212359Y-6271109D01*
X18212359Y-6348891D01*
X18290141Y-6348891D01*
D14*
X17070000Y-11140000D02*
X17160000Y-11050000D01*
X17070000Y-10960000D01*
X16980000Y-11050000D01*
X17070000Y-11140000D01*
D12*
X16980000Y-11035000D02*
X16980000Y-11065000D01*
X17160000Y-11065000D02*
G75*
G02*
X16980000Y-11065000I-90000J0D01*
G01*
X17160000Y-11065000D02*
X17160000Y-11035000D01*
X17160000Y-11035000D02*
G75*
G03*
X16980000Y-11035000I-90000J0D01*
G01*
D14*
X17950000Y-11140000D02*
X18040000Y-11050000D01*
X17950000Y-10960000D01*
X17860000Y-11050000D01*
X17950000Y-11140000D01*
D12*
X17860000Y-11035000D02*
X17860000Y-11065000D01*
X18040000Y-11065000D02*
G75*
G02*
X17860000Y-11065000I-90000J0D01*
G01*
X18040000Y-11065000D02*
X18040000Y-11035000D01*
X18040000Y-11035000D02*
G75*
G03*
X17860000Y-11035000I-90000J0D01*
G01*
D11*
X8458277Y-12313984D02*
X8458277Y-12113984D01*
X8458277Y-12113984D02*
X8505896Y-12113984D01*
X8505896Y-12113984D02*
X8534467Y-12123508D01*
X8534467Y-12123508D02*
X8553515Y-12142555D01*
X8553515Y-12142555D02*
X8563039Y-12161603D01*
X8563039Y-12161603D02*
X8572563Y-12199698D01*
X8572563Y-12199698D02*
X8572563Y-12228269D01*
X8572563Y-12228269D02*
X8563039Y-12266365D01*
X8563039Y-12266365D02*
X8553515Y-12285412D01*
X8553515Y-12285412D02*
X8534467Y-12304460D01*
X8534467Y-12304460D02*
X8505896Y-12313984D01*
X8505896Y-12313984D02*
X8458277Y-12313984D01*
X8658277Y-12313984D02*
X8658277Y-12180650D01*
X8658277Y-12218746D02*
X8667801Y-12199698D01*
X8667801Y-12199698D02*
X8677324Y-12190174D01*
X8677324Y-12190174D02*
X8696372Y-12180650D01*
X8696372Y-12180650D02*
X8715420Y-12180650D01*
X8782086Y-12313984D02*
X8782086Y-12180650D01*
X8782086Y-12113984D02*
X8772563Y-12123508D01*
X8772563Y-12123508D02*
X8782086Y-12133031D01*
X8782086Y-12133031D02*
X8791610Y-12123508D01*
X8791610Y-12123508D02*
X8782086Y-12113984D01*
X8782086Y-12113984D02*
X8782086Y-12133031D01*
X8905896Y-12313984D02*
X8886848Y-12304460D01*
X8886848Y-12304460D02*
X8877324Y-12285412D01*
X8877324Y-12285412D02*
X8877324Y-12113984D01*
X9010658Y-12313984D02*
X8991610Y-12304460D01*
X8991610Y-12304460D02*
X8982086Y-12285412D01*
X8982086Y-12285412D02*
X8982086Y-12113984D01*
X9239229Y-12313984D02*
X9239229Y-12113984D01*
X9239229Y-12113984D02*
X9305896Y-12256841D01*
X9305896Y-12256841D02*
X9372563Y-12113984D01*
X9372563Y-12113984D02*
X9372563Y-12313984D01*
X9553515Y-12313984D02*
X9553515Y-12209222D01*
X9553515Y-12209222D02*
X9543991Y-12190174D01*
X9543991Y-12190174D02*
X9524944Y-12180650D01*
X9524944Y-12180650D02*
X9486848Y-12180650D01*
X9486848Y-12180650D02*
X9467801Y-12190174D01*
X9553515Y-12304460D02*
X9534467Y-12313984D01*
X9534467Y-12313984D02*
X9486848Y-12313984D01*
X9486848Y-12313984D02*
X9467801Y-12304460D01*
X9467801Y-12304460D02*
X9458277Y-12285412D01*
X9458277Y-12285412D02*
X9458277Y-12266365D01*
X9458277Y-12266365D02*
X9467801Y-12247317D01*
X9467801Y-12247317D02*
X9486848Y-12237793D01*
X9486848Y-12237793D02*
X9534467Y-12237793D01*
X9534467Y-12237793D02*
X9553515Y-12228269D01*
X9648753Y-12180650D02*
X9648753Y-12380650D01*
X9648753Y-12190174D02*
X9667801Y-12180650D01*
X9667801Y-12180650D02*
X9705896Y-12180650D01*
X9705896Y-12180650D02*
X9724944Y-12190174D01*
X9724944Y-12190174D02*
X9734467Y-12199698D01*
X9734467Y-12199698D02*
X9743991Y-12218746D01*
X9743991Y-12218746D02*
X9743991Y-12275888D01*
X9743991Y-12275888D02*
X9734467Y-12294936D01*
X9734467Y-12294936D02*
X9724944Y-12304460D01*
X9724944Y-12304460D02*
X9705896Y-12313984D01*
X9705896Y-12313984D02*
X9667801Y-12313984D01*
X9667801Y-12313984D02*
X9648753Y-12304460D01*
X9829705Y-12294936D02*
X9839229Y-12304460D01*
X9839229Y-12304460D02*
X9829705Y-12313984D01*
X9829705Y-12313984D02*
X9820182Y-12304460D01*
X9820182Y-12304460D02*
X9829705Y-12294936D01*
X9829705Y-12294936D02*
X9829705Y-12313984D01*
X9829705Y-12190174D02*
X9839229Y-12199698D01*
X9839229Y-12199698D02*
X9829705Y-12209222D01*
X9829705Y-12209222D02*
X9820182Y-12199698D01*
X9820182Y-12199698D02*
X9829705Y-12190174D01*
X9829705Y-12190174D02*
X9829705Y-12209222D01*
D12*
X8117500Y-12602500D02*
X8197500Y-12682500D01*
X8197500Y-12602500D02*
X8117500Y-12682500D01*
D11*
X8496372Y-12533984D02*
X8515420Y-12533984D01*
X8515420Y-12533984D02*
X8534467Y-12543508D01*
X8534467Y-12543508D02*
X8543991Y-12553031D01*
X8543991Y-12553031D02*
X8553515Y-12572079D01*
X8553515Y-12572079D02*
X8563039Y-12610174D01*
X8563039Y-12610174D02*
X8563039Y-12657793D01*
X8563039Y-12657793D02*
X8553515Y-12695888D01*
X8553515Y-12695888D02*
X8543991Y-12714936D01*
X8543991Y-12714936D02*
X8534467Y-12724460D01*
X8534467Y-12724460D02*
X8515420Y-12733984D01*
X8515420Y-12733984D02*
X8496372Y-12733984D01*
X8496372Y-12733984D02*
X8477324Y-12724460D01*
X8477324Y-12724460D02*
X8467801Y-12714936D01*
X8467801Y-12714936D02*
X8458277Y-12695888D01*
X8458277Y-12695888D02*
X8448753Y-12657793D01*
X8448753Y-12657793D02*
X8448753Y-12610174D01*
X8448753Y-12610174D02*
X8458277Y-12572079D01*
X8458277Y-12572079D02*
X8467801Y-12553031D01*
X8467801Y-12553031D02*
X8477324Y-12543508D01*
X8477324Y-12543508D02*
X8496372Y-12533984D01*
X8648753Y-12714936D02*
X8658277Y-12724460D01*
X8658277Y-12724460D02*
X8648753Y-12733984D01*
X8648753Y-12733984D02*
X8639229Y-12724460D01*
X8639229Y-12724460D02*
X8648753Y-12714936D01*
X8648753Y-12714936D02*
X8648753Y-12733984D01*
X8772563Y-12619698D02*
X8753515Y-12610174D01*
X8753515Y-12610174D02*
X8743991Y-12600650D01*
X8743991Y-12600650D02*
X8734467Y-12581603D01*
X8734467Y-12581603D02*
X8734467Y-12572079D01*
X8734467Y-12572079D02*
X8743991Y-12553031D01*
X8743991Y-12553031D02*
X8753515Y-12543508D01*
X8753515Y-12543508D02*
X8772563Y-12533984D01*
X8772563Y-12533984D02*
X8810658Y-12533984D01*
X8810658Y-12533984D02*
X8829705Y-12543508D01*
X8829705Y-12543508D02*
X8839229Y-12553031D01*
X8839229Y-12553031D02*
X8848753Y-12572079D01*
X8848753Y-12572079D02*
X8848753Y-12581603D01*
X8848753Y-12581603D02*
X8839229Y-12600650D01*
X8839229Y-12600650D02*
X8829705Y-12610174D01*
X8829705Y-12610174D02*
X8810658Y-12619698D01*
X8810658Y-12619698D02*
X8772563Y-12619698D01*
X8772563Y-12619698D02*
X8753515Y-12629222D01*
X8753515Y-12629222D02*
X8743991Y-12638746D01*
X8743991Y-12638746D02*
X8734467Y-12657793D01*
X8734467Y-12657793D02*
X8734467Y-12695888D01*
X8734467Y-12695888D02*
X8743991Y-12714936D01*
X8743991Y-12714936D02*
X8753515Y-12724460D01*
X8753515Y-12724460D02*
X8772563Y-12733984D01*
X8772563Y-12733984D02*
X8810658Y-12733984D01*
X8810658Y-12733984D02*
X8829705Y-12724460D01*
X8829705Y-12724460D02*
X8839229Y-12714936D01*
X8839229Y-12714936D02*
X8848753Y-12695888D01*
X8848753Y-12695888D02*
X8848753Y-12657793D01*
X8848753Y-12657793D02*
X8839229Y-12638746D01*
X8839229Y-12638746D02*
X8829705Y-12629222D01*
X8829705Y-12629222D02*
X8810658Y-12619698D01*
X8972563Y-12533984D02*
X8991610Y-12533984D01*
X8991610Y-12533984D02*
X9010658Y-12543508D01*
X9010658Y-12543508D02*
X9020182Y-12553031D01*
X9020182Y-12553031D02*
X9029705Y-12572079D01*
X9029705Y-12572079D02*
X9039229Y-12610174D01*
X9039229Y-12610174D02*
X9039229Y-12657793D01*
X9039229Y-12657793D02*
X9029705Y-12695888D01*
X9029705Y-12695888D02*
X9020182Y-12714936D01*
X9020182Y-12714936D02*
X9010658Y-12724460D01*
X9010658Y-12724460D02*
X8991610Y-12733984D01*
X8991610Y-12733984D02*
X8972563Y-12733984D01*
X8972563Y-12733984D02*
X8953515Y-12724460D01*
X8953515Y-12724460D02*
X8943991Y-12714936D01*
X8943991Y-12714936D02*
X8934467Y-12695888D01*
X8934467Y-12695888D02*
X8924944Y-12657793D01*
X8924944Y-12657793D02*
X8924944Y-12610174D01*
X8924944Y-12610174D02*
X8934467Y-12572079D01*
X8934467Y-12572079D02*
X8943991Y-12553031D01*
X8943991Y-12553031D02*
X8953515Y-12543508D01*
X8953515Y-12543508D02*
X8972563Y-12533984D01*
X9163039Y-12533984D02*
X9182086Y-12533984D01*
X9182086Y-12533984D02*
X9201134Y-12543508D01*
X9201134Y-12543508D02*
X9210658Y-12553031D01*
X9210658Y-12553031D02*
X9220182Y-12572079D01*
X9220182Y-12572079D02*
X9229705Y-12610174D01*
X9229705Y-12610174D02*
X9229705Y-12657793D01*
X9229705Y-12657793D02*
X9220182Y-12695888D01*
X9220182Y-12695888D02*
X9210658Y-12714936D01*
X9210658Y-12714936D02*
X9201134Y-12724460D01*
X9201134Y-12724460D02*
X9182086Y-12733984D01*
X9182086Y-12733984D02*
X9163039Y-12733984D01*
X9163039Y-12733984D02*
X9143991Y-12724460D01*
X9143991Y-12724460D02*
X9134467Y-12714936D01*
X9134467Y-12714936D02*
X9124944Y-12695888D01*
X9124944Y-12695888D02*
X9115420Y-12657793D01*
X9115420Y-12657793D02*
X9115420Y-12610174D01*
X9115420Y-12610174D02*
X9124944Y-12572079D01*
X9124944Y-12572079D02*
X9134467Y-12553031D01*
X9134467Y-12553031D02*
X9143991Y-12543508D01*
X9143991Y-12543508D02*
X9163039Y-12533984D01*
X9315420Y-12733984D02*
X9315420Y-12600650D01*
X9315420Y-12619698D02*
X9324944Y-12610174D01*
X9324944Y-12610174D02*
X9343991Y-12600650D01*
X9343991Y-12600650D02*
X9372563Y-12600650D01*
X9372563Y-12600650D02*
X9391610Y-12610174D01*
X9391610Y-12610174D02*
X9401134Y-12629222D01*
X9401134Y-12629222D02*
X9401134Y-12733984D01*
X9401134Y-12629222D02*
X9410658Y-12610174D01*
X9410658Y-12610174D02*
X9429705Y-12600650D01*
X9429705Y-12600650D02*
X9458277Y-12600650D01*
X9458277Y-12600650D02*
X9477325Y-12610174D01*
X9477325Y-12610174D02*
X9486848Y-12629222D01*
X9486848Y-12629222D02*
X9486848Y-12733984D01*
X9582086Y-12733984D02*
X9582086Y-12600650D01*
X9582086Y-12619698D02*
X9591610Y-12610174D01*
X9591610Y-12610174D02*
X9610658Y-12600650D01*
X9610658Y-12600650D02*
X9639229Y-12600650D01*
X9639229Y-12600650D02*
X9658277Y-12610174D01*
X9658277Y-12610174D02*
X9667801Y-12629222D01*
X9667801Y-12629222D02*
X9667801Y-12733984D01*
X9667801Y-12629222D02*
X9677325Y-12610174D01*
X9677325Y-12610174D02*
X9696372Y-12600650D01*
X9696372Y-12600650D02*
X9724944Y-12600650D01*
X9724944Y-12600650D02*
X9743991Y-12610174D01*
X9743991Y-12610174D02*
X9753515Y-12629222D01*
X9753515Y-12629222D02*
X9753515Y-12733984D01*
X10143991Y-12524460D02*
X9972563Y-12781603D01*
X10401134Y-12533984D02*
X10420182Y-12533984D01*
X10420182Y-12533984D02*
X10439229Y-12543508D01*
X10439229Y-12543508D02*
X10448753Y-12553031D01*
X10448753Y-12553031D02*
X10458277Y-12572079D01*
X10458277Y-12572079D02*
X10467801Y-12610174D01*
X10467801Y-12610174D02*
X10467801Y-12657793D01*
X10467801Y-12657793D02*
X10458277Y-12695888D01*
X10458277Y-12695888D02*
X10448753Y-12714936D01*
X10448753Y-12714936D02*
X10439229Y-12724460D01*
X10439229Y-12724460D02*
X10420182Y-12733984D01*
X10420182Y-12733984D02*
X10401134Y-12733984D01*
X10401134Y-12733984D02*
X10382087Y-12724460D01*
X10382087Y-12724460D02*
X10372563Y-12714936D01*
X10372563Y-12714936D02*
X10363039Y-12695888D01*
X10363039Y-12695888D02*
X10353515Y-12657793D01*
X10353515Y-12657793D02*
X10353515Y-12610174D01*
X10353515Y-12610174D02*
X10363039Y-12572079D01*
X10363039Y-12572079D02*
X10372563Y-12553031D01*
X10372563Y-12553031D02*
X10382087Y-12543508D01*
X10382087Y-12543508D02*
X10401134Y-12533984D01*
X10553515Y-12714936D02*
X10563039Y-12724460D01*
X10563039Y-12724460D02*
X10553515Y-12733984D01*
X10553515Y-12733984D02*
X10543991Y-12724460D01*
X10543991Y-12724460D02*
X10553515Y-12714936D01*
X10553515Y-12714936D02*
X10553515Y-12733984D01*
X10686848Y-12533984D02*
X10705896Y-12533984D01*
X10705896Y-12533984D02*
X10724944Y-12543508D01*
X10724944Y-12543508D02*
X10734468Y-12553031D01*
X10734468Y-12553031D02*
X10743991Y-12572079D01*
X10743991Y-12572079D02*
X10753515Y-12610174D01*
X10753515Y-12610174D02*
X10753515Y-12657793D01*
X10753515Y-12657793D02*
X10743991Y-12695888D01*
X10743991Y-12695888D02*
X10734468Y-12714936D01*
X10734468Y-12714936D02*
X10724944Y-12724460D01*
X10724944Y-12724460D02*
X10705896Y-12733984D01*
X10705896Y-12733984D02*
X10686848Y-12733984D01*
X10686848Y-12733984D02*
X10667801Y-12724460D01*
X10667801Y-12724460D02*
X10658277Y-12714936D01*
X10658277Y-12714936D02*
X10648753Y-12695888D01*
X10648753Y-12695888D02*
X10639229Y-12657793D01*
X10639229Y-12657793D02*
X10639229Y-12610174D01*
X10639229Y-12610174D02*
X10648753Y-12572079D01*
X10648753Y-12572079D02*
X10658277Y-12553031D01*
X10658277Y-12553031D02*
X10667801Y-12543508D01*
X10667801Y-12543508D02*
X10686848Y-12533984D01*
X10820182Y-12533984D02*
X10943991Y-12533984D01*
X10943991Y-12533984D02*
X10877325Y-12610174D01*
X10877325Y-12610174D02*
X10905896Y-12610174D01*
X10905896Y-12610174D02*
X10924944Y-12619698D01*
X10924944Y-12619698D02*
X10934468Y-12629222D01*
X10934468Y-12629222D02*
X10943991Y-12648269D01*
X10943991Y-12648269D02*
X10943991Y-12695888D01*
X10943991Y-12695888D02*
X10934468Y-12714936D01*
X10934468Y-12714936D02*
X10924944Y-12724460D01*
X10924944Y-12724460D02*
X10905896Y-12733984D01*
X10905896Y-12733984D02*
X10848753Y-12733984D01*
X10848753Y-12733984D02*
X10829706Y-12724460D01*
X10829706Y-12724460D02*
X10820182Y-12714936D01*
X11134468Y-12733984D02*
X11020182Y-12733984D01*
X11077325Y-12733984D02*
X11077325Y-12533984D01*
X11077325Y-12533984D02*
X11058277Y-12562555D01*
X11058277Y-12562555D02*
X11039229Y-12581603D01*
X11039229Y-12581603D02*
X11020182Y-12591127D01*
X11315420Y-12533984D02*
X11220182Y-12533984D01*
X11220182Y-12533984D02*
X11210658Y-12629222D01*
X11210658Y-12629222D02*
X11220182Y-12619698D01*
X11220182Y-12619698D02*
X11239229Y-12610174D01*
X11239229Y-12610174D02*
X11286848Y-12610174D01*
X11286848Y-12610174D02*
X11305896Y-12619698D01*
X11305896Y-12619698D02*
X11315420Y-12629222D01*
X11315420Y-12629222D02*
X11324944Y-12648269D01*
X11324944Y-12648269D02*
X11324944Y-12695888D01*
X11324944Y-12695888D02*
X11315420Y-12714936D01*
X11315420Y-12714936D02*
X11305896Y-12724460D01*
X11305896Y-12724460D02*
X11286848Y-12733984D01*
X11286848Y-12733984D02*
X11239229Y-12733984D01*
X11239229Y-12733984D02*
X11220182Y-12724460D01*
X11220182Y-12724460D02*
X11210658Y-12714936D01*
X11401134Y-12533984D02*
X11401134Y-12572079D01*
X11477325Y-12533984D02*
X11477325Y-12572079D01*
X11772563Y-12810174D02*
X11763039Y-12800650D01*
X11763039Y-12800650D02*
X11743991Y-12772079D01*
X11743991Y-12772079D02*
X11734468Y-12753031D01*
X11734468Y-12753031D02*
X11724944Y-12724460D01*
X11724944Y-12724460D02*
X11715420Y-12676841D01*
X11715420Y-12676841D02*
X11715420Y-12638746D01*
X11715420Y-12638746D02*
X11724944Y-12591127D01*
X11724944Y-12591127D02*
X11734468Y-12562555D01*
X11734468Y-12562555D02*
X11743991Y-12543508D01*
X11743991Y-12543508D02*
X11763039Y-12514936D01*
X11763039Y-12514936D02*
X11772563Y-12505412D01*
X11829706Y-12533984D02*
X11953515Y-12533984D01*
X11953515Y-12533984D02*
X11886848Y-12610174D01*
X11886848Y-12610174D02*
X11915420Y-12610174D01*
X11915420Y-12610174D02*
X11934468Y-12619698D01*
X11934468Y-12619698D02*
X11943991Y-12629222D01*
X11943991Y-12629222D02*
X11953515Y-12648269D01*
X11953515Y-12648269D02*
X11953515Y-12695888D01*
X11953515Y-12695888D02*
X11943991Y-12714936D01*
X11943991Y-12714936D02*
X11934468Y-12724460D01*
X11934468Y-12724460D02*
X11915420Y-12733984D01*
X11915420Y-12733984D02*
X11858277Y-12733984D01*
X11858277Y-12733984D02*
X11839229Y-12724460D01*
X11839229Y-12724460D02*
X11829706Y-12714936D01*
X12124944Y-12533984D02*
X12086848Y-12533984D01*
X12086848Y-12533984D02*
X12067801Y-12543508D01*
X12067801Y-12543508D02*
X12058277Y-12553031D01*
X12058277Y-12553031D02*
X12039229Y-12581603D01*
X12039229Y-12581603D02*
X12029706Y-12619698D01*
X12029706Y-12619698D02*
X12029706Y-12695888D01*
X12029706Y-12695888D02*
X12039229Y-12714936D01*
X12039229Y-12714936D02*
X12048753Y-12724460D01*
X12048753Y-12724460D02*
X12067801Y-12733984D01*
X12067801Y-12733984D02*
X12105896Y-12733984D01*
X12105896Y-12733984D02*
X12124944Y-12724460D01*
X12124944Y-12724460D02*
X12134468Y-12714936D01*
X12134468Y-12714936D02*
X12143991Y-12695888D01*
X12143991Y-12695888D02*
X12143991Y-12648269D01*
X12143991Y-12648269D02*
X12134468Y-12629222D01*
X12134468Y-12629222D02*
X12124944Y-12619698D01*
X12124944Y-12619698D02*
X12105896Y-12610174D01*
X12105896Y-12610174D02*
X12067801Y-12610174D01*
X12067801Y-12610174D02*
X12048753Y-12619698D01*
X12048753Y-12619698D02*
X12039229Y-12629222D01*
X12039229Y-12629222D02*
X12029706Y-12648269D01*
X12382087Y-12733984D02*
X12382087Y-12533984D01*
X12467801Y-12733984D02*
X12467801Y-12629222D01*
X12467801Y-12629222D02*
X12458277Y-12610174D01*
X12458277Y-12610174D02*
X12439230Y-12600650D01*
X12439230Y-12600650D02*
X12410658Y-12600650D01*
X12410658Y-12600650D02*
X12391610Y-12610174D01*
X12391610Y-12610174D02*
X12382087Y-12619698D01*
X12591610Y-12733984D02*
X12572563Y-12724460D01*
X12572563Y-12724460D02*
X12563039Y-12714936D01*
X12563039Y-12714936D02*
X12553515Y-12695888D01*
X12553515Y-12695888D02*
X12553515Y-12638746D01*
X12553515Y-12638746D02*
X12563039Y-12619698D01*
X12563039Y-12619698D02*
X12572563Y-12610174D01*
X12572563Y-12610174D02*
X12591610Y-12600650D01*
X12591610Y-12600650D02*
X12620182Y-12600650D01*
X12620182Y-12600650D02*
X12639230Y-12610174D01*
X12639230Y-12610174D02*
X12648753Y-12619698D01*
X12648753Y-12619698D02*
X12658277Y-12638746D01*
X12658277Y-12638746D02*
X12658277Y-12695888D01*
X12658277Y-12695888D02*
X12648753Y-12714936D01*
X12648753Y-12714936D02*
X12639230Y-12724460D01*
X12639230Y-12724460D02*
X12620182Y-12733984D01*
X12620182Y-12733984D02*
X12591610Y-12733984D01*
X12772563Y-12733984D02*
X12753515Y-12724460D01*
X12753515Y-12724460D02*
X12743991Y-12705412D01*
X12743991Y-12705412D02*
X12743991Y-12533984D01*
X12924944Y-12724460D02*
X12905896Y-12733984D01*
X12905896Y-12733984D02*
X12867801Y-12733984D01*
X12867801Y-12733984D02*
X12848753Y-12724460D01*
X12848753Y-12724460D02*
X12839230Y-12705412D01*
X12839230Y-12705412D02*
X12839230Y-12629222D01*
X12839230Y-12629222D02*
X12848753Y-12610174D01*
X12848753Y-12610174D02*
X12867801Y-12600650D01*
X12867801Y-12600650D02*
X12905896Y-12600650D01*
X12905896Y-12600650D02*
X12924944Y-12610174D01*
X12924944Y-12610174D02*
X12934468Y-12629222D01*
X12934468Y-12629222D02*
X12934468Y-12648269D01*
X12934468Y-12648269D02*
X12839230Y-12667317D01*
X13010658Y-12724460D02*
X13029706Y-12733984D01*
X13029706Y-12733984D02*
X13067801Y-12733984D01*
X13067801Y-12733984D02*
X13086849Y-12724460D01*
X13086849Y-12724460D02*
X13096372Y-12705412D01*
X13096372Y-12705412D02*
X13096372Y-12695888D01*
X13096372Y-12695888D02*
X13086849Y-12676841D01*
X13086849Y-12676841D02*
X13067801Y-12667317D01*
X13067801Y-12667317D02*
X13039230Y-12667317D01*
X13039230Y-12667317D02*
X13020182Y-12657793D01*
X13020182Y-12657793D02*
X13010658Y-12638746D01*
X13010658Y-12638746D02*
X13010658Y-12629222D01*
X13010658Y-12629222D02*
X13020182Y-12610174D01*
X13020182Y-12610174D02*
X13039230Y-12600650D01*
X13039230Y-12600650D02*
X13067801Y-12600650D01*
X13067801Y-12600650D02*
X13086849Y-12610174D01*
X13163039Y-12810174D02*
X13172563Y-12800650D01*
X13172563Y-12800650D02*
X13191611Y-12772079D01*
X13191611Y-12772079D02*
X13201134Y-12753031D01*
X13201134Y-12753031D02*
X13210658Y-12724460D01*
X13210658Y-12724460D02*
X13220182Y-12676841D01*
X13220182Y-12676841D02*
X13220182Y-12638746D01*
X13220182Y-12638746D02*
X13210658Y-12591127D01*
X13210658Y-12591127D02*
X13201134Y-12562555D01*
X13201134Y-12562555D02*
X13191611Y-12543508D01*
X13191611Y-12543508D02*
X13172563Y-12514936D01*
X13172563Y-12514936D02*
X13163039Y-12505412D01*
D12*
X8197500Y-12906500D02*
G75*
G02*
X8107500Y-12906500I-45000J0D01*
G01*
X8107500Y-12906500D02*
G75*
G02*
X8197500Y-12906500I45000J0D01*
G01*
D11*
X8496372Y-12797984D02*
X8515420Y-12797984D01*
X8515420Y-12797984D02*
X8534467Y-12807508D01*
X8534467Y-12807508D02*
X8543991Y-12817031D01*
X8543991Y-12817031D02*
X8553515Y-12836079D01*
X8553515Y-12836079D02*
X8563039Y-12874174D01*
X8563039Y-12874174D02*
X8563039Y-12921793D01*
X8563039Y-12921793D02*
X8553515Y-12959888D01*
X8553515Y-12959888D02*
X8543991Y-12978936D01*
X8543991Y-12978936D02*
X8534467Y-12988460D01*
X8534467Y-12988460D02*
X8515420Y-12997984D01*
X8515420Y-12997984D02*
X8496372Y-12997984D01*
X8496372Y-12997984D02*
X8477324Y-12988460D01*
X8477324Y-12988460D02*
X8467801Y-12978936D01*
X8467801Y-12978936D02*
X8458277Y-12959888D01*
X8458277Y-12959888D02*
X8448753Y-12921793D01*
X8448753Y-12921793D02*
X8448753Y-12874174D01*
X8448753Y-12874174D02*
X8458277Y-12836079D01*
X8458277Y-12836079D02*
X8467801Y-12817031D01*
X8467801Y-12817031D02*
X8477324Y-12807508D01*
X8477324Y-12807508D02*
X8496372Y-12797984D01*
X8648753Y-12978936D02*
X8658277Y-12988460D01*
X8658277Y-12988460D02*
X8648753Y-12997984D01*
X8648753Y-12997984D02*
X8639229Y-12988460D01*
X8639229Y-12988460D02*
X8648753Y-12978936D01*
X8648753Y-12978936D02*
X8648753Y-12997984D01*
X8753515Y-12997984D02*
X8791610Y-12997984D01*
X8791610Y-12997984D02*
X8810658Y-12988460D01*
X8810658Y-12988460D02*
X8820182Y-12978936D01*
X8820182Y-12978936D02*
X8839229Y-12950365D01*
X8839229Y-12950365D02*
X8848753Y-12912269D01*
X8848753Y-12912269D02*
X8848753Y-12836079D01*
X8848753Y-12836079D02*
X8839229Y-12817031D01*
X8839229Y-12817031D02*
X8829705Y-12807508D01*
X8829705Y-12807508D02*
X8810658Y-12797984D01*
X8810658Y-12797984D02*
X8772563Y-12797984D01*
X8772563Y-12797984D02*
X8753515Y-12807508D01*
X8753515Y-12807508D02*
X8743991Y-12817031D01*
X8743991Y-12817031D02*
X8734467Y-12836079D01*
X8734467Y-12836079D02*
X8734467Y-12883698D01*
X8734467Y-12883698D02*
X8743991Y-12902746D01*
X8743991Y-12902746D02*
X8753515Y-12912269D01*
X8753515Y-12912269D02*
X8772563Y-12921793D01*
X8772563Y-12921793D02*
X8810658Y-12921793D01*
X8810658Y-12921793D02*
X8829705Y-12912269D01*
X8829705Y-12912269D02*
X8839229Y-12902746D01*
X8839229Y-12902746D02*
X8848753Y-12883698D01*
X8972563Y-12797984D02*
X8991610Y-12797984D01*
X8991610Y-12797984D02*
X9010658Y-12807508D01*
X9010658Y-12807508D02*
X9020182Y-12817031D01*
X9020182Y-12817031D02*
X9029705Y-12836079D01*
X9029705Y-12836079D02*
X9039229Y-12874174D01*
X9039229Y-12874174D02*
X9039229Y-12921793D01*
X9039229Y-12921793D02*
X9029705Y-12959888D01*
X9029705Y-12959888D02*
X9020182Y-12978936D01*
X9020182Y-12978936D02*
X9010658Y-12988460D01*
X9010658Y-12988460D02*
X8991610Y-12997984D01*
X8991610Y-12997984D02*
X8972563Y-12997984D01*
X8972563Y-12997984D02*
X8953515Y-12988460D01*
X8953515Y-12988460D02*
X8943991Y-12978936D01*
X8943991Y-12978936D02*
X8934467Y-12959888D01*
X8934467Y-12959888D02*
X8924944Y-12921793D01*
X8924944Y-12921793D02*
X8924944Y-12874174D01*
X8924944Y-12874174D02*
X8934467Y-12836079D01*
X8934467Y-12836079D02*
X8943991Y-12817031D01*
X8943991Y-12817031D02*
X8953515Y-12807508D01*
X8953515Y-12807508D02*
X8972563Y-12797984D01*
X9163039Y-12797984D02*
X9182086Y-12797984D01*
X9182086Y-12797984D02*
X9201134Y-12807508D01*
X9201134Y-12807508D02*
X9210658Y-12817031D01*
X9210658Y-12817031D02*
X9220182Y-12836079D01*
X9220182Y-12836079D02*
X9229705Y-12874174D01*
X9229705Y-12874174D02*
X9229705Y-12921793D01*
X9229705Y-12921793D02*
X9220182Y-12959888D01*
X9220182Y-12959888D02*
X9210658Y-12978936D01*
X9210658Y-12978936D02*
X9201134Y-12988460D01*
X9201134Y-12988460D02*
X9182086Y-12997984D01*
X9182086Y-12997984D02*
X9163039Y-12997984D01*
X9163039Y-12997984D02*
X9143991Y-12988460D01*
X9143991Y-12988460D02*
X9134467Y-12978936D01*
X9134467Y-12978936D02*
X9124944Y-12959888D01*
X9124944Y-12959888D02*
X9115420Y-12921793D01*
X9115420Y-12921793D02*
X9115420Y-12874174D01*
X9115420Y-12874174D02*
X9124944Y-12836079D01*
X9124944Y-12836079D02*
X9134467Y-12817031D01*
X9134467Y-12817031D02*
X9143991Y-12807508D01*
X9143991Y-12807508D02*
X9163039Y-12797984D01*
X9315420Y-12997984D02*
X9315420Y-12864650D01*
X9315420Y-12883698D02*
X9324944Y-12874174D01*
X9324944Y-12874174D02*
X9343991Y-12864650D01*
X9343991Y-12864650D02*
X9372563Y-12864650D01*
X9372563Y-12864650D02*
X9391610Y-12874174D01*
X9391610Y-12874174D02*
X9401134Y-12893222D01*
X9401134Y-12893222D02*
X9401134Y-12997984D01*
X9401134Y-12893222D02*
X9410658Y-12874174D01*
X9410658Y-12874174D02*
X9429705Y-12864650D01*
X9429705Y-12864650D02*
X9458277Y-12864650D01*
X9458277Y-12864650D02*
X9477325Y-12874174D01*
X9477325Y-12874174D02*
X9486848Y-12893222D01*
X9486848Y-12893222D02*
X9486848Y-12997984D01*
X9582086Y-12997984D02*
X9582086Y-12864650D01*
X9582086Y-12883698D02*
X9591610Y-12874174D01*
X9591610Y-12874174D02*
X9610658Y-12864650D01*
X9610658Y-12864650D02*
X9639229Y-12864650D01*
X9639229Y-12864650D02*
X9658277Y-12874174D01*
X9658277Y-12874174D02*
X9667801Y-12893222D01*
X9667801Y-12893222D02*
X9667801Y-12997984D01*
X9667801Y-12893222D02*
X9677325Y-12874174D01*
X9677325Y-12874174D02*
X9696372Y-12864650D01*
X9696372Y-12864650D02*
X9724944Y-12864650D01*
X9724944Y-12864650D02*
X9743991Y-12874174D01*
X9743991Y-12874174D02*
X9753515Y-12893222D01*
X9753515Y-12893222D02*
X9753515Y-12997984D01*
X10143991Y-12788460D02*
X9972563Y-13045603D01*
X10401134Y-12797984D02*
X10420182Y-12797984D01*
X10420182Y-12797984D02*
X10439229Y-12807508D01*
X10439229Y-12807508D02*
X10448753Y-12817031D01*
X10448753Y-12817031D02*
X10458277Y-12836079D01*
X10458277Y-12836079D02*
X10467801Y-12874174D01*
X10467801Y-12874174D02*
X10467801Y-12921793D01*
X10467801Y-12921793D02*
X10458277Y-12959888D01*
X10458277Y-12959888D02*
X10448753Y-12978936D01*
X10448753Y-12978936D02*
X10439229Y-12988460D01*
X10439229Y-12988460D02*
X10420182Y-12997984D01*
X10420182Y-12997984D02*
X10401134Y-12997984D01*
X10401134Y-12997984D02*
X10382087Y-12988460D01*
X10382087Y-12988460D02*
X10372563Y-12978936D01*
X10372563Y-12978936D02*
X10363039Y-12959888D01*
X10363039Y-12959888D02*
X10353515Y-12921793D01*
X10353515Y-12921793D02*
X10353515Y-12874174D01*
X10353515Y-12874174D02*
X10363039Y-12836079D01*
X10363039Y-12836079D02*
X10372563Y-12817031D01*
X10372563Y-12817031D02*
X10382087Y-12807508D01*
X10382087Y-12807508D02*
X10401134Y-12797984D01*
X10553515Y-12978936D02*
X10563039Y-12988460D01*
X10563039Y-12988460D02*
X10553515Y-12997984D01*
X10553515Y-12997984D02*
X10543991Y-12988460D01*
X10543991Y-12988460D02*
X10553515Y-12978936D01*
X10553515Y-12978936D02*
X10553515Y-12997984D01*
X10686848Y-12797984D02*
X10705896Y-12797984D01*
X10705896Y-12797984D02*
X10724944Y-12807508D01*
X10724944Y-12807508D02*
X10734468Y-12817031D01*
X10734468Y-12817031D02*
X10743991Y-12836079D01*
X10743991Y-12836079D02*
X10753515Y-12874174D01*
X10753515Y-12874174D02*
X10753515Y-12921793D01*
X10753515Y-12921793D02*
X10743991Y-12959888D01*
X10743991Y-12959888D02*
X10734468Y-12978936D01*
X10734468Y-12978936D02*
X10724944Y-12988460D01*
X10724944Y-12988460D02*
X10705896Y-12997984D01*
X10705896Y-12997984D02*
X10686848Y-12997984D01*
X10686848Y-12997984D02*
X10667801Y-12988460D01*
X10667801Y-12988460D02*
X10658277Y-12978936D01*
X10658277Y-12978936D02*
X10648753Y-12959888D01*
X10648753Y-12959888D02*
X10639229Y-12921793D01*
X10639229Y-12921793D02*
X10639229Y-12874174D01*
X10639229Y-12874174D02*
X10648753Y-12836079D01*
X10648753Y-12836079D02*
X10658277Y-12817031D01*
X10658277Y-12817031D02*
X10667801Y-12807508D01*
X10667801Y-12807508D02*
X10686848Y-12797984D01*
X10820182Y-12797984D02*
X10943991Y-12797984D01*
X10943991Y-12797984D02*
X10877325Y-12874174D01*
X10877325Y-12874174D02*
X10905896Y-12874174D01*
X10905896Y-12874174D02*
X10924944Y-12883698D01*
X10924944Y-12883698D02*
X10934468Y-12893222D01*
X10934468Y-12893222D02*
X10943991Y-12912269D01*
X10943991Y-12912269D02*
X10943991Y-12959888D01*
X10943991Y-12959888D02*
X10934468Y-12978936D01*
X10934468Y-12978936D02*
X10924944Y-12988460D01*
X10924944Y-12988460D02*
X10905896Y-12997984D01*
X10905896Y-12997984D02*
X10848753Y-12997984D01*
X10848753Y-12997984D02*
X10829706Y-12988460D01*
X10829706Y-12988460D02*
X10820182Y-12978936D01*
X11124944Y-12797984D02*
X11029706Y-12797984D01*
X11029706Y-12797984D02*
X11020182Y-12893222D01*
X11020182Y-12893222D02*
X11029706Y-12883698D01*
X11029706Y-12883698D02*
X11048753Y-12874174D01*
X11048753Y-12874174D02*
X11096372Y-12874174D01*
X11096372Y-12874174D02*
X11115420Y-12883698D01*
X11115420Y-12883698D02*
X11124944Y-12893222D01*
X11124944Y-12893222D02*
X11134468Y-12912269D01*
X11134468Y-12912269D02*
X11134468Y-12959888D01*
X11134468Y-12959888D02*
X11124944Y-12978936D01*
X11124944Y-12978936D02*
X11115420Y-12988460D01*
X11115420Y-12988460D02*
X11096372Y-12997984D01*
X11096372Y-12997984D02*
X11048753Y-12997984D01*
X11048753Y-12997984D02*
X11029706Y-12988460D01*
X11029706Y-12988460D02*
X11020182Y-12978936D01*
X11305896Y-12864650D02*
X11305896Y-12997984D01*
X11258277Y-12788460D02*
X11210658Y-12931317D01*
X11210658Y-12931317D02*
X11334467Y-12931317D01*
X11401134Y-12797984D02*
X11401134Y-12836079D01*
X11477325Y-12797984D02*
X11477325Y-12836079D01*
X11772563Y-13074174D02*
X11763039Y-13064650D01*
X11763039Y-13064650D02*
X11743991Y-13036079D01*
X11743991Y-13036079D02*
X11734468Y-13017031D01*
X11734468Y-13017031D02*
X11724944Y-12988460D01*
X11724944Y-12988460D02*
X11715420Y-12940841D01*
X11715420Y-12940841D02*
X11715420Y-12902746D01*
X11715420Y-12902746D02*
X11724944Y-12855127D01*
X11724944Y-12855127D02*
X11734468Y-12826555D01*
X11734468Y-12826555D02*
X11743991Y-12807508D01*
X11743991Y-12807508D02*
X11763039Y-12778936D01*
X11763039Y-12778936D02*
X11772563Y-12769412D01*
X11934468Y-12797984D02*
X11896372Y-12797984D01*
X11896372Y-12797984D02*
X11877325Y-12807508D01*
X11877325Y-12807508D02*
X11867801Y-12817031D01*
X11867801Y-12817031D02*
X11848753Y-12845603D01*
X11848753Y-12845603D02*
X11839229Y-12883698D01*
X11839229Y-12883698D02*
X11839229Y-12959888D01*
X11839229Y-12959888D02*
X11848753Y-12978936D01*
X11848753Y-12978936D02*
X11858277Y-12988460D01*
X11858277Y-12988460D02*
X11877325Y-12997984D01*
X11877325Y-12997984D02*
X11915420Y-12997984D01*
X11915420Y-12997984D02*
X11934468Y-12988460D01*
X11934468Y-12988460D02*
X11943991Y-12978936D01*
X11943991Y-12978936D02*
X11953515Y-12959888D01*
X11953515Y-12959888D02*
X11953515Y-12912269D01*
X11953515Y-12912269D02*
X11943991Y-12893222D01*
X11943991Y-12893222D02*
X11934468Y-12883698D01*
X11934468Y-12883698D02*
X11915420Y-12874174D01*
X11915420Y-12874174D02*
X11877325Y-12874174D01*
X11877325Y-12874174D02*
X11858277Y-12883698D01*
X11858277Y-12883698D02*
X11848753Y-12893222D01*
X11848753Y-12893222D02*
X11839229Y-12912269D01*
X12191610Y-12997984D02*
X12191610Y-12797984D01*
X12277325Y-12997984D02*
X12277325Y-12893222D01*
X12277325Y-12893222D02*
X12267801Y-12874174D01*
X12267801Y-12874174D02*
X12248753Y-12864650D01*
X12248753Y-12864650D02*
X12220182Y-12864650D01*
X12220182Y-12864650D02*
X12201134Y-12874174D01*
X12201134Y-12874174D02*
X12191610Y-12883698D01*
X12401134Y-12997984D02*
X12382087Y-12988460D01*
X12382087Y-12988460D02*
X12372563Y-12978936D01*
X12372563Y-12978936D02*
X12363039Y-12959888D01*
X12363039Y-12959888D02*
X12363039Y-12902746D01*
X12363039Y-12902746D02*
X12372563Y-12883698D01*
X12372563Y-12883698D02*
X12382087Y-12874174D01*
X12382087Y-12874174D02*
X12401134Y-12864650D01*
X12401134Y-12864650D02*
X12429706Y-12864650D01*
X12429706Y-12864650D02*
X12448753Y-12874174D01*
X12448753Y-12874174D02*
X12458277Y-12883698D01*
X12458277Y-12883698D02*
X12467801Y-12902746D01*
X12467801Y-12902746D02*
X12467801Y-12959888D01*
X12467801Y-12959888D02*
X12458277Y-12978936D01*
X12458277Y-12978936D02*
X12448753Y-12988460D01*
X12448753Y-12988460D02*
X12429706Y-12997984D01*
X12429706Y-12997984D02*
X12401134Y-12997984D01*
X12582087Y-12997984D02*
X12563039Y-12988460D01*
X12563039Y-12988460D02*
X12553515Y-12969412D01*
X12553515Y-12969412D02*
X12553515Y-12797984D01*
X12734468Y-12988460D02*
X12715420Y-12997984D01*
X12715420Y-12997984D02*
X12677325Y-12997984D01*
X12677325Y-12997984D02*
X12658277Y-12988460D01*
X12658277Y-12988460D02*
X12648753Y-12969412D01*
X12648753Y-12969412D02*
X12648753Y-12893222D01*
X12648753Y-12893222D02*
X12658277Y-12874174D01*
X12658277Y-12874174D02*
X12677325Y-12864650D01*
X12677325Y-12864650D02*
X12715420Y-12864650D01*
X12715420Y-12864650D02*
X12734468Y-12874174D01*
X12734468Y-12874174D02*
X12743991Y-12893222D01*
X12743991Y-12893222D02*
X12743991Y-12912269D01*
X12743991Y-12912269D02*
X12648753Y-12931317D01*
X12820182Y-12988460D02*
X12839230Y-12997984D01*
X12839230Y-12997984D02*
X12877325Y-12997984D01*
X12877325Y-12997984D02*
X12896372Y-12988460D01*
X12896372Y-12988460D02*
X12905896Y-12969412D01*
X12905896Y-12969412D02*
X12905896Y-12959888D01*
X12905896Y-12959888D02*
X12896372Y-12940841D01*
X12896372Y-12940841D02*
X12877325Y-12931317D01*
X12877325Y-12931317D02*
X12848753Y-12931317D01*
X12848753Y-12931317D02*
X12829706Y-12921793D01*
X12829706Y-12921793D02*
X12820182Y-12902746D01*
X12820182Y-12902746D02*
X12820182Y-12893222D01*
X12820182Y-12893222D02*
X12829706Y-12874174D01*
X12829706Y-12874174D02*
X12848753Y-12864650D01*
X12848753Y-12864650D02*
X12877325Y-12864650D01*
X12877325Y-12864650D02*
X12896372Y-12874174D01*
X12972563Y-13074174D02*
X12982087Y-13064650D01*
X12982087Y-13064650D02*
X13001134Y-13036079D01*
X13001134Y-13036079D02*
X13010658Y-13017031D01*
X13010658Y-13017031D02*
X13020182Y-12988460D01*
X13020182Y-12988460D02*
X13029706Y-12940841D01*
X13029706Y-12940841D02*
X13029706Y-12902746D01*
X13029706Y-12902746D02*
X13020182Y-12855127D01*
X13020182Y-12855127D02*
X13010658Y-12826555D01*
X13010658Y-12826555D02*
X13001134Y-12807508D01*
X13001134Y-12807508D02*
X12982087Y-12778936D01*
X12982087Y-12778936D02*
X12972563Y-12769412D01*
D12*
X8147500Y-13120500D02*
X8147500Y-13220500D01*
X8097500Y-13170500D02*
X8197500Y-13170500D01*
D11*
X8563039Y-13261984D02*
X8448753Y-13261984D01*
X8505896Y-13261984D02*
X8505896Y-13061984D01*
X8505896Y-13061984D02*
X8486848Y-13090555D01*
X8486848Y-13090555D02*
X8467801Y-13109603D01*
X8467801Y-13109603D02*
X8448753Y-13119127D01*
X8648753Y-13242936D02*
X8658277Y-13252460D01*
X8658277Y-13252460D02*
X8648753Y-13261984D01*
X8648753Y-13261984D02*
X8639229Y-13252460D01*
X8639229Y-13252460D02*
X8648753Y-13242936D01*
X8648753Y-13242936D02*
X8648753Y-13261984D01*
X8782086Y-13061984D02*
X8801134Y-13061984D01*
X8801134Y-13061984D02*
X8820182Y-13071508D01*
X8820182Y-13071508D02*
X8829705Y-13081031D01*
X8829705Y-13081031D02*
X8839229Y-13100079D01*
X8839229Y-13100079D02*
X8848753Y-13138174D01*
X8848753Y-13138174D02*
X8848753Y-13185793D01*
X8848753Y-13185793D02*
X8839229Y-13223888D01*
X8839229Y-13223888D02*
X8829705Y-13242936D01*
X8829705Y-13242936D02*
X8820182Y-13252460D01*
X8820182Y-13252460D02*
X8801134Y-13261984D01*
X8801134Y-13261984D02*
X8782086Y-13261984D01*
X8782086Y-13261984D02*
X8763039Y-13252460D01*
X8763039Y-13252460D02*
X8753515Y-13242936D01*
X8753515Y-13242936D02*
X8743991Y-13223888D01*
X8743991Y-13223888D02*
X8734467Y-13185793D01*
X8734467Y-13185793D02*
X8734467Y-13138174D01*
X8734467Y-13138174D02*
X8743991Y-13100079D01*
X8743991Y-13100079D02*
X8753515Y-13081031D01*
X8753515Y-13081031D02*
X8763039Y-13071508D01*
X8763039Y-13071508D02*
X8782086Y-13061984D01*
X8972563Y-13061984D02*
X8991610Y-13061984D01*
X8991610Y-13061984D02*
X9010658Y-13071508D01*
X9010658Y-13071508D02*
X9020182Y-13081031D01*
X9020182Y-13081031D02*
X9029705Y-13100079D01*
X9029705Y-13100079D02*
X9039229Y-13138174D01*
X9039229Y-13138174D02*
X9039229Y-13185793D01*
X9039229Y-13185793D02*
X9029705Y-13223888D01*
X9029705Y-13223888D02*
X9020182Y-13242936D01*
X9020182Y-13242936D02*
X9010658Y-13252460D01*
X9010658Y-13252460D02*
X8991610Y-13261984D01*
X8991610Y-13261984D02*
X8972563Y-13261984D01*
X8972563Y-13261984D02*
X8953515Y-13252460D01*
X8953515Y-13252460D02*
X8943991Y-13242936D01*
X8943991Y-13242936D02*
X8934467Y-13223888D01*
X8934467Y-13223888D02*
X8924944Y-13185793D01*
X8924944Y-13185793D02*
X8924944Y-13138174D01*
X8924944Y-13138174D02*
X8934467Y-13100079D01*
X8934467Y-13100079D02*
X8943991Y-13081031D01*
X8943991Y-13081031D02*
X8953515Y-13071508D01*
X8953515Y-13071508D02*
X8972563Y-13061984D01*
X9163039Y-13061984D02*
X9182086Y-13061984D01*
X9182086Y-13061984D02*
X9201134Y-13071508D01*
X9201134Y-13071508D02*
X9210658Y-13081031D01*
X9210658Y-13081031D02*
X9220182Y-13100079D01*
X9220182Y-13100079D02*
X9229705Y-13138174D01*
X9229705Y-13138174D02*
X9229705Y-13185793D01*
X9229705Y-13185793D02*
X9220182Y-13223888D01*
X9220182Y-13223888D02*
X9210658Y-13242936D01*
X9210658Y-13242936D02*
X9201134Y-13252460D01*
X9201134Y-13252460D02*
X9182086Y-13261984D01*
X9182086Y-13261984D02*
X9163039Y-13261984D01*
X9163039Y-13261984D02*
X9143991Y-13252460D01*
X9143991Y-13252460D02*
X9134467Y-13242936D01*
X9134467Y-13242936D02*
X9124944Y-13223888D01*
X9124944Y-13223888D02*
X9115420Y-13185793D01*
X9115420Y-13185793D02*
X9115420Y-13138174D01*
X9115420Y-13138174D02*
X9124944Y-13100079D01*
X9124944Y-13100079D02*
X9134467Y-13081031D01*
X9134467Y-13081031D02*
X9143991Y-13071508D01*
X9143991Y-13071508D02*
X9163039Y-13061984D01*
X9315420Y-13261984D02*
X9315420Y-13128650D01*
X9315420Y-13147698D02*
X9324944Y-13138174D01*
X9324944Y-13138174D02*
X9343991Y-13128650D01*
X9343991Y-13128650D02*
X9372563Y-13128650D01*
X9372563Y-13128650D02*
X9391610Y-13138174D01*
X9391610Y-13138174D02*
X9401134Y-13157222D01*
X9401134Y-13157222D02*
X9401134Y-13261984D01*
X9401134Y-13157222D02*
X9410658Y-13138174D01*
X9410658Y-13138174D02*
X9429705Y-13128650D01*
X9429705Y-13128650D02*
X9458277Y-13128650D01*
X9458277Y-13128650D02*
X9477325Y-13138174D01*
X9477325Y-13138174D02*
X9486848Y-13157222D01*
X9486848Y-13157222D02*
X9486848Y-13261984D01*
X9582086Y-13261984D02*
X9582086Y-13128650D01*
X9582086Y-13147698D02*
X9591610Y-13138174D01*
X9591610Y-13138174D02*
X9610658Y-13128650D01*
X9610658Y-13128650D02*
X9639229Y-13128650D01*
X9639229Y-13128650D02*
X9658277Y-13138174D01*
X9658277Y-13138174D02*
X9667801Y-13157222D01*
X9667801Y-13157222D02*
X9667801Y-13261984D01*
X9667801Y-13157222D02*
X9677325Y-13138174D01*
X9677325Y-13138174D02*
X9696372Y-13128650D01*
X9696372Y-13128650D02*
X9724944Y-13128650D01*
X9724944Y-13128650D02*
X9743991Y-13138174D01*
X9743991Y-13138174D02*
X9753515Y-13157222D01*
X9753515Y-13157222D02*
X9753515Y-13261984D01*
X10143991Y-13052460D02*
X9972563Y-13309603D01*
X10401134Y-13061984D02*
X10420182Y-13061984D01*
X10420182Y-13061984D02*
X10439229Y-13071508D01*
X10439229Y-13071508D02*
X10448753Y-13081031D01*
X10448753Y-13081031D02*
X10458277Y-13100079D01*
X10458277Y-13100079D02*
X10467801Y-13138174D01*
X10467801Y-13138174D02*
X10467801Y-13185793D01*
X10467801Y-13185793D02*
X10458277Y-13223888D01*
X10458277Y-13223888D02*
X10448753Y-13242936D01*
X10448753Y-13242936D02*
X10439229Y-13252460D01*
X10439229Y-13252460D02*
X10420182Y-13261984D01*
X10420182Y-13261984D02*
X10401134Y-13261984D01*
X10401134Y-13261984D02*
X10382087Y-13252460D01*
X10382087Y-13252460D02*
X10372563Y-13242936D01*
X10372563Y-13242936D02*
X10363039Y-13223888D01*
X10363039Y-13223888D02*
X10353515Y-13185793D01*
X10353515Y-13185793D02*
X10353515Y-13138174D01*
X10353515Y-13138174D02*
X10363039Y-13100079D01*
X10363039Y-13100079D02*
X10372563Y-13081031D01*
X10372563Y-13081031D02*
X10382087Y-13071508D01*
X10382087Y-13071508D02*
X10401134Y-13061984D01*
X10553515Y-13242936D02*
X10563039Y-13252460D01*
X10563039Y-13252460D02*
X10553515Y-13261984D01*
X10553515Y-13261984D02*
X10543991Y-13252460D01*
X10543991Y-13252460D02*
X10553515Y-13242936D01*
X10553515Y-13242936D02*
X10553515Y-13261984D01*
X10686848Y-13061984D02*
X10705896Y-13061984D01*
X10705896Y-13061984D02*
X10724944Y-13071508D01*
X10724944Y-13071508D02*
X10734468Y-13081031D01*
X10734468Y-13081031D02*
X10743991Y-13100079D01*
X10743991Y-13100079D02*
X10753515Y-13138174D01*
X10753515Y-13138174D02*
X10753515Y-13185793D01*
X10753515Y-13185793D02*
X10743991Y-13223888D01*
X10743991Y-13223888D02*
X10734468Y-13242936D01*
X10734468Y-13242936D02*
X10724944Y-13252460D01*
X10724944Y-13252460D02*
X10705896Y-13261984D01*
X10705896Y-13261984D02*
X10686848Y-13261984D01*
X10686848Y-13261984D02*
X10667801Y-13252460D01*
X10667801Y-13252460D02*
X10658277Y-13242936D01*
X10658277Y-13242936D02*
X10648753Y-13223888D01*
X10648753Y-13223888D02*
X10639229Y-13185793D01*
X10639229Y-13185793D02*
X10639229Y-13138174D01*
X10639229Y-13138174D02*
X10648753Y-13100079D01*
X10648753Y-13100079D02*
X10658277Y-13081031D01*
X10658277Y-13081031D02*
X10667801Y-13071508D01*
X10667801Y-13071508D02*
X10686848Y-13061984D01*
X10820182Y-13061984D02*
X10943991Y-13061984D01*
X10943991Y-13061984D02*
X10877325Y-13138174D01*
X10877325Y-13138174D02*
X10905896Y-13138174D01*
X10905896Y-13138174D02*
X10924944Y-13147698D01*
X10924944Y-13147698D02*
X10934468Y-13157222D01*
X10934468Y-13157222D02*
X10943991Y-13176269D01*
X10943991Y-13176269D02*
X10943991Y-13223888D01*
X10943991Y-13223888D02*
X10934468Y-13242936D01*
X10934468Y-13242936D02*
X10924944Y-13252460D01*
X10924944Y-13252460D02*
X10905896Y-13261984D01*
X10905896Y-13261984D02*
X10848753Y-13261984D01*
X10848753Y-13261984D02*
X10829706Y-13252460D01*
X10829706Y-13252460D02*
X10820182Y-13242936D01*
X11039229Y-13261984D02*
X11077325Y-13261984D01*
X11077325Y-13261984D02*
X11096372Y-13252460D01*
X11096372Y-13252460D02*
X11105896Y-13242936D01*
X11105896Y-13242936D02*
X11124944Y-13214365D01*
X11124944Y-13214365D02*
X11134468Y-13176269D01*
X11134468Y-13176269D02*
X11134468Y-13100079D01*
X11134468Y-13100079D02*
X11124944Y-13081031D01*
X11124944Y-13081031D02*
X11115420Y-13071508D01*
X11115420Y-13071508D02*
X11096372Y-13061984D01*
X11096372Y-13061984D02*
X11058277Y-13061984D01*
X11058277Y-13061984D02*
X11039229Y-13071508D01*
X11039229Y-13071508D02*
X11029706Y-13081031D01*
X11029706Y-13081031D02*
X11020182Y-13100079D01*
X11020182Y-13100079D02*
X11020182Y-13147698D01*
X11020182Y-13147698D02*
X11029706Y-13166746D01*
X11029706Y-13166746D02*
X11039229Y-13176269D01*
X11039229Y-13176269D02*
X11058277Y-13185793D01*
X11058277Y-13185793D02*
X11096372Y-13185793D01*
X11096372Y-13185793D02*
X11115420Y-13176269D01*
X11115420Y-13176269D02*
X11124944Y-13166746D01*
X11124944Y-13166746D02*
X11134468Y-13147698D01*
X11305896Y-13128650D02*
X11305896Y-13261984D01*
X11258277Y-13052460D02*
X11210658Y-13195317D01*
X11210658Y-13195317D02*
X11334467Y-13195317D01*
X11401134Y-13061984D02*
X11401134Y-13100079D01*
X11477325Y-13061984D02*
X11477325Y-13100079D01*
X11772563Y-13338174D02*
X11763039Y-13328650D01*
X11763039Y-13328650D02*
X11743991Y-13300079D01*
X11743991Y-13300079D02*
X11734468Y-13281031D01*
X11734468Y-13281031D02*
X11724944Y-13252460D01*
X11724944Y-13252460D02*
X11715420Y-13204841D01*
X11715420Y-13204841D02*
X11715420Y-13166746D01*
X11715420Y-13166746D02*
X11724944Y-13119127D01*
X11724944Y-13119127D02*
X11734468Y-13090555D01*
X11734468Y-13090555D02*
X11743991Y-13071508D01*
X11743991Y-13071508D02*
X11763039Y-13042936D01*
X11763039Y-13042936D02*
X11772563Y-13033412D01*
X11943991Y-13061984D02*
X11848753Y-13061984D01*
X11848753Y-13061984D02*
X11839229Y-13157222D01*
X11839229Y-13157222D02*
X11848753Y-13147698D01*
X11848753Y-13147698D02*
X11867801Y-13138174D01*
X11867801Y-13138174D02*
X11915420Y-13138174D01*
X11915420Y-13138174D02*
X11934468Y-13147698D01*
X11934468Y-13147698D02*
X11943991Y-13157222D01*
X11943991Y-13157222D02*
X11953515Y-13176269D01*
X11953515Y-13176269D02*
X11953515Y-13223888D01*
X11953515Y-13223888D02*
X11943991Y-13242936D01*
X11943991Y-13242936D02*
X11934468Y-13252460D01*
X11934468Y-13252460D02*
X11915420Y-13261984D01*
X11915420Y-13261984D02*
X11867801Y-13261984D01*
X11867801Y-13261984D02*
X11848753Y-13252460D01*
X11848753Y-13252460D02*
X11839229Y-13242936D01*
X12143991Y-13261984D02*
X12029706Y-13261984D01*
X12086848Y-13261984D02*
X12086848Y-13061984D01*
X12086848Y-13061984D02*
X12067801Y-13090555D01*
X12067801Y-13090555D02*
X12048753Y-13109603D01*
X12048753Y-13109603D02*
X12029706Y-13119127D01*
X12382087Y-13261984D02*
X12382087Y-13061984D01*
X12467801Y-13261984D02*
X12467801Y-13157222D01*
X12467801Y-13157222D02*
X12458277Y-13138174D01*
X12458277Y-13138174D02*
X12439230Y-13128650D01*
X12439230Y-13128650D02*
X12410658Y-13128650D01*
X12410658Y-13128650D02*
X12391610Y-13138174D01*
X12391610Y-13138174D02*
X12382087Y-13147698D01*
X12591610Y-13261984D02*
X12572563Y-13252460D01*
X12572563Y-13252460D02*
X12563039Y-13242936D01*
X12563039Y-13242936D02*
X12553515Y-13223888D01*
X12553515Y-13223888D02*
X12553515Y-13166746D01*
X12553515Y-13166746D02*
X12563039Y-13147698D01*
X12563039Y-13147698D02*
X12572563Y-13138174D01*
X12572563Y-13138174D02*
X12591610Y-13128650D01*
X12591610Y-13128650D02*
X12620182Y-13128650D01*
X12620182Y-13128650D02*
X12639230Y-13138174D01*
X12639230Y-13138174D02*
X12648753Y-13147698D01*
X12648753Y-13147698D02*
X12658277Y-13166746D01*
X12658277Y-13166746D02*
X12658277Y-13223888D01*
X12658277Y-13223888D02*
X12648753Y-13242936D01*
X12648753Y-13242936D02*
X12639230Y-13252460D01*
X12639230Y-13252460D02*
X12620182Y-13261984D01*
X12620182Y-13261984D02*
X12591610Y-13261984D01*
X12772563Y-13261984D02*
X12753515Y-13252460D01*
X12753515Y-13252460D02*
X12743991Y-13233412D01*
X12743991Y-13233412D02*
X12743991Y-13061984D01*
X12924944Y-13252460D02*
X12905896Y-13261984D01*
X12905896Y-13261984D02*
X12867801Y-13261984D01*
X12867801Y-13261984D02*
X12848753Y-13252460D01*
X12848753Y-13252460D02*
X12839230Y-13233412D01*
X12839230Y-13233412D02*
X12839230Y-13157222D01*
X12839230Y-13157222D02*
X12848753Y-13138174D01*
X12848753Y-13138174D02*
X12867801Y-13128650D01*
X12867801Y-13128650D02*
X12905896Y-13128650D01*
X12905896Y-13128650D02*
X12924944Y-13138174D01*
X12924944Y-13138174D02*
X12934468Y-13157222D01*
X12934468Y-13157222D02*
X12934468Y-13176269D01*
X12934468Y-13176269D02*
X12839230Y-13195317D01*
X13010658Y-13252460D02*
X13029706Y-13261984D01*
X13029706Y-13261984D02*
X13067801Y-13261984D01*
X13067801Y-13261984D02*
X13086849Y-13252460D01*
X13086849Y-13252460D02*
X13096372Y-13233412D01*
X13096372Y-13233412D02*
X13096372Y-13223888D01*
X13096372Y-13223888D02*
X13086849Y-13204841D01*
X13086849Y-13204841D02*
X13067801Y-13195317D01*
X13067801Y-13195317D02*
X13039230Y-13195317D01*
X13039230Y-13195317D02*
X13020182Y-13185793D01*
X13020182Y-13185793D02*
X13010658Y-13166746D01*
X13010658Y-13166746D02*
X13010658Y-13157222D01*
X13010658Y-13157222D02*
X13020182Y-13138174D01*
X13020182Y-13138174D02*
X13039230Y-13128650D01*
X13039230Y-13128650D02*
X13067801Y-13128650D01*
X13067801Y-13128650D02*
X13086849Y-13138174D01*
X13334468Y-13185793D02*
X13486849Y-13185793D01*
X13410658Y-13261984D02*
X13410658Y-13109603D01*
X13839230Y-13261984D02*
X13724944Y-13261984D01*
X13782087Y-13261984D02*
X13782087Y-13061984D01*
X13782087Y-13061984D02*
X13763039Y-13090555D01*
X13763039Y-13090555D02*
X13743992Y-13109603D01*
X13743992Y-13109603D02*
X13724944Y-13119127D01*
X13915420Y-13081031D02*
X13924944Y-13071508D01*
X13924944Y-13071508D02*
X13943992Y-13061984D01*
X13943992Y-13061984D02*
X13991611Y-13061984D01*
X13991611Y-13061984D02*
X14010658Y-13071508D01*
X14010658Y-13071508D02*
X14020182Y-13081031D01*
X14020182Y-13081031D02*
X14029706Y-13100079D01*
X14029706Y-13100079D02*
X14029706Y-13119127D01*
X14029706Y-13119127D02*
X14020182Y-13147698D01*
X14020182Y-13147698D02*
X13905896Y-13261984D01*
X13905896Y-13261984D02*
X14029706Y-13261984D01*
X14258277Y-13252460D02*
X14277325Y-13261984D01*
X14277325Y-13261984D02*
X14315420Y-13261984D01*
X14315420Y-13261984D02*
X14334468Y-13252460D01*
X14334468Y-13252460D02*
X14343992Y-13233412D01*
X14343992Y-13233412D02*
X14343992Y-13223888D01*
X14343992Y-13223888D02*
X14334468Y-13204841D01*
X14334468Y-13204841D02*
X14315420Y-13195317D01*
X14315420Y-13195317D02*
X14286849Y-13195317D01*
X14286849Y-13195317D02*
X14267801Y-13185793D01*
X14267801Y-13185793D02*
X14258277Y-13166746D01*
X14258277Y-13166746D02*
X14258277Y-13157222D01*
X14258277Y-13157222D02*
X14267801Y-13138174D01*
X14267801Y-13138174D02*
X14286849Y-13128650D01*
X14286849Y-13128650D02*
X14315420Y-13128650D01*
X14315420Y-13128650D02*
X14334468Y-13138174D01*
X14458277Y-13261984D02*
X14439230Y-13252460D01*
X14439230Y-13252460D02*
X14429706Y-13233412D01*
X14429706Y-13233412D02*
X14429706Y-13061984D01*
X14563039Y-13261984D02*
X14543992Y-13252460D01*
X14543992Y-13252460D02*
X14534468Y-13242936D01*
X14534468Y-13242936D02*
X14524944Y-13223888D01*
X14524944Y-13223888D02*
X14524944Y-13166746D01*
X14524944Y-13166746D02*
X14534468Y-13147698D01*
X14534468Y-13147698D02*
X14543992Y-13138174D01*
X14543992Y-13138174D02*
X14563039Y-13128650D01*
X14563039Y-13128650D02*
X14591611Y-13128650D01*
X14591611Y-13128650D02*
X14610658Y-13138174D01*
X14610658Y-13138174D02*
X14620182Y-13147698D01*
X14620182Y-13147698D02*
X14629706Y-13166746D01*
X14629706Y-13166746D02*
X14629706Y-13223888D01*
X14629706Y-13223888D02*
X14620182Y-13242936D01*
X14620182Y-13242936D02*
X14610658Y-13252460D01*
X14610658Y-13252460D02*
X14591611Y-13261984D01*
X14591611Y-13261984D02*
X14563039Y-13261984D01*
X14686849Y-13128650D02*
X14763039Y-13128650D01*
X14715420Y-13061984D02*
X14715420Y-13233412D01*
X14715420Y-13233412D02*
X14724944Y-13252460D01*
X14724944Y-13252460D02*
X14743992Y-13261984D01*
X14743992Y-13261984D02*
X14763039Y-13261984D01*
X14820182Y-13252460D02*
X14839230Y-13261984D01*
X14839230Y-13261984D02*
X14877325Y-13261984D01*
X14877325Y-13261984D02*
X14896373Y-13252460D01*
X14896373Y-13252460D02*
X14905896Y-13233412D01*
X14905896Y-13233412D02*
X14905896Y-13223888D01*
X14905896Y-13223888D02*
X14896373Y-13204841D01*
X14896373Y-13204841D02*
X14877325Y-13195317D01*
X14877325Y-13195317D02*
X14848754Y-13195317D01*
X14848754Y-13195317D02*
X14829706Y-13185793D01*
X14829706Y-13185793D02*
X14820182Y-13166746D01*
X14820182Y-13166746D02*
X14820182Y-13157222D01*
X14820182Y-13157222D02*
X14829706Y-13138174D01*
X14829706Y-13138174D02*
X14848754Y-13128650D01*
X14848754Y-13128650D02*
X14877325Y-13128650D01*
X14877325Y-13128650D02*
X14896373Y-13138174D01*
X14972563Y-13338174D02*
X14982087Y-13328650D01*
X14982087Y-13328650D02*
X15001135Y-13300079D01*
X15001135Y-13300079D02*
X15010658Y-13281031D01*
X15010658Y-13281031D02*
X15020182Y-13252460D01*
X15020182Y-13252460D02*
X15029706Y-13204841D01*
X15029706Y-13204841D02*
X15029706Y-13166746D01*
X15029706Y-13166746D02*
X15020182Y-13119127D01*
X15020182Y-13119127D02*
X15010658Y-13090555D01*
X15010658Y-13090555D02*
X15001135Y-13071508D01*
X15001135Y-13071508D02*
X14982087Y-13042936D01*
X14982087Y-13042936D02*
X14972563Y-13033412D01*
D13*
X8181391Y-13473391D02*
X8181391Y-13395609D01*
X8103609Y-13395609D01*
X8103609Y-13473391D01*
X8181391Y-13473391D01*
D11*
X8563039Y-13525984D02*
X8448753Y-13525984D01*
X8505896Y-13525984D02*
X8505896Y-13325984D01*
X8505896Y-13325984D02*
X8486848Y-13354555D01*
X8486848Y-13354555D02*
X8467801Y-13373603D01*
X8467801Y-13373603D02*
X8448753Y-13383127D01*
X8648753Y-13506936D02*
X8658277Y-13516460D01*
X8658277Y-13516460D02*
X8648753Y-13525984D01*
X8648753Y-13525984D02*
X8639229Y-13516460D01*
X8639229Y-13516460D02*
X8648753Y-13506936D01*
X8648753Y-13506936D02*
X8648753Y-13525984D01*
X8848753Y-13525984D02*
X8734467Y-13525984D01*
X8791610Y-13525984D02*
X8791610Y-13325984D01*
X8791610Y-13325984D02*
X8772563Y-13354555D01*
X8772563Y-13354555D02*
X8753515Y-13373603D01*
X8753515Y-13373603D02*
X8734467Y-13383127D01*
X8972563Y-13325984D02*
X8991610Y-13325984D01*
X8991610Y-13325984D02*
X9010658Y-13335508D01*
X9010658Y-13335508D02*
X9020182Y-13345031D01*
X9020182Y-13345031D02*
X9029705Y-13364079D01*
X9029705Y-13364079D02*
X9039229Y-13402174D01*
X9039229Y-13402174D02*
X9039229Y-13449793D01*
X9039229Y-13449793D02*
X9029705Y-13487888D01*
X9029705Y-13487888D02*
X9020182Y-13506936D01*
X9020182Y-13506936D02*
X9010658Y-13516460D01*
X9010658Y-13516460D02*
X8991610Y-13525984D01*
X8991610Y-13525984D02*
X8972563Y-13525984D01*
X8972563Y-13525984D02*
X8953515Y-13516460D01*
X8953515Y-13516460D02*
X8943991Y-13506936D01*
X8943991Y-13506936D02*
X8934467Y-13487888D01*
X8934467Y-13487888D02*
X8924944Y-13449793D01*
X8924944Y-13449793D02*
X8924944Y-13402174D01*
X8924944Y-13402174D02*
X8934467Y-13364079D01*
X8934467Y-13364079D02*
X8943991Y-13345031D01*
X8943991Y-13345031D02*
X8953515Y-13335508D01*
X8953515Y-13335508D02*
X8972563Y-13325984D01*
X9163039Y-13325984D02*
X9182086Y-13325984D01*
X9182086Y-13325984D02*
X9201134Y-13335508D01*
X9201134Y-13335508D02*
X9210658Y-13345031D01*
X9210658Y-13345031D02*
X9220182Y-13364079D01*
X9220182Y-13364079D02*
X9229705Y-13402174D01*
X9229705Y-13402174D02*
X9229705Y-13449793D01*
X9229705Y-13449793D02*
X9220182Y-13487888D01*
X9220182Y-13487888D02*
X9210658Y-13506936D01*
X9210658Y-13506936D02*
X9201134Y-13516460D01*
X9201134Y-13516460D02*
X9182086Y-13525984D01*
X9182086Y-13525984D02*
X9163039Y-13525984D01*
X9163039Y-13525984D02*
X9143991Y-13516460D01*
X9143991Y-13516460D02*
X9134467Y-13506936D01*
X9134467Y-13506936D02*
X9124944Y-13487888D01*
X9124944Y-13487888D02*
X9115420Y-13449793D01*
X9115420Y-13449793D02*
X9115420Y-13402174D01*
X9115420Y-13402174D02*
X9124944Y-13364079D01*
X9124944Y-13364079D02*
X9134467Y-13345031D01*
X9134467Y-13345031D02*
X9143991Y-13335508D01*
X9143991Y-13335508D02*
X9163039Y-13325984D01*
X9315420Y-13525984D02*
X9315420Y-13392650D01*
X9315420Y-13411698D02*
X9324944Y-13402174D01*
X9324944Y-13402174D02*
X9343991Y-13392650D01*
X9343991Y-13392650D02*
X9372563Y-13392650D01*
X9372563Y-13392650D02*
X9391610Y-13402174D01*
X9391610Y-13402174D02*
X9401134Y-13421222D01*
X9401134Y-13421222D02*
X9401134Y-13525984D01*
X9401134Y-13421222D02*
X9410658Y-13402174D01*
X9410658Y-13402174D02*
X9429705Y-13392650D01*
X9429705Y-13392650D02*
X9458277Y-13392650D01*
X9458277Y-13392650D02*
X9477325Y-13402174D01*
X9477325Y-13402174D02*
X9486848Y-13421222D01*
X9486848Y-13421222D02*
X9486848Y-13525984D01*
X9582086Y-13525984D02*
X9582086Y-13392650D01*
X9582086Y-13411698D02*
X9591610Y-13402174D01*
X9591610Y-13402174D02*
X9610658Y-13392650D01*
X9610658Y-13392650D02*
X9639229Y-13392650D01*
X9639229Y-13392650D02*
X9658277Y-13402174D01*
X9658277Y-13402174D02*
X9667801Y-13421222D01*
X9667801Y-13421222D02*
X9667801Y-13525984D01*
X9667801Y-13421222D02*
X9677325Y-13402174D01*
X9677325Y-13402174D02*
X9696372Y-13392650D01*
X9696372Y-13392650D02*
X9724944Y-13392650D01*
X9724944Y-13392650D02*
X9743991Y-13402174D01*
X9743991Y-13402174D02*
X9753515Y-13421222D01*
X9753515Y-13421222D02*
X9753515Y-13525984D01*
X10143991Y-13316460D02*
X9972563Y-13573603D01*
X10401134Y-13325984D02*
X10420182Y-13325984D01*
X10420182Y-13325984D02*
X10439229Y-13335508D01*
X10439229Y-13335508D02*
X10448753Y-13345031D01*
X10448753Y-13345031D02*
X10458277Y-13364079D01*
X10458277Y-13364079D02*
X10467801Y-13402174D01*
X10467801Y-13402174D02*
X10467801Y-13449793D01*
X10467801Y-13449793D02*
X10458277Y-13487888D01*
X10458277Y-13487888D02*
X10448753Y-13506936D01*
X10448753Y-13506936D02*
X10439229Y-13516460D01*
X10439229Y-13516460D02*
X10420182Y-13525984D01*
X10420182Y-13525984D02*
X10401134Y-13525984D01*
X10401134Y-13525984D02*
X10382087Y-13516460D01*
X10382087Y-13516460D02*
X10372563Y-13506936D01*
X10372563Y-13506936D02*
X10363039Y-13487888D01*
X10363039Y-13487888D02*
X10353515Y-13449793D01*
X10353515Y-13449793D02*
X10353515Y-13402174D01*
X10353515Y-13402174D02*
X10363039Y-13364079D01*
X10363039Y-13364079D02*
X10372563Y-13345031D01*
X10372563Y-13345031D02*
X10382087Y-13335508D01*
X10382087Y-13335508D02*
X10401134Y-13325984D01*
X10553515Y-13506936D02*
X10563039Y-13516460D01*
X10563039Y-13516460D02*
X10553515Y-13525984D01*
X10553515Y-13525984D02*
X10543991Y-13516460D01*
X10543991Y-13516460D02*
X10553515Y-13506936D01*
X10553515Y-13506936D02*
X10553515Y-13525984D01*
X10686848Y-13325984D02*
X10705896Y-13325984D01*
X10705896Y-13325984D02*
X10724944Y-13335508D01*
X10724944Y-13335508D02*
X10734468Y-13345031D01*
X10734468Y-13345031D02*
X10743991Y-13364079D01*
X10743991Y-13364079D02*
X10753515Y-13402174D01*
X10753515Y-13402174D02*
X10753515Y-13449793D01*
X10753515Y-13449793D02*
X10743991Y-13487888D01*
X10743991Y-13487888D02*
X10734468Y-13506936D01*
X10734468Y-13506936D02*
X10724944Y-13516460D01*
X10724944Y-13516460D02*
X10705896Y-13525984D01*
X10705896Y-13525984D02*
X10686848Y-13525984D01*
X10686848Y-13525984D02*
X10667801Y-13516460D01*
X10667801Y-13516460D02*
X10658277Y-13506936D01*
X10658277Y-13506936D02*
X10648753Y-13487888D01*
X10648753Y-13487888D02*
X10639229Y-13449793D01*
X10639229Y-13449793D02*
X10639229Y-13402174D01*
X10639229Y-13402174D02*
X10648753Y-13364079D01*
X10648753Y-13364079D02*
X10658277Y-13345031D01*
X10658277Y-13345031D02*
X10667801Y-13335508D01*
X10667801Y-13335508D02*
X10686848Y-13325984D01*
X10924944Y-13392650D02*
X10924944Y-13525984D01*
X10877325Y-13316460D02*
X10829706Y-13459317D01*
X10829706Y-13459317D02*
X10953515Y-13459317D01*
X11010658Y-13325984D02*
X11134468Y-13325984D01*
X11134468Y-13325984D02*
X11067801Y-13402174D01*
X11067801Y-13402174D02*
X11096372Y-13402174D01*
X11096372Y-13402174D02*
X11115420Y-13411698D01*
X11115420Y-13411698D02*
X11124944Y-13421222D01*
X11124944Y-13421222D02*
X11134468Y-13440269D01*
X11134468Y-13440269D02*
X11134468Y-13487888D01*
X11134468Y-13487888D02*
X11124944Y-13506936D01*
X11124944Y-13506936D02*
X11115420Y-13516460D01*
X11115420Y-13516460D02*
X11096372Y-13525984D01*
X11096372Y-13525984D02*
X11039229Y-13525984D01*
X11039229Y-13525984D02*
X11020182Y-13516460D01*
X11020182Y-13516460D02*
X11010658Y-13506936D01*
X11201134Y-13325984D02*
X11324944Y-13325984D01*
X11324944Y-13325984D02*
X11258277Y-13402174D01*
X11258277Y-13402174D02*
X11286848Y-13402174D01*
X11286848Y-13402174D02*
X11305896Y-13411698D01*
X11305896Y-13411698D02*
X11315420Y-13421222D01*
X11315420Y-13421222D02*
X11324944Y-13440269D01*
X11324944Y-13440269D02*
X11324944Y-13487888D01*
X11324944Y-13487888D02*
X11315420Y-13506936D01*
X11315420Y-13506936D02*
X11305896Y-13516460D01*
X11305896Y-13516460D02*
X11286848Y-13525984D01*
X11286848Y-13525984D02*
X11229706Y-13525984D01*
X11229706Y-13525984D02*
X11210658Y-13516460D01*
X11210658Y-13516460D02*
X11201134Y-13506936D01*
X11401134Y-13325984D02*
X11401134Y-13364079D01*
X11477325Y-13325984D02*
X11477325Y-13364079D01*
X11772563Y-13602174D02*
X11763039Y-13592650D01*
X11763039Y-13592650D02*
X11743991Y-13564079D01*
X11743991Y-13564079D02*
X11734468Y-13545031D01*
X11734468Y-13545031D02*
X11724944Y-13516460D01*
X11724944Y-13516460D02*
X11715420Y-13468841D01*
X11715420Y-13468841D02*
X11715420Y-13430746D01*
X11715420Y-13430746D02*
X11724944Y-13383127D01*
X11724944Y-13383127D02*
X11734468Y-13354555D01*
X11734468Y-13354555D02*
X11743991Y-13335508D01*
X11743991Y-13335508D02*
X11763039Y-13306936D01*
X11763039Y-13306936D02*
X11772563Y-13297412D01*
X11839229Y-13345031D02*
X11848753Y-13335508D01*
X11848753Y-13335508D02*
X11867801Y-13325984D01*
X11867801Y-13325984D02*
X11915420Y-13325984D01*
X11915420Y-13325984D02*
X11934468Y-13335508D01*
X11934468Y-13335508D02*
X11943991Y-13345031D01*
X11943991Y-13345031D02*
X11953515Y-13364079D01*
X11953515Y-13364079D02*
X11953515Y-13383127D01*
X11953515Y-13383127D02*
X11943991Y-13411698D01*
X11943991Y-13411698D02*
X11829706Y-13525984D01*
X11829706Y-13525984D02*
X11953515Y-13525984D01*
X12134468Y-13325984D02*
X12039229Y-13325984D01*
X12039229Y-13325984D02*
X12029706Y-13421222D01*
X12029706Y-13421222D02*
X12039229Y-13411698D01*
X12039229Y-13411698D02*
X12058277Y-13402174D01*
X12058277Y-13402174D02*
X12105896Y-13402174D01*
X12105896Y-13402174D02*
X12124944Y-13411698D01*
X12124944Y-13411698D02*
X12134468Y-13421222D01*
X12134468Y-13421222D02*
X12143991Y-13440269D01*
X12143991Y-13440269D02*
X12143991Y-13487888D01*
X12143991Y-13487888D02*
X12134468Y-13506936D01*
X12134468Y-13506936D02*
X12124944Y-13516460D01*
X12124944Y-13516460D02*
X12105896Y-13525984D01*
X12105896Y-13525984D02*
X12058277Y-13525984D01*
X12058277Y-13525984D02*
X12039229Y-13516460D01*
X12039229Y-13516460D02*
X12029706Y-13506936D01*
X12382087Y-13525984D02*
X12382087Y-13325984D01*
X12467801Y-13525984D02*
X12467801Y-13421222D01*
X12467801Y-13421222D02*
X12458277Y-13402174D01*
X12458277Y-13402174D02*
X12439230Y-13392650D01*
X12439230Y-13392650D02*
X12410658Y-13392650D01*
X12410658Y-13392650D02*
X12391610Y-13402174D01*
X12391610Y-13402174D02*
X12382087Y-13411698D01*
X12591610Y-13525984D02*
X12572563Y-13516460D01*
X12572563Y-13516460D02*
X12563039Y-13506936D01*
X12563039Y-13506936D02*
X12553515Y-13487888D01*
X12553515Y-13487888D02*
X12553515Y-13430746D01*
X12553515Y-13430746D02*
X12563039Y-13411698D01*
X12563039Y-13411698D02*
X12572563Y-13402174D01*
X12572563Y-13402174D02*
X12591610Y-13392650D01*
X12591610Y-13392650D02*
X12620182Y-13392650D01*
X12620182Y-13392650D02*
X12639230Y-13402174D01*
X12639230Y-13402174D02*
X12648753Y-13411698D01*
X12648753Y-13411698D02*
X12658277Y-13430746D01*
X12658277Y-13430746D02*
X12658277Y-13487888D01*
X12658277Y-13487888D02*
X12648753Y-13506936D01*
X12648753Y-13506936D02*
X12639230Y-13516460D01*
X12639230Y-13516460D02*
X12620182Y-13525984D01*
X12620182Y-13525984D02*
X12591610Y-13525984D01*
X12772563Y-13525984D02*
X12753515Y-13516460D01*
X12753515Y-13516460D02*
X12743991Y-13497412D01*
X12743991Y-13497412D02*
X12743991Y-13325984D01*
X12924944Y-13516460D02*
X12905896Y-13525984D01*
X12905896Y-13525984D02*
X12867801Y-13525984D01*
X12867801Y-13525984D02*
X12848753Y-13516460D01*
X12848753Y-13516460D02*
X12839230Y-13497412D01*
X12839230Y-13497412D02*
X12839230Y-13421222D01*
X12839230Y-13421222D02*
X12848753Y-13402174D01*
X12848753Y-13402174D02*
X12867801Y-13392650D01*
X12867801Y-13392650D02*
X12905896Y-13392650D01*
X12905896Y-13392650D02*
X12924944Y-13402174D01*
X12924944Y-13402174D02*
X12934468Y-13421222D01*
X12934468Y-13421222D02*
X12934468Y-13440269D01*
X12934468Y-13440269D02*
X12839230Y-13459317D01*
X13010658Y-13516460D02*
X13029706Y-13525984D01*
X13029706Y-13525984D02*
X13067801Y-13525984D01*
X13067801Y-13525984D02*
X13086849Y-13516460D01*
X13086849Y-13516460D02*
X13096372Y-13497412D01*
X13096372Y-13497412D02*
X13096372Y-13487888D01*
X13096372Y-13487888D02*
X13086849Y-13468841D01*
X13086849Y-13468841D02*
X13067801Y-13459317D01*
X13067801Y-13459317D02*
X13039230Y-13459317D01*
X13039230Y-13459317D02*
X13020182Y-13449793D01*
X13020182Y-13449793D02*
X13010658Y-13430746D01*
X13010658Y-13430746D02*
X13010658Y-13421222D01*
X13010658Y-13421222D02*
X13020182Y-13402174D01*
X13020182Y-13402174D02*
X13039230Y-13392650D01*
X13039230Y-13392650D02*
X13067801Y-13392650D01*
X13067801Y-13392650D02*
X13086849Y-13402174D01*
X13163039Y-13602174D02*
X13172563Y-13592650D01*
X13172563Y-13592650D02*
X13191611Y-13564079D01*
X13191611Y-13564079D02*
X13201134Y-13545031D01*
X13201134Y-13545031D02*
X13210658Y-13516460D01*
X13210658Y-13516460D02*
X13220182Y-13468841D01*
X13220182Y-13468841D02*
X13220182Y-13430746D01*
X13220182Y-13430746D02*
X13210658Y-13383127D01*
X13210658Y-13383127D02*
X13201134Y-13354555D01*
X13201134Y-13354555D02*
X13191611Y-13335508D01*
X13191611Y-13335508D02*
X13172563Y-13306936D01*
X13172563Y-13306936D02*
X13163039Y-13297412D01*
D14*
X8107500Y-13788500D02*
X8197500Y-13698500D01*
X8107500Y-13608500D01*
X8017500Y-13698500D01*
X8107500Y-13788500D01*
D11*
X8563039Y-13789984D02*
X8448753Y-13789984D01*
X8505896Y-13789984D02*
X8505896Y-13589984D01*
X8505896Y-13589984D02*
X8486848Y-13618555D01*
X8486848Y-13618555D02*
X8467801Y-13637603D01*
X8467801Y-13637603D02*
X8448753Y-13647127D01*
X8648753Y-13770936D02*
X8658277Y-13780460D01*
X8658277Y-13780460D02*
X8648753Y-13789984D01*
X8648753Y-13789984D02*
X8639229Y-13780460D01*
X8639229Y-13780460D02*
X8648753Y-13770936D01*
X8648753Y-13770936D02*
X8648753Y-13789984D01*
X8772563Y-13675698D02*
X8753515Y-13666174D01*
X8753515Y-13666174D02*
X8743991Y-13656650D01*
X8743991Y-13656650D02*
X8734467Y-13637603D01*
X8734467Y-13637603D02*
X8734467Y-13628079D01*
X8734467Y-13628079D02*
X8743991Y-13609031D01*
X8743991Y-13609031D02*
X8753515Y-13599508D01*
X8753515Y-13599508D02*
X8772563Y-13589984D01*
X8772563Y-13589984D02*
X8810658Y-13589984D01*
X8810658Y-13589984D02*
X8829705Y-13599508D01*
X8829705Y-13599508D02*
X8839229Y-13609031D01*
X8839229Y-13609031D02*
X8848753Y-13628079D01*
X8848753Y-13628079D02*
X8848753Y-13637603D01*
X8848753Y-13637603D02*
X8839229Y-13656650D01*
X8839229Y-13656650D02*
X8829705Y-13666174D01*
X8829705Y-13666174D02*
X8810658Y-13675698D01*
X8810658Y-13675698D02*
X8772563Y-13675698D01*
X8772563Y-13675698D02*
X8753515Y-13685222D01*
X8753515Y-13685222D02*
X8743991Y-13694746D01*
X8743991Y-13694746D02*
X8734467Y-13713793D01*
X8734467Y-13713793D02*
X8734467Y-13751888D01*
X8734467Y-13751888D02*
X8743991Y-13770936D01*
X8743991Y-13770936D02*
X8753515Y-13780460D01*
X8753515Y-13780460D02*
X8772563Y-13789984D01*
X8772563Y-13789984D02*
X8810658Y-13789984D01*
X8810658Y-13789984D02*
X8829705Y-13780460D01*
X8829705Y-13780460D02*
X8839229Y-13770936D01*
X8839229Y-13770936D02*
X8848753Y-13751888D01*
X8848753Y-13751888D02*
X8848753Y-13713793D01*
X8848753Y-13713793D02*
X8839229Y-13694746D01*
X8839229Y-13694746D02*
X8829705Y-13685222D01*
X8829705Y-13685222D02*
X8810658Y-13675698D01*
X8972563Y-13589984D02*
X8991610Y-13589984D01*
X8991610Y-13589984D02*
X9010658Y-13599508D01*
X9010658Y-13599508D02*
X9020182Y-13609031D01*
X9020182Y-13609031D02*
X9029705Y-13628079D01*
X9029705Y-13628079D02*
X9039229Y-13666174D01*
X9039229Y-13666174D02*
X9039229Y-13713793D01*
X9039229Y-13713793D02*
X9029705Y-13751888D01*
X9029705Y-13751888D02*
X9020182Y-13770936D01*
X9020182Y-13770936D02*
X9010658Y-13780460D01*
X9010658Y-13780460D02*
X8991610Y-13789984D01*
X8991610Y-13789984D02*
X8972563Y-13789984D01*
X8972563Y-13789984D02*
X8953515Y-13780460D01*
X8953515Y-13780460D02*
X8943991Y-13770936D01*
X8943991Y-13770936D02*
X8934467Y-13751888D01*
X8934467Y-13751888D02*
X8924944Y-13713793D01*
X8924944Y-13713793D02*
X8924944Y-13666174D01*
X8924944Y-13666174D02*
X8934467Y-13628079D01*
X8934467Y-13628079D02*
X8943991Y-13609031D01*
X8943991Y-13609031D02*
X8953515Y-13599508D01*
X8953515Y-13599508D02*
X8972563Y-13589984D01*
X9163039Y-13589984D02*
X9182086Y-13589984D01*
X9182086Y-13589984D02*
X9201134Y-13599508D01*
X9201134Y-13599508D02*
X9210658Y-13609031D01*
X9210658Y-13609031D02*
X9220182Y-13628079D01*
X9220182Y-13628079D02*
X9229705Y-13666174D01*
X9229705Y-13666174D02*
X9229705Y-13713793D01*
X9229705Y-13713793D02*
X9220182Y-13751888D01*
X9220182Y-13751888D02*
X9210658Y-13770936D01*
X9210658Y-13770936D02*
X9201134Y-13780460D01*
X9201134Y-13780460D02*
X9182086Y-13789984D01*
X9182086Y-13789984D02*
X9163039Y-13789984D01*
X9163039Y-13789984D02*
X9143991Y-13780460D01*
X9143991Y-13780460D02*
X9134467Y-13770936D01*
X9134467Y-13770936D02*
X9124944Y-13751888D01*
X9124944Y-13751888D02*
X9115420Y-13713793D01*
X9115420Y-13713793D02*
X9115420Y-13666174D01*
X9115420Y-13666174D02*
X9124944Y-13628079D01*
X9124944Y-13628079D02*
X9134467Y-13609031D01*
X9134467Y-13609031D02*
X9143991Y-13599508D01*
X9143991Y-13599508D02*
X9163039Y-13589984D01*
X9315420Y-13789984D02*
X9315420Y-13656650D01*
X9315420Y-13675698D02*
X9324944Y-13666174D01*
X9324944Y-13666174D02*
X9343991Y-13656650D01*
X9343991Y-13656650D02*
X9372563Y-13656650D01*
X9372563Y-13656650D02*
X9391610Y-13666174D01*
X9391610Y-13666174D02*
X9401134Y-13685222D01*
X9401134Y-13685222D02*
X9401134Y-13789984D01*
X9401134Y-13685222D02*
X9410658Y-13666174D01*
X9410658Y-13666174D02*
X9429705Y-13656650D01*
X9429705Y-13656650D02*
X9458277Y-13656650D01*
X9458277Y-13656650D02*
X9477325Y-13666174D01*
X9477325Y-13666174D02*
X9486848Y-13685222D01*
X9486848Y-13685222D02*
X9486848Y-13789984D01*
X9582086Y-13789984D02*
X9582086Y-13656650D01*
X9582086Y-13675698D02*
X9591610Y-13666174D01*
X9591610Y-13666174D02*
X9610658Y-13656650D01*
X9610658Y-13656650D02*
X9639229Y-13656650D01*
X9639229Y-13656650D02*
X9658277Y-13666174D01*
X9658277Y-13666174D02*
X9667801Y-13685222D01*
X9667801Y-13685222D02*
X9667801Y-13789984D01*
X9667801Y-13685222D02*
X9677325Y-13666174D01*
X9677325Y-13666174D02*
X9696372Y-13656650D01*
X9696372Y-13656650D02*
X9724944Y-13656650D01*
X9724944Y-13656650D02*
X9743991Y-13666174D01*
X9743991Y-13666174D02*
X9753515Y-13685222D01*
X9753515Y-13685222D02*
X9753515Y-13789984D01*
X10143991Y-13580460D02*
X9972563Y-13837603D01*
X10401134Y-13589984D02*
X10420182Y-13589984D01*
X10420182Y-13589984D02*
X10439229Y-13599508D01*
X10439229Y-13599508D02*
X10448753Y-13609031D01*
X10448753Y-13609031D02*
X10458277Y-13628079D01*
X10458277Y-13628079D02*
X10467801Y-13666174D01*
X10467801Y-13666174D02*
X10467801Y-13713793D01*
X10467801Y-13713793D02*
X10458277Y-13751888D01*
X10458277Y-13751888D02*
X10448753Y-13770936D01*
X10448753Y-13770936D02*
X10439229Y-13780460D01*
X10439229Y-13780460D02*
X10420182Y-13789984D01*
X10420182Y-13789984D02*
X10401134Y-13789984D01*
X10401134Y-13789984D02*
X10382087Y-13780460D01*
X10382087Y-13780460D02*
X10372563Y-13770936D01*
X10372563Y-13770936D02*
X10363039Y-13751888D01*
X10363039Y-13751888D02*
X10353515Y-13713793D01*
X10353515Y-13713793D02*
X10353515Y-13666174D01*
X10353515Y-13666174D02*
X10363039Y-13628079D01*
X10363039Y-13628079D02*
X10372563Y-13609031D01*
X10372563Y-13609031D02*
X10382087Y-13599508D01*
X10382087Y-13599508D02*
X10401134Y-13589984D01*
X10553515Y-13770936D02*
X10563039Y-13780460D01*
X10563039Y-13780460D02*
X10553515Y-13789984D01*
X10553515Y-13789984D02*
X10543991Y-13780460D01*
X10543991Y-13780460D02*
X10553515Y-13770936D01*
X10553515Y-13770936D02*
X10553515Y-13789984D01*
X10686848Y-13589984D02*
X10705896Y-13589984D01*
X10705896Y-13589984D02*
X10724944Y-13599508D01*
X10724944Y-13599508D02*
X10734468Y-13609031D01*
X10734468Y-13609031D02*
X10743991Y-13628079D01*
X10743991Y-13628079D02*
X10753515Y-13666174D01*
X10753515Y-13666174D02*
X10753515Y-13713793D01*
X10753515Y-13713793D02*
X10743991Y-13751888D01*
X10743991Y-13751888D02*
X10734468Y-13770936D01*
X10734468Y-13770936D02*
X10724944Y-13780460D01*
X10724944Y-13780460D02*
X10705896Y-13789984D01*
X10705896Y-13789984D02*
X10686848Y-13789984D01*
X10686848Y-13789984D02*
X10667801Y-13780460D01*
X10667801Y-13780460D02*
X10658277Y-13770936D01*
X10658277Y-13770936D02*
X10648753Y-13751888D01*
X10648753Y-13751888D02*
X10639229Y-13713793D01*
X10639229Y-13713793D02*
X10639229Y-13666174D01*
X10639229Y-13666174D02*
X10648753Y-13628079D01*
X10648753Y-13628079D02*
X10658277Y-13609031D01*
X10658277Y-13609031D02*
X10667801Y-13599508D01*
X10667801Y-13599508D02*
X10686848Y-13589984D01*
X10820182Y-13589984D02*
X10953515Y-13589984D01*
X10953515Y-13589984D02*
X10867801Y-13789984D01*
X11067801Y-13589984D02*
X11086849Y-13589984D01*
X11086849Y-13589984D02*
X11105896Y-13599508D01*
X11105896Y-13599508D02*
X11115420Y-13609031D01*
X11115420Y-13609031D02*
X11124944Y-13628079D01*
X11124944Y-13628079D02*
X11134468Y-13666174D01*
X11134468Y-13666174D02*
X11134468Y-13713793D01*
X11134468Y-13713793D02*
X11124944Y-13751888D01*
X11124944Y-13751888D02*
X11115420Y-13770936D01*
X11115420Y-13770936D02*
X11105896Y-13780460D01*
X11105896Y-13780460D02*
X11086849Y-13789984D01*
X11086849Y-13789984D02*
X11067801Y-13789984D01*
X11067801Y-13789984D02*
X11048753Y-13780460D01*
X11048753Y-13780460D02*
X11039229Y-13770936D01*
X11039229Y-13770936D02*
X11029706Y-13751888D01*
X11029706Y-13751888D02*
X11020182Y-13713793D01*
X11020182Y-13713793D02*
X11020182Y-13666174D01*
X11020182Y-13666174D02*
X11029706Y-13628079D01*
X11029706Y-13628079D02*
X11039229Y-13609031D01*
X11039229Y-13609031D02*
X11048753Y-13599508D01*
X11048753Y-13599508D02*
X11067801Y-13589984D01*
X11229706Y-13789984D02*
X11267801Y-13789984D01*
X11267801Y-13789984D02*
X11286848Y-13780460D01*
X11286848Y-13780460D02*
X11296372Y-13770936D01*
X11296372Y-13770936D02*
X11315420Y-13742365D01*
X11315420Y-13742365D02*
X11324944Y-13704269D01*
X11324944Y-13704269D02*
X11324944Y-13628079D01*
X11324944Y-13628079D02*
X11315420Y-13609031D01*
X11315420Y-13609031D02*
X11305896Y-13599508D01*
X11305896Y-13599508D02*
X11286848Y-13589984D01*
X11286848Y-13589984D02*
X11248753Y-13589984D01*
X11248753Y-13589984D02*
X11229706Y-13599508D01*
X11229706Y-13599508D02*
X11220182Y-13609031D01*
X11220182Y-13609031D02*
X11210658Y-13628079D01*
X11210658Y-13628079D02*
X11210658Y-13675698D01*
X11210658Y-13675698D02*
X11220182Y-13694746D01*
X11220182Y-13694746D02*
X11229706Y-13704269D01*
X11229706Y-13704269D02*
X11248753Y-13713793D01*
X11248753Y-13713793D02*
X11286848Y-13713793D01*
X11286848Y-13713793D02*
X11305896Y-13704269D01*
X11305896Y-13704269D02*
X11315420Y-13694746D01*
X11315420Y-13694746D02*
X11324944Y-13675698D01*
X11401134Y-13589984D02*
X11401134Y-13628079D01*
X11477325Y-13589984D02*
X11477325Y-13628079D01*
X11772563Y-13866174D02*
X11763039Y-13856650D01*
X11763039Y-13856650D02*
X11743991Y-13828079D01*
X11743991Y-13828079D02*
X11734468Y-13809031D01*
X11734468Y-13809031D02*
X11724944Y-13780460D01*
X11724944Y-13780460D02*
X11715420Y-13732841D01*
X11715420Y-13732841D02*
X11715420Y-13694746D01*
X11715420Y-13694746D02*
X11724944Y-13647127D01*
X11724944Y-13647127D02*
X11734468Y-13618555D01*
X11734468Y-13618555D02*
X11743991Y-13599508D01*
X11743991Y-13599508D02*
X11763039Y-13570936D01*
X11763039Y-13570936D02*
X11772563Y-13561412D01*
X11886848Y-13589984D02*
X11905896Y-13589984D01*
X11905896Y-13589984D02*
X11924944Y-13599508D01*
X11924944Y-13599508D02*
X11934468Y-13609031D01*
X11934468Y-13609031D02*
X11943991Y-13628079D01*
X11943991Y-13628079D02*
X11953515Y-13666174D01*
X11953515Y-13666174D02*
X11953515Y-13713793D01*
X11953515Y-13713793D02*
X11943991Y-13751888D01*
X11943991Y-13751888D02*
X11934468Y-13770936D01*
X11934468Y-13770936D02*
X11924944Y-13780460D01*
X11924944Y-13780460D02*
X11905896Y-13789984D01*
X11905896Y-13789984D02*
X11886848Y-13789984D01*
X11886848Y-13789984D02*
X11867801Y-13780460D01*
X11867801Y-13780460D02*
X11858277Y-13770936D01*
X11858277Y-13770936D02*
X11848753Y-13751888D01*
X11848753Y-13751888D02*
X11839229Y-13713793D01*
X11839229Y-13713793D02*
X11839229Y-13666174D01*
X11839229Y-13666174D02*
X11848753Y-13628079D01*
X11848753Y-13628079D02*
X11858277Y-13609031D01*
X11858277Y-13609031D02*
X11867801Y-13599508D01*
X11867801Y-13599508D02*
X11886848Y-13589984D01*
X12191610Y-13789984D02*
X12191610Y-13589984D01*
X12277325Y-13789984D02*
X12277325Y-13685222D01*
X12277325Y-13685222D02*
X12267801Y-13666174D01*
X12267801Y-13666174D02*
X12248753Y-13656650D01*
X12248753Y-13656650D02*
X12220182Y-13656650D01*
X12220182Y-13656650D02*
X12201134Y-13666174D01*
X12201134Y-13666174D02*
X12191610Y-13675698D01*
X12401134Y-13789984D02*
X12382087Y-13780460D01*
X12382087Y-13780460D02*
X12372563Y-13770936D01*
X12372563Y-13770936D02*
X12363039Y-13751888D01*
X12363039Y-13751888D02*
X12363039Y-13694746D01*
X12363039Y-13694746D02*
X12372563Y-13675698D01*
X12372563Y-13675698D02*
X12382087Y-13666174D01*
X12382087Y-13666174D02*
X12401134Y-13656650D01*
X12401134Y-13656650D02*
X12429706Y-13656650D01*
X12429706Y-13656650D02*
X12448753Y-13666174D01*
X12448753Y-13666174D02*
X12458277Y-13675698D01*
X12458277Y-13675698D02*
X12467801Y-13694746D01*
X12467801Y-13694746D02*
X12467801Y-13751888D01*
X12467801Y-13751888D02*
X12458277Y-13770936D01*
X12458277Y-13770936D02*
X12448753Y-13780460D01*
X12448753Y-13780460D02*
X12429706Y-13789984D01*
X12429706Y-13789984D02*
X12401134Y-13789984D01*
X12582087Y-13789984D02*
X12563039Y-13780460D01*
X12563039Y-13780460D02*
X12553515Y-13761412D01*
X12553515Y-13761412D02*
X12553515Y-13589984D01*
X12734468Y-13780460D02*
X12715420Y-13789984D01*
X12715420Y-13789984D02*
X12677325Y-13789984D01*
X12677325Y-13789984D02*
X12658277Y-13780460D01*
X12658277Y-13780460D02*
X12648753Y-13761412D01*
X12648753Y-13761412D02*
X12648753Y-13685222D01*
X12648753Y-13685222D02*
X12658277Y-13666174D01*
X12658277Y-13666174D02*
X12677325Y-13656650D01*
X12677325Y-13656650D02*
X12715420Y-13656650D01*
X12715420Y-13656650D02*
X12734468Y-13666174D01*
X12734468Y-13666174D02*
X12743991Y-13685222D01*
X12743991Y-13685222D02*
X12743991Y-13704269D01*
X12743991Y-13704269D02*
X12648753Y-13723317D01*
X12820182Y-13780460D02*
X12839230Y-13789984D01*
X12839230Y-13789984D02*
X12877325Y-13789984D01*
X12877325Y-13789984D02*
X12896372Y-13780460D01*
X12896372Y-13780460D02*
X12905896Y-13761412D01*
X12905896Y-13761412D02*
X12905896Y-13751888D01*
X12905896Y-13751888D02*
X12896372Y-13732841D01*
X12896372Y-13732841D02*
X12877325Y-13723317D01*
X12877325Y-13723317D02*
X12848753Y-13723317D01*
X12848753Y-13723317D02*
X12829706Y-13713793D01*
X12829706Y-13713793D02*
X12820182Y-13694746D01*
X12820182Y-13694746D02*
X12820182Y-13685222D01*
X12820182Y-13685222D02*
X12829706Y-13666174D01*
X12829706Y-13666174D02*
X12848753Y-13656650D01*
X12848753Y-13656650D02*
X12877325Y-13656650D01*
X12877325Y-13656650D02*
X12896372Y-13666174D01*
X13143992Y-13713793D02*
X13296373Y-13713793D01*
X13220182Y-13789984D02*
X13220182Y-13637603D01*
X13534468Y-13609031D02*
X13543992Y-13599508D01*
X13543992Y-13599508D02*
X13563039Y-13589984D01*
X13563039Y-13589984D02*
X13610658Y-13589984D01*
X13610658Y-13589984D02*
X13629706Y-13599508D01*
X13629706Y-13599508D02*
X13639230Y-13609031D01*
X13639230Y-13609031D02*
X13648753Y-13628079D01*
X13648753Y-13628079D02*
X13648753Y-13647127D01*
X13648753Y-13647127D02*
X13639230Y-13675698D01*
X13639230Y-13675698D02*
X13524944Y-13789984D01*
X13524944Y-13789984D02*
X13648753Y-13789984D01*
X13877325Y-13780460D02*
X13896373Y-13789984D01*
X13896373Y-13789984D02*
X13934468Y-13789984D01*
X13934468Y-13789984D02*
X13953515Y-13780460D01*
X13953515Y-13780460D02*
X13963039Y-13761412D01*
X13963039Y-13761412D02*
X13963039Y-13751888D01*
X13963039Y-13751888D02*
X13953515Y-13732841D01*
X13953515Y-13732841D02*
X13934468Y-13723317D01*
X13934468Y-13723317D02*
X13905896Y-13723317D01*
X13905896Y-13723317D02*
X13886849Y-13713793D01*
X13886849Y-13713793D02*
X13877325Y-13694746D01*
X13877325Y-13694746D02*
X13877325Y-13685222D01*
X13877325Y-13685222D02*
X13886849Y-13666174D01*
X13886849Y-13666174D02*
X13905896Y-13656650D01*
X13905896Y-13656650D02*
X13934468Y-13656650D01*
X13934468Y-13656650D02*
X13953515Y-13666174D01*
X14077325Y-13789984D02*
X14058277Y-13780460D01*
X14058277Y-13780460D02*
X14048754Y-13761412D01*
X14048754Y-13761412D02*
X14048754Y-13589984D01*
X14182087Y-13789984D02*
X14163039Y-13780460D01*
X14163039Y-13780460D02*
X14153515Y-13770936D01*
X14153515Y-13770936D02*
X14143992Y-13751888D01*
X14143992Y-13751888D02*
X14143992Y-13694746D01*
X14143992Y-13694746D02*
X14153515Y-13675698D01*
X14153515Y-13675698D02*
X14163039Y-13666174D01*
X14163039Y-13666174D02*
X14182087Y-13656650D01*
X14182087Y-13656650D02*
X14210658Y-13656650D01*
X14210658Y-13656650D02*
X14229706Y-13666174D01*
X14229706Y-13666174D02*
X14239230Y-13675698D01*
X14239230Y-13675698D02*
X14248754Y-13694746D01*
X14248754Y-13694746D02*
X14248754Y-13751888D01*
X14248754Y-13751888D02*
X14239230Y-13770936D01*
X14239230Y-13770936D02*
X14229706Y-13780460D01*
X14229706Y-13780460D02*
X14210658Y-13789984D01*
X14210658Y-13789984D02*
X14182087Y-13789984D01*
X14305896Y-13656650D02*
X14382087Y-13656650D01*
X14334468Y-13589984D02*
X14334468Y-13761412D01*
X14334468Y-13761412D02*
X14343992Y-13780460D01*
X14343992Y-13780460D02*
X14363039Y-13789984D01*
X14363039Y-13789984D02*
X14382087Y-13789984D01*
X14439230Y-13780460D02*
X14458277Y-13789984D01*
X14458277Y-13789984D02*
X14496373Y-13789984D01*
X14496373Y-13789984D02*
X14515420Y-13780460D01*
X14515420Y-13780460D02*
X14524944Y-13761412D01*
X14524944Y-13761412D02*
X14524944Y-13751888D01*
X14524944Y-13751888D02*
X14515420Y-13732841D01*
X14515420Y-13732841D02*
X14496373Y-13723317D01*
X14496373Y-13723317D02*
X14467801Y-13723317D01*
X14467801Y-13723317D02*
X14448754Y-13713793D01*
X14448754Y-13713793D02*
X14439230Y-13694746D01*
X14439230Y-13694746D02*
X14439230Y-13685222D01*
X14439230Y-13685222D02*
X14448754Y-13666174D01*
X14448754Y-13666174D02*
X14467801Y-13656650D01*
X14467801Y-13656650D02*
X14496373Y-13656650D01*
X14496373Y-13656650D02*
X14515420Y-13666174D01*
X14591611Y-13866174D02*
X14601135Y-13856650D01*
X14601135Y-13856650D02*
X14620182Y-13828079D01*
X14620182Y-13828079D02*
X14629706Y-13809031D01*
X14629706Y-13809031D02*
X14639230Y-13780460D01*
X14639230Y-13780460D02*
X14648754Y-13732841D01*
X14648754Y-13732841D02*
X14648754Y-13694746D01*
X14648754Y-13694746D02*
X14639230Y-13647127D01*
X14639230Y-13647127D02*
X14629706Y-13618555D01*
X14629706Y-13618555D02*
X14620182Y-13599508D01*
X14620182Y-13599508D02*
X14601135Y-13570936D01*
X14601135Y-13570936D02*
X14591611Y-13561412D01*
M02*
