M48
; DRILL file {KiCad 9.0.6} date 2026-01-08T10:54:15+0100
; FORMAT={-:-/ absolute / metric / decimal}
; #@! TF.CreationDate,2026-01-08T10:54:15+01:00
; #@! TF.GenerationSoftware,Kicad,Pcbnew,9.0.6
; #@! TF.FileFunction,Plated,1,2,PTH
FMAT,2
METRIC
; #@! TA.AperFunction,Plated,PTH,ComponentDrill
T1C0.800
; #@! TA.AperFunction,Plated,PTH,ComponentDrill
T2C0.900
; #@! TA.AperFunction,Plated,PTH,ComponentDrill
T3C1.000
; #@! TA.AperFunction,Plated,PTH,ComponentDrill
T4C1.100
; #@! TA.AperFunction,Plated,PTH,ComponentDrill
T5C1.800
%
G90
G05
T1
X93.196Y-71.0
X95.696Y-71.0
X100.5Y-78.0
X101.5Y-70.987
X105.0Y-70.987
X105.5Y-78.0
X112.38Y-70.0
X112.38Y-73.0
X120.0Y-70.0
X120.0Y-73.0
X139.69Y-73.5
X143.38Y-82.5
X143.38Y-86.0
X144.0Y-102.5
X146.5Y-98.0
X147.31Y-73.5
X151.0Y-82.5
X151.0Y-86.0
X151.5Y-98.0
X151.62Y-102.5
X162.0Y-102.5
X162.0Y-107.5
X164.012Y-84.01
X164.19Y-99.5
X164.202Y-68.5
X166.0Y-102.69
X166.0Y-110.31
X171.632Y-84.01
X171.81Y-99.5
X171.822Y-68.5
X174.702Y-68.5
X175.5Y-99.5
X175.653Y-84.01
X182.322Y-68.5
X183.12Y-99.5
X183.272Y-84.01
T2
X113.96Y-80.5
X116.5Y-80.5
X119.73Y-80.5
X122.27Y-80.5
X125.46Y-80.5
X128.0Y-80.5
T3
X111.19Y-111.63
X111.27Y-51.77
X111.27Y-54.31
X111.27Y-63.69
X111.27Y-66.23
X113.73Y-111.63
X116.27Y-111.63
X118.81Y-111.63
X130.73Y-51.77
X130.73Y-54.31
X130.73Y-63.69
X130.73Y-66.23
X134.5Y-69.5
X134.5Y-72.04
X134.5Y-74.58
X134.5Y-77.12
X134.5Y-79.66
X134.5Y-82.2
X134.5Y-84.74
X134.5Y-87.28
X134.5Y-89.82
X134.5Y-92.36
X134.5Y-94.9
X134.5Y-97.44
X134.5Y-99.98
X134.5Y-102.52
X134.5Y-105.06
X134.5Y-107.6
X157.36Y-69.5
X157.36Y-72.04
X157.36Y-74.58
X157.36Y-77.12
X157.36Y-79.66
X157.36Y-82.2
X157.36Y-84.74
X157.36Y-87.28
X157.36Y-89.82
X157.36Y-92.36
X157.36Y-94.9
X157.36Y-97.44
X157.36Y-99.98
X157.36Y-102.52
X157.36Y-105.06
X157.36Y-107.6
X172.6Y-103.5
X175.1Y-103.5
X177.6Y-103.5
X188.27Y-105.69
X188.27Y-108.23
X188.27Y-110.77
X188.27Y-113.31
T4
X89.18Y-83.25
X89.18Y-87.75
X89.18Y-107.85
X89.18Y-112.35
X89.25Y-91.25
X89.25Y-95.75
X89.25Y-99.5
X89.25Y-104.0
X95.68Y-83.25
X95.68Y-87.75
X95.68Y-107.85
X95.68Y-112.35
X95.75Y-91.25
X95.75Y-95.75
X95.75Y-99.5
X95.75Y-104.0
X182.45Y-89.38
X182.45Y-91.92
X182.45Y-94.46
X182.463Y-73.93
X182.463Y-76.47
X182.463Y-79.01
X182.512Y-58.02
X182.512Y-60.56
X182.512Y-63.1
T3
G00X97.3Y-62.2
M15
G01X97.3Y-60.2
M16
G05
G00X101.0Y-58.0
M15
G01X103.0Y-58.0
M16
G05
G00X101.0Y-64.2
M15
G01X103.0Y-64.2
M16
G05
G00X187.787Y-91.5
M15
G01X187.787Y-93.5
M16
G05
G00X187.8Y-60.5
M15
G01X187.8Y-62.5
M16
G05
G00X187.8Y-76.0
M15
G01X187.8Y-78.0
M16
G05
G00X189.787Y-87.8
M15
G01X191.787Y-87.8
M16
G05
G00X189.8Y-56.8
M15
G01X191.8Y-56.8
M16
G05
G00X189.8Y-72.3
M15
G01X191.8Y-72.3
M16
G05
G00X193.987Y-91.5
M15
G01X193.987Y-93.5
M16
G05
G00X194.0Y-60.5
M15
G01X194.0Y-62.5
M16
G05
G00X194.0Y-76.0
M15
G01X194.0Y-78.0
M16
G05
T5
G00X170.7Y-110.35
M15
G01X170.7Y-110.65
M16
G05
G00X179.5Y-110.35
M15
G01X179.5Y-110.65
M16
G05
M30
