%TF.GenerationSoftware,KiCad,Pcbnew,9.0.6*%
%TF.CreationDate,2026-01-08T10:53:52+01:00*%
%TF.ProjectId,astro-control,61737472-6f2d-4636-9f6e-74726f6c2e6b,rev?*%
%TF.SameCoordinates,Original*%
%TF.FileFunction,Legend,Top*%
%TF.FilePolarity,Positive*%
%FSLAX46Y46*%
G04 Gerber Fmt 4.6, Leading zero omitted, Abs format (unit mm)*
G04 Created by KiCad (PCBNEW 9.0.6) date 2026-01-08 10:53:52*
%MOMM*%
%LPD*%
G01*
G04 APERTURE LIST*
%ADD10C,0.150000*%
%ADD11C,0.120000*%
G04 APERTURE END LIST*
D10*
X91166667Y-85907200D02*
X91309524Y-85954819D01*
X91309524Y-85954819D02*
X91547619Y-85954819D01*
X91547619Y-85954819D02*
X91642857Y-85907200D01*
X91642857Y-85907200D02*
X91690476Y-85859580D01*
X91690476Y-85859580D02*
X91738095Y-85764342D01*
X91738095Y-85764342D02*
X91738095Y-85669104D01*
X91738095Y-85669104D02*
X91690476Y-85573866D01*
X91690476Y-85573866D02*
X91642857Y-85526247D01*
X91642857Y-85526247D02*
X91547619Y-85478628D01*
X91547619Y-85478628D02*
X91357143Y-85431009D01*
X91357143Y-85431009D02*
X91261905Y-85383390D01*
X91261905Y-85383390D02*
X91214286Y-85335771D01*
X91214286Y-85335771D02*
X91166667Y-85240533D01*
X91166667Y-85240533D02*
X91166667Y-85145295D01*
X91166667Y-85145295D02*
X91214286Y-85050057D01*
X91214286Y-85050057D02*
X91261905Y-85002438D01*
X91261905Y-85002438D02*
X91357143Y-84954819D01*
X91357143Y-84954819D02*
X91595238Y-84954819D01*
X91595238Y-84954819D02*
X91738095Y-85002438D01*
X92071429Y-84954819D02*
X92309524Y-85954819D01*
X92309524Y-85954819D02*
X92500000Y-85240533D01*
X92500000Y-85240533D02*
X92690476Y-85954819D01*
X92690476Y-85954819D02*
X92928572Y-84954819D01*
X93738095Y-85288152D02*
X93738095Y-85954819D01*
X93500000Y-84907200D02*
X93261905Y-85621485D01*
X93261905Y-85621485D02*
X93880952Y-85621485D01*
X91166667Y-93907200D02*
X91309524Y-93954819D01*
X91309524Y-93954819D02*
X91547619Y-93954819D01*
X91547619Y-93954819D02*
X91642857Y-93907200D01*
X91642857Y-93907200D02*
X91690476Y-93859580D01*
X91690476Y-93859580D02*
X91738095Y-93764342D01*
X91738095Y-93764342D02*
X91738095Y-93669104D01*
X91738095Y-93669104D02*
X91690476Y-93573866D01*
X91690476Y-93573866D02*
X91642857Y-93526247D01*
X91642857Y-93526247D02*
X91547619Y-93478628D01*
X91547619Y-93478628D02*
X91357143Y-93431009D01*
X91357143Y-93431009D02*
X91261905Y-93383390D01*
X91261905Y-93383390D02*
X91214286Y-93335771D01*
X91214286Y-93335771D02*
X91166667Y-93240533D01*
X91166667Y-93240533D02*
X91166667Y-93145295D01*
X91166667Y-93145295D02*
X91214286Y-93050057D01*
X91214286Y-93050057D02*
X91261905Y-93002438D01*
X91261905Y-93002438D02*
X91357143Y-92954819D01*
X91357143Y-92954819D02*
X91595238Y-92954819D01*
X91595238Y-92954819D02*
X91738095Y-93002438D01*
X92071429Y-92954819D02*
X92309524Y-93954819D01*
X92309524Y-93954819D02*
X92500000Y-93240533D01*
X92500000Y-93240533D02*
X92690476Y-93954819D01*
X92690476Y-93954819D02*
X92928572Y-92954819D01*
X93214286Y-92954819D02*
X93833333Y-92954819D01*
X93833333Y-92954819D02*
X93500000Y-93335771D01*
X93500000Y-93335771D02*
X93642857Y-93335771D01*
X93642857Y-93335771D02*
X93738095Y-93383390D01*
X93738095Y-93383390D02*
X93785714Y-93431009D01*
X93785714Y-93431009D02*
X93833333Y-93526247D01*
X93833333Y-93526247D02*
X93833333Y-93764342D01*
X93833333Y-93764342D02*
X93785714Y-93859580D01*
X93785714Y-93859580D02*
X93738095Y-93907200D01*
X93738095Y-93907200D02*
X93642857Y-93954819D01*
X93642857Y-93954819D02*
X93357143Y-93954819D01*
X93357143Y-93954819D02*
X93261905Y-93907200D01*
X93261905Y-93907200D02*
X93214286Y-93859580D01*
X178912557Y-76565238D02*
X178864938Y-76660476D01*
X178864938Y-76660476D02*
X178769700Y-76755714D01*
X178769700Y-76755714D02*
X178626842Y-76898571D01*
X178626842Y-76898571D02*
X178579223Y-76993809D01*
X178579223Y-76993809D02*
X178579223Y-77089047D01*
X178817319Y-77041428D02*
X178769700Y-77136666D01*
X178769700Y-77136666D02*
X178674461Y-77231904D01*
X178674461Y-77231904D02*
X178483985Y-77279523D01*
X178483985Y-77279523D02*
X178150652Y-77279523D01*
X178150652Y-77279523D02*
X177960176Y-77231904D01*
X177960176Y-77231904D02*
X177864938Y-77136666D01*
X177864938Y-77136666D02*
X177817319Y-77041428D01*
X177817319Y-77041428D02*
X177817319Y-76850952D01*
X177817319Y-76850952D02*
X177864938Y-76755714D01*
X177864938Y-76755714D02*
X177960176Y-76660476D01*
X177960176Y-76660476D02*
X178150652Y-76612857D01*
X178150652Y-76612857D02*
X178483985Y-76612857D01*
X178483985Y-76612857D02*
X178674461Y-76660476D01*
X178674461Y-76660476D02*
X178769700Y-76755714D01*
X178769700Y-76755714D02*
X178817319Y-76850952D01*
X178817319Y-76850952D02*
X178817319Y-77041428D01*
X177912557Y-76231904D02*
X177864938Y-76184285D01*
X177864938Y-76184285D02*
X177817319Y-76089047D01*
X177817319Y-76089047D02*
X177817319Y-75850952D01*
X177817319Y-75850952D02*
X177864938Y-75755714D01*
X177864938Y-75755714D02*
X177912557Y-75708095D01*
X177912557Y-75708095D02*
X178007795Y-75660476D01*
X178007795Y-75660476D02*
X178103033Y-75660476D01*
X178103033Y-75660476D02*
X178245890Y-75708095D01*
X178245890Y-75708095D02*
X178817319Y-76279523D01*
X178817319Y-76279523D02*
X178817319Y-75660476D01*
X114491905Y-77994819D02*
X114491905Y-76994819D01*
X114491905Y-76994819D02*
X114730000Y-76994819D01*
X114730000Y-76994819D02*
X114872857Y-77042438D01*
X114872857Y-77042438D02*
X114968095Y-77137676D01*
X114968095Y-77137676D02*
X115015714Y-77232914D01*
X115015714Y-77232914D02*
X115063333Y-77423390D01*
X115063333Y-77423390D02*
X115063333Y-77566247D01*
X115063333Y-77566247D02*
X115015714Y-77756723D01*
X115015714Y-77756723D02*
X114968095Y-77851961D01*
X114968095Y-77851961D02*
X114872857Y-77947200D01*
X114872857Y-77947200D02*
X114730000Y-77994819D01*
X114730000Y-77994819D02*
X114491905Y-77994819D01*
X115396667Y-76994819D02*
X116015714Y-76994819D01*
X116015714Y-76994819D02*
X115682381Y-77375771D01*
X115682381Y-77375771D02*
X115825238Y-77375771D01*
X115825238Y-77375771D02*
X115920476Y-77423390D01*
X115920476Y-77423390D02*
X115968095Y-77471009D01*
X115968095Y-77471009D02*
X116015714Y-77566247D01*
X116015714Y-77566247D02*
X116015714Y-77804342D01*
X116015714Y-77804342D02*
X115968095Y-77899580D01*
X115968095Y-77899580D02*
X115920476Y-77947200D01*
X115920476Y-77947200D02*
X115825238Y-77994819D01*
X115825238Y-77994819D02*
X115539524Y-77994819D01*
X115539524Y-77994819D02*
X115444286Y-77947200D01*
X115444286Y-77947200D02*
X115396667Y-77899580D01*
X125991905Y-77994819D02*
X125991905Y-76994819D01*
X125991905Y-76994819D02*
X126230000Y-76994819D01*
X126230000Y-76994819D02*
X126372857Y-77042438D01*
X126372857Y-77042438D02*
X126468095Y-77137676D01*
X126468095Y-77137676D02*
X126515714Y-77232914D01*
X126515714Y-77232914D02*
X126563333Y-77423390D01*
X126563333Y-77423390D02*
X126563333Y-77566247D01*
X126563333Y-77566247D02*
X126515714Y-77756723D01*
X126515714Y-77756723D02*
X126468095Y-77851961D01*
X126468095Y-77851961D02*
X126372857Y-77947200D01*
X126372857Y-77947200D02*
X126230000Y-77994819D01*
X126230000Y-77994819D02*
X125991905Y-77994819D01*
X127515714Y-77994819D02*
X126944286Y-77994819D01*
X127230000Y-77994819D02*
X127230000Y-76994819D01*
X127230000Y-76994819D02*
X127134762Y-77137676D01*
X127134762Y-77137676D02*
X127039524Y-77232914D01*
X127039524Y-77232914D02*
X126944286Y-77280533D01*
X162359580Y-105166666D02*
X162407200Y-105214285D01*
X162407200Y-105214285D02*
X162454819Y-105357142D01*
X162454819Y-105357142D02*
X162454819Y-105452380D01*
X162454819Y-105452380D02*
X162407200Y-105595237D01*
X162407200Y-105595237D02*
X162311961Y-105690475D01*
X162311961Y-105690475D02*
X162216723Y-105738094D01*
X162216723Y-105738094D02*
X162026247Y-105785713D01*
X162026247Y-105785713D02*
X161883390Y-105785713D01*
X161883390Y-105785713D02*
X161692914Y-105738094D01*
X161692914Y-105738094D02*
X161597676Y-105690475D01*
X161597676Y-105690475D02*
X161502438Y-105595237D01*
X161502438Y-105595237D02*
X161454819Y-105452380D01*
X161454819Y-105452380D02*
X161454819Y-105357142D01*
X161454819Y-105357142D02*
X161502438Y-105214285D01*
X161502438Y-105214285D02*
X161550057Y-105166666D01*
X161454819Y-104261904D02*
X161454819Y-104738094D01*
X161454819Y-104738094D02*
X161931009Y-104785713D01*
X161931009Y-104785713D02*
X161883390Y-104738094D01*
X161883390Y-104738094D02*
X161835771Y-104642856D01*
X161835771Y-104642856D02*
X161835771Y-104404761D01*
X161835771Y-104404761D02*
X161883390Y-104309523D01*
X161883390Y-104309523D02*
X161931009Y-104261904D01*
X161931009Y-104261904D02*
X162026247Y-104214285D01*
X162026247Y-104214285D02*
X162264342Y-104214285D01*
X162264342Y-104214285D02*
X162359580Y-104261904D01*
X162359580Y-104261904D02*
X162407200Y-104309523D01*
X162407200Y-104309523D02*
X162454819Y-104404761D01*
X162454819Y-104404761D02*
X162454819Y-104642856D01*
X162454819Y-104642856D02*
X162407200Y-104738094D01*
X162407200Y-104738094D02*
X162359580Y-104785713D01*
X148833333Y-98359580D02*
X148785714Y-98407200D01*
X148785714Y-98407200D02*
X148642857Y-98454819D01*
X148642857Y-98454819D02*
X148547619Y-98454819D01*
X148547619Y-98454819D02*
X148404762Y-98407200D01*
X148404762Y-98407200D02*
X148309524Y-98311961D01*
X148309524Y-98311961D02*
X148261905Y-98216723D01*
X148261905Y-98216723D02*
X148214286Y-98026247D01*
X148214286Y-98026247D02*
X148214286Y-97883390D01*
X148214286Y-97883390D02*
X148261905Y-97692914D01*
X148261905Y-97692914D02*
X148309524Y-97597676D01*
X148309524Y-97597676D02*
X148404762Y-97502438D01*
X148404762Y-97502438D02*
X148547619Y-97454819D01*
X148547619Y-97454819D02*
X148642857Y-97454819D01*
X148642857Y-97454819D02*
X148785714Y-97502438D01*
X148785714Y-97502438D02*
X148833333Y-97550057D01*
X149690476Y-97788152D02*
X149690476Y-98454819D01*
X149452381Y-97407200D02*
X149214286Y-98121485D01*
X149214286Y-98121485D02*
X149833333Y-98121485D01*
X166454819Y-106666666D02*
X165978628Y-106999999D01*
X166454819Y-107238094D02*
X165454819Y-107238094D01*
X165454819Y-107238094D02*
X165454819Y-106857142D01*
X165454819Y-106857142D02*
X165502438Y-106761904D01*
X165502438Y-106761904D02*
X165550057Y-106714285D01*
X165550057Y-106714285D02*
X165645295Y-106666666D01*
X165645295Y-106666666D02*
X165788152Y-106666666D01*
X165788152Y-106666666D02*
X165883390Y-106714285D01*
X165883390Y-106714285D02*
X165931009Y-106761904D01*
X165931009Y-106761904D02*
X165978628Y-106857142D01*
X165978628Y-106857142D02*
X165978628Y-107238094D01*
X165788152Y-105809523D02*
X166454819Y-105809523D01*
X165407200Y-106047618D02*
X166121485Y-106285713D01*
X166121485Y-106285713D02*
X166121485Y-105666666D01*
X178857142Y-84454819D02*
X178523809Y-83978628D01*
X178285714Y-84454819D02*
X178285714Y-83454819D01*
X178285714Y-83454819D02*
X178666666Y-83454819D01*
X178666666Y-83454819D02*
X178761904Y-83502438D01*
X178761904Y-83502438D02*
X178809523Y-83550057D01*
X178809523Y-83550057D02*
X178857142Y-83645295D01*
X178857142Y-83645295D02*
X178857142Y-83788152D01*
X178857142Y-83788152D02*
X178809523Y-83883390D01*
X178809523Y-83883390D02*
X178761904Y-83931009D01*
X178761904Y-83931009D02*
X178666666Y-83978628D01*
X178666666Y-83978628D02*
X178285714Y-83978628D01*
X179809523Y-84454819D02*
X179238095Y-84454819D01*
X179523809Y-84454819D02*
X179523809Y-83454819D01*
X179523809Y-83454819D02*
X179428571Y-83597676D01*
X179428571Y-83597676D02*
X179333333Y-83692914D01*
X179333333Y-83692914D02*
X179238095Y-83740533D01*
X180142857Y-83454819D02*
X180761904Y-83454819D01*
X180761904Y-83454819D02*
X180428571Y-83835771D01*
X180428571Y-83835771D02*
X180571428Y-83835771D01*
X180571428Y-83835771D02*
X180666666Y-83883390D01*
X180666666Y-83883390D02*
X180714285Y-83931009D01*
X180714285Y-83931009D02*
X180761904Y-84026247D01*
X180761904Y-84026247D02*
X180761904Y-84264342D01*
X180761904Y-84264342D02*
X180714285Y-84359580D01*
X180714285Y-84359580D02*
X180666666Y-84407200D01*
X180666666Y-84407200D02*
X180571428Y-84454819D01*
X180571428Y-84454819D02*
X180285714Y-84454819D01*
X180285714Y-84454819D02*
X180190476Y-84407200D01*
X180190476Y-84407200D02*
X180142857Y-84359580D01*
X102833333Y-78359580D02*
X102785714Y-78407200D01*
X102785714Y-78407200D02*
X102642857Y-78454819D01*
X102642857Y-78454819D02*
X102547619Y-78454819D01*
X102547619Y-78454819D02*
X102404762Y-78407200D01*
X102404762Y-78407200D02*
X102309524Y-78311961D01*
X102309524Y-78311961D02*
X102261905Y-78216723D01*
X102261905Y-78216723D02*
X102214286Y-78026247D01*
X102214286Y-78026247D02*
X102214286Y-77883390D01*
X102214286Y-77883390D02*
X102261905Y-77692914D01*
X102261905Y-77692914D02*
X102309524Y-77597676D01*
X102309524Y-77597676D02*
X102404762Y-77502438D01*
X102404762Y-77502438D02*
X102547619Y-77454819D01*
X102547619Y-77454819D02*
X102642857Y-77454819D01*
X102642857Y-77454819D02*
X102785714Y-77502438D01*
X102785714Y-77502438D02*
X102833333Y-77550057D01*
X103166667Y-77454819D02*
X103785714Y-77454819D01*
X103785714Y-77454819D02*
X103452381Y-77835771D01*
X103452381Y-77835771D02*
X103595238Y-77835771D01*
X103595238Y-77835771D02*
X103690476Y-77883390D01*
X103690476Y-77883390D02*
X103738095Y-77931009D01*
X103738095Y-77931009D02*
X103785714Y-78026247D01*
X103785714Y-78026247D02*
X103785714Y-78264342D01*
X103785714Y-78264342D02*
X103738095Y-78359580D01*
X103738095Y-78359580D02*
X103690476Y-78407200D01*
X103690476Y-78407200D02*
X103595238Y-78454819D01*
X103595238Y-78454819D02*
X103309524Y-78454819D01*
X103309524Y-78454819D02*
X103214286Y-78407200D01*
X103214286Y-78407200D02*
X103166667Y-78359580D01*
X91166667Y-110407200D02*
X91309524Y-110454819D01*
X91309524Y-110454819D02*
X91547619Y-110454819D01*
X91547619Y-110454819D02*
X91642857Y-110407200D01*
X91642857Y-110407200D02*
X91690476Y-110359580D01*
X91690476Y-110359580D02*
X91738095Y-110264342D01*
X91738095Y-110264342D02*
X91738095Y-110169104D01*
X91738095Y-110169104D02*
X91690476Y-110073866D01*
X91690476Y-110073866D02*
X91642857Y-110026247D01*
X91642857Y-110026247D02*
X91547619Y-109978628D01*
X91547619Y-109978628D02*
X91357143Y-109931009D01*
X91357143Y-109931009D02*
X91261905Y-109883390D01*
X91261905Y-109883390D02*
X91214286Y-109835771D01*
X91214286Y-109835771D02*
X91166667Y-109740533D01*
X91166667Y-109740533D02*
X91166667Y-109645295D01*
X91166667Y-109645295D02*
X91214286Y-109550057D01*
X91214286Y-109550057D02*
X91261905Y-109502438D01*
X91261905Y-109502438D02*
X91357143Y-109454819D01*
X91357143Y-109454819D02*
X91595238Y-109454819D01*
X91595238Y-109454819D02*
X91738095Y-109502438D01*
X92071429Y-109454819D02*
X92309524Y-110454819D01*
X92309524Y-110454819D02*
X92500000Y-109740533D01*
X92500000Y-109740533D02*
X92690476Y-110454819D01*
X92690476Y-110454819D02*
X92928572Y-109454819D01*
X93833333Y-110454819D02*
X93261905Y-110454819D01*
X93547619Y-110454819D02*
X93547619Y-109454819D01*
X93547619Y-109454819D02*
X93452381Y-109597676D01*
X93452381Y-109597676D02*
X93357143Y-109692914D01*
X93357143Y-109692914D02*
X93261905Y-109740533D01*
X175454819Y-110595238D02*
X174978628Y-110928571D01*
X175454819Y-111166666D02*
X174454819Y-111166666D01*
X174454819Y-111166666D02*
X174454819Y-110785714D01*
X174454819Y-110785714D02*
X174502438Y-110690476D01*
X174502438Y-110690476D02*
X174550057Y-110642857D01*
X174550057Y-110642857D02*
X174645295Y-110595238D01*
X174645295Y-110595238D02*
X174788152Y-110595238D01*
X174788152Y-110595238D02*
X174883390Y-110642857D01*
X174883390Y-110642857D02*
X174931009Y-110690476D01*
X174931009Y-110690476D02*
X174978628Y-110785714D01*
X174978628Y-110785714D02*
X174978628Y-111166666D01*
X174454819Y-110309523D02*
X175454819Y-109976190D01*
X175454819Y-109976190D02*
X174454819Y-109642857D01*
X175454819Y-108785714D02*
X175454819Y-109357142D01*
X175454819Y-109071428D02*
X174454819Y-109071428D01*
X174454819Y-109071428D02*
X174597676Y-109166666D01*
X174597676Y-109166666D02*
X174692914Y-109261904D01*
X174692914Y-109261904D02*
X174740533Y-109357142D01*
X146547142Y-82954819D02*
X146213809Y-82478628D01*
X145975714Y-82954819D02*
X145975714Y-81954819D01*
X145975714Y-81954819D02*
X146356666Y-81954819D01*
X146356666Y-81954819D02*
X146451904Y-82002438D01*
X146451904Y-82002438D02*
X146499523Y-82050057D01*
X146499523Y-82050057D02*
X146547142Y-82145295D01*
X146547142Y-82145295D02*
X146547142Y-82288152D01*
X146547142Y-82288152D02*
X146499523Y-82383390D01*
X146499523Y-82383390D02*
X146451904Y-82431009D01*
X146451904Y-82431009D02*
X146356666Y-82478628D01*
X146356666Y-82478628D02*
X145975714Y-82478628D01*
X146928095Y-82050057D02*
X146975714Y-82002438D01*
X146975714Y-82002438D02*
X147070952Y-81954819D01*
X147070952Y-81954819D02*
X147309047Y-81954819D01*
X147309047Y-81954819D02*
X147404285Y-82002438D01*
X147404285Y-82002438D02*
X147451904Y-82050057D01*
X147451904Y-82050057D02*
X147499523Y-82145295D01*
X147499523Y-82145295D02*
X147499523Y-82240533D01*
X147499523Y-82240533D02*
X147451904Y-82383390D01*
X147451904Y-82383390D02*
X146880476Y-82954819D01*
X146880476Y-82954819D02*
X147499523Y-82954819D01*
X147880476Y-82050057D02*
X147928095Y-82002438D01*
X147928095Y-82002438D02*
X148023333Y-81954819D01*
X148023333Y-81954819D02*
X148261428Y-81954819D01*
X148261428Y-81954819D02*
X148356666Y-82002438D01*
X148356666Y-82002438D02*
X148404285Y-82050057D01*
X148404285Y-82050057D02*
X148451904Y-82145295D01*
X148451904Y-82145295D02*
X148451904Y-82240533D01*
X148451904Y-82240533D02*
X148404285Y-82383390D01*
X148404285Y-82383390D02*
X147832857Y-82954819D01*
X147832857Y-82954819D02*
X148451904Y-82954819D01*
X178900057Y-92015238D02*
X178852438Y-92110476D01*
X178852438Y-92110476D02*
X178757200Y-92205714D01*
X178757200Y-92205714D02*
X178614342Y-92348571D01*
X178614342Y-92348571D02*
X178566723Y-92443809D01*
X178566723Y-92443809D02*
X178566723Y-92539047D01*
X178804819Y-92491428D02*
X178757200Y-92586666D01*
X178757200Y-92586666D02*
X178661961Y-92681904D01*
X178661961Y-92681904D02*
X178471485Y-92729523D01*
X178471485Y-92729523D02*
X178138152Y-92729523D01*
X178138152Y-92729523D02*
X177947676Y-92681904D01*
X177947676Y-92681904D02*
X177852438Y-92586666D01*
X177852438Y-92586666D02*
X177804819Y-92491428D01*
X177804819Y-92491428D02*
X177804819Y-92300952D01*
X177804819Y-92300952D02*
X177852438Y-92205714D01*
X177852438Y-92205714D02*
X177947676Y-92110476D01*
X177947676Y-92110476D02*
X178138152Y-92062857D01*
X178138152Y-92062857D02*
X178471485Y-92062857D01*
X178471485Y-92062857D02*
X178661961Y-92110476D01*
X178661961Y-92110476D02*
X178757200Y-92205714D01*
X178757200Y-92205714D02*
X178804819Y-92300952D01*
X178804819Y-92300952D02*
X178804819Y-92491428D01*
X178804819Y-91110476D02*
X178804819Y-91681904D01*
X178804819Y-91396190D02*
X177804819Y-91396190D01*
X177804819Y-91396190D02*
X177947676Y-91491428D01*
X177947676Y-91491428D02*
X178042914Y-91586666D01*
X178042914Y-91586666D02*
X178090533Y-91681904D01*
X177869642Y-68954819D02*
X177536309Y-68478628D01*
X177298214Y-68954819D02*
X177298214Y-67954819D01*
X177298214Y-67954819D02*
X177679166Y-67954819D01*
X177679166Y-67954819D02*
X177774404Y-68002438D01*
X177774404Y-68002438D02*
X177822023Y-68050057D01*
X177822023Y-68050057D02*
X177869642Y-68145295D01*
X177869642Y-68145295D02*
X177869642Y-68288152D01*
X177869642Y-68288152D02*
X177822023Y-68383390D01*
X177822023Y-68383390D02*
X177774404Y-68431009D01*
X177774404Y-68431009D02*
X177679166Y-68478628D01*
X177679166Y-68478628D02*
X177298214Y-68478628D01*
X178822023Y-68954819D02*
X178250595Y-68954819D01*
X178536309Y-68954819D02*
X178536309Y-67954819D01*
X178536309Y-67954819D02*
X178441071Y-68097676D01*
X178441071Y-68097676D02*
X178345833Y-68192914D01*
X178345833Y-68192914D02*
X178250595Y-68240533D01*
X179393452Y-68383390D02*
X179298214Y-68335771D01*
X179298214Y-68335771D02*
X179250595Y-68288152D01*
X179250595Y-68288152D02*
X179202976Y-68192914D01*
X179202976Y-68192914D02*
X179202976Y-68145295D01*
X179202976Y-68145295D02*
X179250595Y-68050057D01*
X179250595Y-68050057D02*
X179298214Y-68002438D01*
X179298214Y-68002438D02*
X179393452Y-67954819D01*
X179393452Y-67954819D02*
X179583928Y-67954819D01*
X179583928Y-67954819D02*
X179679166Y-68002438D01*
X179679166Y-68002438D02*
X179726785Y-68050057D01*
X179726785Y-68050057D02*
X179774404Y-68145295D01*
X179774404Y-68145295D02*
X179774404Y-68192914D01*
X179774404Y-68192914D02*
X179726785Y-68288152D01*
X179726785Y-68288152D02*
X179679166Y-68335771D01*
X179679166Y-68335771D02*
X179583928Y-68383390D01*
X179583928Y-68383390D02*
X179393452Y-68383390D01*
X179393452Y-68383390D02*
X179298214Y-68431009D01*
X179298214Y-68431009D02*
X179250595Y-68478628D01*
X179250595Y-68478628D02*
X179202976Y-68573866D01*
X179202976Y-68573866D02*
X179202976Y-68764342D01*
X179202976Y-68764342D02*
X179250595Y-68859580D01*
X179250595Y-68859580D02*
X179298214Y-68907200D01*
X179298214Y-68907200D02*
X179393452Y-68954819D01*
X179393452Y-68954819D02*
X179583928Y-68954819D01*
X179583928Y-68954819D02*
X179679166Y-68907200D01*
X179679166Y-68907200D02*
X179726785Y-68859580D01*
X179726785Y-68859580D02*
X179774404Y-68764342D01*
X179774404Y-68764342D02*
X179774404Y-68573866D01*
X179774404Y-68573866D02*
X179726785Y-68478628D01*
X179726785Y-68478628D02*
X179679166Y-68431009D01*
X179679166Y-68431009D02*
X179583928Y-68383390D01*
X116023333Y-70454819D02*
X115690000Y-69978628D01*
X115451905Y-70454819D02*
X115451905Y-69454819D01*
X115451905Y-69454819D02*
X115832857Y-69454819D01*
X115832857Y-69454819D02*
X115928095Y-69502438D01*
X115928095Y-69502438D02*
X115975714Y-69550057D01*
X115975714Y-69550057D02*
X116023333Y-69645295D01*
X116023333Y-69645295D02*
X116023333Y-69788152D01*
X116023333Y-69788152D02*
X115975714Y-69883390D01*
X115975714Y-69883390D02*
X115928095Y-69931009D01*
X115928095Y-69931009D02*
X115832857Y-69978628D01*
X115832857Y-69978628D02*
X115451905Y-69978628D01*
X116404286Y-69550057D02*
X116451905Y-69502438D01*
X116451905Y-69502438D02*
X116547143Y-69454819D01*
X116547143Y-69454819D02*
X116785238Y-69454819D01*
X116785238Y-69454819D02*
X116880476Y-69502438D01*
X116880476Y-69502438D02*
X116928095Y-69550057D01*
X116928095Y-69550057D02*
X116975714Y-69645295D01*
X116975714Y-69645295D02*
X116975714Y-69740533D01*
X116975714Y-69740533D02*
X116928095Y-69883390D01*
X116928095Y-69883390D02*
X116356667Y-70454819D01*
X116356667Y-70454819D02*
X116975714Y-70454819D01*
X178962557Y-60655238D02*
X178914938Y-60750476D01*
X178914938Y-60750476D02*
X178819700Y-60845714D01*
X178819700Y-60845714D02*
X178676842Y-60988571D01*
X178676842Y-60988571D02*
X178629223Y-61083809D01*
X178629223Y-61083809D02*
X178629223Y-61179047D01*
X178867319Y-61131428D02*
X178819700Y-61226666D01*
X178819700Y-61226666D02*
X178724461Y-61321904D01*
X178724461Y-61321904D02*
X178533985Y-61369523D01*
X178533985Y-61369523D02*
X178200652Y-61369523D01*
X178200652Y-61369523D02*
X178010176Y-61321904D01*
X178010176Y-61321904D02*
X177914938Y-61226666D01*
X177914938Y-61226666D02*
X177867319Y-61131428D01*
X177867319Y-61131428D02*
X177867319Y-60940952D01*
X177867319Y-60940952D02*
X177914938Y-60845714D01*
X177914938Y-60845714D02*
X178010176Y-60750476D01*
X178010176Y-60750476D02*
X178200652Y-60702857D01*
X178200652Y-60702857D02*
X178533985Y-60702857D01*
X178533985Y-60702857D02*
X178724461Y-60750476D01*
X178724461Y-60750476D02*
X178819700Y-60845714D01*
X178819700Y-60845714D02*
X178867319Y-60940952D01*
X178867319Y-60940952D02*
X178867319Y-61131428D01*
X177867319Y-60369523D02*
X177867319Y-59750476D01*
X177867319Y-59750476D02*
X178248271Y-60083809D01*
X178248271Y-60083809D02*
X178248271Y-59940952D01*
X178248271Y-59940952D02*
X178295890Y-59845714D01*
X178295890Y-59845714D02*
X178343509Y-59798095D01*
X178343509Y-59798095D02*
X178438747Y-59750476D01*
X178438747Y-59750476D02*
X178676842Y-59750476D01*
X178676842Y-59750476D02*
X178772080Y-59798095D01*
X178772080Y-59798095D02*
X178819700Y-59845714D01*
X178819700Y-59845714D02*
X178867319Y-59940952D01*
X178867319Y-59940952D02*
X178867319Y-60226666D01*
X178867319Y-60226666D02*
X178819700Y-60321904D01*
X178819700Y-60321904D02*
X178772080Y-60369523D01*
X167357142Y-84454819D02*
X167023809Y-83978628D01*
X166785714Y-84454819D02*
X166785714Y-83454819D01*
X166785714Y-83454819D02*
X167166666Y-83454819D01*
X167166666Y-83454819D02*
X167261904Y-83502438D01*
X167261904Y-83502438D02*
X167309523Y-83550057D01*
X167309523Y-83550057D02*
X167357142Y-83645295D01*
X167357142Y-83645295D02*
X167357142Y-83788152D01*
X167357142Y-83788152D02*
X167309523Y-83883390D01*
X167309523Y-83883390D02*
X167261904Y-83931009D01*
X167261904Y-83931009D02*
X167166666Y-83978628D01*
X167166666Y-83978628D02*
X166785714Y-83978628D01*
X168309523Y-84454819D02*
X167738095Y-84454819D01*
X168023809Y-84454819D02*
X168023809Y-83454819D01*
X168023809Y-83454819D02*
X167928571Y-83597676D01*
X167928571Y-83597676D02*
X167833333Y-83692914D01*
X167833333Y-83692914D02*
X167738095Y-83740533D01*
X169166666Y-83788152D02*
X169166666Y-84454819D01*
X168928571Y-83407200D02*
X168690476Y-84121485D01*
X168690476Y-84121485D02*
X169309523Y-84121485D01*
X147643333Y-102954819D02*
X147310000Y-102478628D01*
X147071905Y-102954819D02*
X147071905Y-101954819D01*
X147071905Y-101954819D02*
X147452857Y-101954819D01*
X147452857Y-101954819D02*
X147548095Y-102002438D01*
X147548095Y-102002438D02*
X147595714Y-102050057D01*
X147595714Y-102050057D02*
X147643333Y-102145295D01*
X147643333Y-102145295D02*
X147643333Y-102288152D01*
X147643333Y-102288152D02*
X147595714Y-102383390D01*
X147595714Y-102383390D02*
X147548095Y-102431009D01*
X147548095Y-102431009D02*
X147452857Y-102478628D01*
X147452857Y-102478628D02*
X147071905Y-102478628D01*
X147976667Y-101954819D02*
X148595714Y-101954819D01*
X148595714Y-101954819D02*
X148262381Y-102335771D01*
X148262381Y-102335771D02*
X148405238Y-102335771D01*
X148405238Y-102335771D02*
X148500476Y-102383390D01*
X148500476Y-102383390D02*
X148548095Y-102431009D01*
X148548095Y-102431009D02*
X148595714Y-102526247D01*
X148595714Y-102526247D02*
X148595714Y-102764342D01*
X148595714Y-102764342D02*
X148548095Y-102859580D01*
X148548095Y-102859580D02*
X148500476Y-102907200D01*
X148500476Y-102907200D02*
X148405238Y-102954819D01*
X148405238Y-102954819D02*
X148119524Y-102954819D01*
X148119524Y-102954819D02*
X148024286Y-102907200D01*
X148024286Y-102907200D02*
X147976667Y-102859580D01*
X142857142Y-73954819D02*
X142523809Y-73478628D01*
X142285714Y-73954819D02*
X142285714Y-72954819D01*
X142285714Y-72954819D02*
X142666666Y-72954819D01*
X142666666Y-72954819D02*
X142761904Y-73002438D01*
X142761904Y-73002438D02*
X142809523Y-73050057D01*
X142809523Y-73050057D02*
X142857142Y-73145295D01*
X142857142Y-73145295D02*
X142857142Y-73288152D01*
X142857142Y-73288152D02*
X142809523Y-73383390D01*
X142809523Y-73383390D02*
X142761904Y-73431009D01*
X142761904Y-73431009D02*
X142666666Y-73478628D01*
X142666666Y-73478628D02*
X142285714Y-73478628D01*
X143238095Y-73050057D02*
X143285714Y-73002438D01*
X143285714Y-73002438D02*
X143380952Y-72954819D01*
X143380952Y-72954819D02*
X143619047Y-72954819D01*
X143619047Y-72954819D02*
X143714285Y-73002438D01*
X143714285Y-73002438D02*
X143761904Y-73050057D01*
X143761904Y-73050057D02*
X143809523Y-73145295D01*
X143809523Y-73145295D02*
X143809523Y-73240533D01*
X143809523Y-73240533D02*
X143761904Y-73383390D01*
X143761904Y-73383390D02*
X143190476Y-73954819D01*
X143190476Y-73954819D02*
X143809523Y-73954819D01*
X144428571Y-72954819D02*
X144523809Y-72954819D01*
X144523809Y-72954819D02*
X144619047Y-73002438D01*
X144619047Y-73002438D02*
X144666666Y-73050057D01*
X144666666Y-73050057D02*
X144714285Y-73145295D01*
X144714285Y-73145295D02*
X144761904Y-73335771D01*
X144761904Y-73335771D02*
X144761904Y-73573866D01*
X144761904Y-73573866D02*
X144714285Y-73764342D01*
X144714285Y-73764342D02*
X144666666Y-73859580D01*
X144666666Y-73859580D02*
X144619047Y-73907200D01*
X144619047Y-73907200D02*
X144523809Y-73954819D01*
X144523809Y-73954819D02*
X144428571Y-73954819D01*
X144428571Y-73954819D02*
X144333333Y-73907200D01*
X144333333Y-73907200D02*
X144285714Y-73859580D01*
X144285714Y-73859580D02*
X144238095Y-73764342D01*
X144238095Y-73764342D02*
X144190476Y-73573866D01*
X144190476Y-73573866D02*
X144190476Y-73335771D01*
X144190476Y-73335771D02*
X144238095Y-73145295D01*
X144238095Y-73145295D02*
X144285714Y-73050057D01*
X144285714Y-73050057D02*
X144333333Y-73002438D01*
X144333333Y-73002438D02*
X144428571Y-72954819D01*
X97333333Y-71359580D02*
X97285714Y-71407200D01*
X97285714Y-71407200D02*
X97142857Y-71454819D01*
X97142857Y-71454819D02*
X97047619Y-71454819D01*
X97047619Y-71454819D02*
X96904762Y-71407200D01*
X96904762Y-71407200D02*
X96809524Y-71311961D01*
X96809524Y-71311961D02*
X96761905Y-71216723D01*
X96761905Y-71216723D02*
X96714286Y-71026247D01*
X96714286Y-71026247D02*
X96714286Y-70883390D01*
X96714286Y-70883390D02*
X96761905Y-70692914D01*
X96761905Y-70692914D02*
X96809524Y-70597676D01*
X96809524Y-70597676D02*
X96904762Y-70502438D01*
X96904762Y-70502438D02*
X97047619Y-70454819D01*
X97047619Y-70454819D02*
X97142857Y-70454819D01*
X97142857Y-70454819D02*
X97285714Y-70502438D01*
X97285714Y-70502438D02*
X97333333Y-70550057D01*
X98285714Y-71454819D02*
X97714286Y-71454819D01*
X98000000Y-71454819D02*
X98000000Y-70454819D01*
X98000000Y-70454819D02*
X97904762Y-70597676D01*
X97904762Y-70597676D02*
X97809524Y-70692914D01*
X97809524Y-70692914D02*
X97714286Y-70740533D01*
X94279702Y-75359580D02*
X94232083Y-75407200D01*
X94232083Y-75407200D02*
X94089226Y-75454819D01*
X94089226Y-75454819D02*
X93993988Y-75454819D01*
X93993988Y-75454819D02*
X93851131Y-75407200D01*
X93851131Y-75407200D02*
X93755893Y-75311961D01*
X93755893Y-75311961D02*
X93708274Y-75216723D01*
X93708274Y-75216723D02*
X93660655Y-75026247D01*
X93660655Y-75026247D02*
X93660655Y-74883390D01*
X93660655Y-74883390D02*
X93708274Y-74692914D01*
X93708274Y-74692914D02*
X93755893Y-74597676D01*
X93755893Y-74597676D02*
X93851131Y-74502438D01*
X93851131Y-74502438D02*
X93993988Y-74454819D01*
X93993988Y-74454819D02*
X94089226Y-74454819D01*
X94089226Y-74454819D02*
X94232083Y-74502438D01*
X94232083Y-74502438D02*
X94279702Y-74550057D01*
X94660655Y-74550057D02*
X94708274Y-74502438D01*
X94708274Y-74502438D02*
X94803512Y-74454819D01*
X94803512Y-74454819D02*
X95041607Y-74454819D01*
X95041607Y-74454819D02*
X95136845Y-74502438D01*
X95136845Y-74502438D02*
X95184464Y-74550057D01*
X95184464Y-74550057D02*
X95232083Y-74645295D01*
X95232083Y-74645295D02*
X95232083Y-74740533D01*
X95232083Y-74740533D02*
X95184464Y-74883390D01*
X95184464Y-74883390D02*
X94613036Y-75454819D01*
X94613036Y-75454819D02*
X95232083Y-75454819D01*
X167833333Y-99954819D02*
X167500000Y-99478628D01*
X167261905Y-99954819D02*
X167261905Y-98954819D01*
X167261905Y-98954819D02*
X167642857Y-98954819D01*
X167642857Y-98954819D02*
X167738095Y-99002438D01*
X167738095Y-99002438D02*
X167785714Y-99050057D01*
X167785714Y-99050057D02*
X167833333Y-99145295D01*
X167833333Y-99145295D02*
X167833333Y-99288152D01*
X167833333Y-99288152D02*
X167785714Y-99383390D01*
X167785714Y-99383390D02*
X167738095Y-99431009D01*
X167738095Y-99431009D02*
X167642857Y-99478628D01*
X167642857Y-99478628D02*
X167261905Y-99478628D01*
X168738095Y-98954819D02*
X168261905Y-98954819D01*
X168261905Y-98954819D02*
X168214286Y-99431009D01*
X168214286Y-99431009D02*
X168261905Y-99383390D01*
X168261905Y-99383390D02*
X168357143Y-99335771D01*
X168357143Y-99335771D02*
X168595238Y-99335771D01*
X168595238Y-99335771D02*
X168690476Y-99383390D01*
X168690476Y-99383390D02*
X168738095Y-99431009D01*
X168738095Y-99431009D02*
X168785714Y-99526247D01*
X168785714Y-99526247D02*
X168785714Y-99764342D01*
X168785714Y-99764342D02*
X168738095Y-99859580D01*
X168738095Y-99859580D02*
X168690476Y-99907200D01*
X168690476Y-99907200D02*
X168595238Y-99954819D01*
X168595238Y-99954819D02*
X168357143Y-99954819D01*
X168357143Y-99954819D02*
X168261905Y-99907200D01*
X168261905Y-99907200D02*
X168214286Y-99859580D01*
X120261905Y-77994819D02*
X120261905Y-76994819D01*
X120261905Y-76994819D02*
X120500000Y-76994819D01*
X120500000Y-76994819D02*
X120642857Y-77042438D01*
X120642857Y-77042438D02*
X120738095Y-77137676D01*
X120738095Y-77137676D02*
X120785714Y-77232914D01*
X120785714Y-77232914D02*
X120833333Y-77423390D01*
X120833333Y-77423390D02*
X120833333Y-77566247D01*
X120833333Y-77566247D02*
X120785714Y-77756723D01*
X120785714Y-77756723D02*
X120738095Y-77851961D01*
X120738095Y-77851961D02*
X120642857Y-77947200D01*
X120642857Y-77947200D02*
X120500000Y-77994819D01*
X120500000Y-77994819D02*
X120261905Y-77994819D01*
X121214286Y-77090057D02*
X121261905Y-77042438D01*
X121261905Y-77042438D02*
X121357143Y-76994819D01*
X121357143Y-76994819D02*
X121595238Y-76994819D01*
X121595238Y-76994819D02*
X121690476Y-77042438D01*
X121690476Y-77042438D02*
X121738095Y-77090057D01*
X121738095Y-77090057D02*
X121785714Y-77185295D01*
X121785714Y-77185295D02*
X121785714Y-77280533D01*
X121785714Y-77280533D02*
X121738095Y-77423390D01*
X121738095Y-77423390D02*
X121166667Y-77994819D01*
X121166667Y-77994819D02*
X121785714Y-77994819D01*
X116333333Y-73454819D02*
X116000000Y-72978628D01*
X115761905Y-73454819D02*
X115761905Y-72454819D01*
X115761905Y-72454819D02*
X116142857Y-72454819D01*
X116142857Y-72454819D02*
X116238095Y-72502438D01*
X116238095Y-72502438D02*
X116285714Y-72550057D01*
X116285714Y-72550057D02*
X116333333Y-72645295D01*
X116333333Y-72645295D02*
X116333333Y-72788152D01*
X116333333Y-72788152D02*
X116285714Y-72883390D01*
X116285714Y-72883390D02*
X116238095Y-72931009D01*
X116238095Y-72931009D02*
X116142857Y-72978628D01*
X116142857Y-72978628D02*
X115761905Y-72978628D01*
X117285714Y-73454819D02*
X116714286Y-73454819D01*
X117000000Y-73454819D02*
X117000000Y-72454819D01*
X117000000Y-72454819D02*
X116904762Y-72597676D01*
X116904762Y-72597676D02*
X116809524Y-72692914D01*
X116809524Y-72692914D02*
X116714286Y-72740533D01*
X179143333Y-99954819D02*
X178810000Y-99478628D01*
X178571905Y-99954819D02*
X178571905Y-98954819D01*
X178571905Y-98954819D02*
X178952857Y-98954819D01*
X178952857Y-98954819D02*
X179048095Y-99002438D01*
X179048095Y-99002438D02*
X179095714Y-99050057D01*
X179095714Y-99050057D02*
X179143333Y-99145295D01*
X179143333Y-99145295D02*
X179143333Y-99288152D01*
X179143333Y-99288152D02*
X179095714Y-99383390D01*
X179095714Y-99383390D02*
X179048095Y-99431009D01*
X179048095Y-99431009D02*
X178952857Y-99478628D01*
X178952857Y-99478628D02*
X178571905Y-99478628D01*
X180000476Y-98954819D02*
X179810000Y-98954819D01*
X179810000Y-98954819D02*
X179714762Y-99002438D01*
X179714762Y-99002438D02*
X179667143Y-99050057D01*
X179667143Y-99050057D02*
X179571905Y-99192914D01*
X179571905Y-99192914D02*
X179524286Y-99383390D01*
X179524286Y-99383390D02*
X179524286Y-99764342D01*
X179524286Y-99764342D02*
X179571905Y-99859580D01*
X179571905Y-99859580D02*
X179619524Y-99907200D01*
X179619524Y-99907200D02*
X179714762Y-99954819D01*
X179714762Y-99954819D02*
X179905238Y-99954819D01*
X179905238Y-99954819D02*
X180000476Y-99907200D01*
X180000476Y-99907200D02*
X180048095Y-99859580D01*
X180048095Y-99859580D02*
X180095714Y-99764342D01*
X180095714Y-99764342D02*
X180095714Y-99526247D01*
X180095714Y-99526247D02*
X180048095Y-99431009D01*
X180048095Y-99431009D02*
X180000476Y-99383390D01*
X180000476Y-99383390D02*
X179905238Y-99335771D01*
X179905238Y-99335771D02*
X179714762Y-99335771D01*
X179714762Y-99335771D02*
X179619524Y-99383390D01*
X179619524Y-99383390D02*
X179571905Y-99431009D01*
X179571905Y-99431009D02*
X179524286Y-99526247D01*
X146547142Y-86454819D02*
X146213809Y-85978628D01*
X145975714Y-86454819D02*
X145975714Y-85454819D01*
X145975714Y-85454819D02*
X146356666Y-85454819D01*
X146356666Y-85454819D02*
X146451904Y-85502438D01*
X146451904Y-85502438D02*
X146499523Y-85550057D01*
X146499523Y-85550057D02*
X146547142Y-85645295D01*
X146547142Y-85645295D02*
X146547142Y-85788152D01*
X146547142Y-85788152D02*
X146499523Y-85883390D01*
X146499523Y-85883390D02*
X146451904Y-85931009D01*
X146451904Y-85931009D02*
X146356666Y-85978628D01*
X146356666Y-85978628D02*
X145975714Y-85978628D01*
X146928095Y-85550057D02*
X146975714Y-85502438D01*
X146975714Y-85502438D02*
X147070952Y-85454819D01*
X147070952Y-85454819D02*
X147309047Y-85454819D01*
X147309047Y-85454819D02*
X147404285Y-85502438D01*
X147404285Y-85502438D02*
X147451904Y-85550057D01*
X147451904Y-85550057D02*
X147499523Y-85645295D01*
X147499523Y-85645295D02*
X147499523Y-85740533D01*
X147499523Y-85740533D02*
X147451904Y-85883390D01*
X147451904Y-85883390D02*
X146880476Y-86454819D01*
X146880476Y-86454819D02*
X147499523Y-86454819D01*
X148451904Y-86454819D02*
X147880476Y-86454819D01*
X148166190Y-86454819D02*
X148166190Y-85454819D01*
X148166190Y-85454819D02*
X148070952Y-85597676D01*
X148070952Y-85597676D02*
X147975714Y-85692914D01*
X147975714Y-85692914D02*
X147880476Y-85740533D01*
X91166667Y-101907200D02*
X91309524Y-101954819D01*
X91309524Y-101954819D02*
X91547619Y-101954819D01*
X91547619Y-101954819D02*
X91642857Y-101907200D01*
X91642857Y-101907200D02*
X91690476Y-101859580D01*
X91690476Y-101859580D02*
X91738095Y-101764342D01*
X91738095Y-101764342D02*
X91738095Y-101669104D01*
X91738095Y-101669104D02*
X91690476Y-101573866D01*
X91690476Y-101573866D02*
X91642857Y-101526247D01*
X91642857Y-101526247D02*
X91547619Y-101478628D01*
X91547619Y-101478628D02*
X91357143Y-101431009D01*
X91357143Y-101431009D02*
X91261905Y-101383390D01*
X91261905Y-101383390D02*
X91214286Y-101335771D01*
X91214286Y-101335771D02*
X91166667Y-101240533D01*
X91166667Y-101240533D02*
X91166667Y-101145295D01*
X91166667Y-101145295D02*
X91214286Y-101050057D01*
X91214286Y-101050057D02*
X91261905Y-101002438D01*
X91261905Y-101002438D02*
X91357143Y-100954819D01*
X91357143Y-100954819D02*
X91595238Y-100954819D01*
X91595238Y-100954819D02*
X91738095Y-101002438D01*
X92071429Y-100954819D02*
X92309524Y-101954819D01*
X92309524Y-101954819D02*
X92500000Y-101240533D01*
X92500000Y-101240533D02*
X92690476Y-101954819D01*
X92690476Y-101954819D02*
X92928572Y-100954819D01*
X93261905Y-101050057D02*
X93309524Y-101002438D01*
X93309524Y-101002438D02*
X93404762Y-100954819D01*
X93404762Y-100954819D02*
X93642857Y-100954819D01*
X93642857Y-100954819D02*
X93738095Y-101002438D01*
X93738095Y-101002438D02*
X93785714Y-101050057D01*
X93785714Y-101050057D02*
X93833333Y-101145295D01*
X93833333Y-101145295D02*
X93833333Y-101240533D01*
X93833333Y-101240533D02*
X93785714Y-101383390D01*
X93785714Y-101383390D02*
X93214286Y-101954819D01*
X93214286Y-101954819D02*
X93833333Y-101954819D01*
X167369642Y-68954819D02*
X167036309Y-68478628D01*
X166798214Y-68954819D02*
X166798214Y-67954819D01*
X166798214Y-67954819D02*
X167179166Y-67954819D01*
X167179166Y-67954819D02*
X167274404Y-68002438D01*
X167274404Y-68002438D02*
X167322023Y-68050057D01*
X167322023Y-68050057D02*
X167369642Y-68145295D01*
X167369642Y-68145295D02*
X167369642Y-68288152D01*
X167369642Y-68288152D02*
X167322023Y-68383390D01*
X167322023Y-68383390D02*
X167274404Y-68431009D01*
X167274404Y-68431009D02*
X167179166Y-68478628D01*
X167179166Y-68478628D02*
X166798214Y-68478628D01*
X168322023Y-68954819D02*
X167750595Y-68954819D01*
X168036309Y-68954819D02*
X168036309Y-67954819D01*
X168036309Y-67954819D02*
X167941071Y-68097676D01*
X167941071Y-68097676D02*
X167845833Y-68192914D01*
X167845833Y-68192914D02*
X167750595Y-68240533D01*
X168798214Y-68954819D02*
X168988690Y-68954819D01*
X168988690Y-68954819D02*
X169083928Y-68907200D01*
X169083928Y-68907200D02*
X169131547Y-68859580D01*
X169131547Y-68859580D02*
X169226785Y-68716723D01*
X169226785Y-68716723D02*
X169274404Y-68526247D01*
X169274404Y-68526247D02*
X169274404Y-68145295D01*
X169274404Y-68145295D02*
X169226785Y-68050057D01*
X169226785Y-68050057D02*
X169179166Y-68002438D01*
X169179166Y-68002438D02*
X169083928Y-67954819D01*
X169083928Y-67954819D02*
X168893452Y-67954819D01*
X168893452Y-67954819D02*
X168798214Y-68002438D01*
X168798214Y-68002438D02*
X168750595Y-68050057D01*
X168750595Y-68050057D02*
X168702976Y-68145295D01*
X168702976Y-68145295D02*
X168702976Y-68383390D01*
X168702976Y-68383390D02*
X168750595Y-68478628D01*
X168750595Y-68478628D02*
X168798214Y-68526247D01*
X168798214Y-68526247D02*
X168893452Y-68573866D01*
X168893452Y-68573866D02*
X169083928Y-68573866D01*
X169083928Y-68573866D02*
X169179166Y-68526247D01*
X169179166Y-68526247D02*
X169226785Y-68478628D01*
X169226785Y-68478628D02*
X169274404Y-68383390D01*
D11*
%TO.C,J2*%
X187587500Y-86800000D02*
X187587500Y-98200000D01*
X187587500Y-98200000D02*
X201987500Y-98200000D01*
X201987500Y-86800000D02*
X187587500Y-86800000D01*
X201987500Y-98200000D02*
X201987500Y-86800000D01*
%TO.C,J3*%
X187600000Y-71300000D02*
X187600000Y-82700000D01*
X187600000Y-82700000D02*
X202000000Y-82700000D01*
X202000000Y-71300000D02*
X187600000Y-71300000D01*
X202000000Y-82700000D02*
X202000000Y-71300000D01*
%TO.C,J1*%
X96300000Y-64400000D02*
X107700000Y-64400000D01*
X107700000Y-64400000D02*
X107700000Y-50000000D01*
X96300000Y-50000000D02*
X96300000Y-64400000D01*
X107700000Y-50000000D02*
X96300000Y-50000000D01*
%TO.C,J4*%
X187600000Y-55800000D02*
X187600000Y-67200000D01*
X187600000Y-67200000D02*
X202000000Y-67200000D01*
X202000000Y-55800000D02*
X187600000Y-55800000D01*
X202000000Y-67200000D02*
X202000000Y-55800000D01*
%TO.C,SW4*%
X88930000Y-84750000D02*
X88930000Y-86250000D01*
X90180000Y-88750000D02*
X94680000Y-88750000D01*
X94680000Y-82250000D02*
X90180000Y-82250000D01*
X95930000Y-86250000D02*
X95930000Y-84750000D01*
%TO.C,U3*%
X186900000Y-104900000D02*
X186900000Y-114100000D01*
X186900000Y-114100000D02*
X198100000Y-114100000D01*
X198100000Y-104900000D02*
X186900000Y-104900000D01*
X198100000Y-114100000D02*
X198100000Y-104900000D01*
D10*
X188870000Y-105690000D02*
G75*
G02*
X187670000Y-105690000I-600000J0D01*
G01*
X187670000Y-105690000D02*
G75*
G02*
X188870000Y-105690000I600000J0D01*
G01*
D11*
%TO.C,SW3*%
X89000000Y-92750000D02*
X89000000Y-94250000D01*
X90250000Y-96750000D02*
X94750000Y-96750000D01*
X94750000Y-90250000D02*
X90250000Y-90250000D01*
X96000000Y-94250000D02*
X96000000Y-92750000D01*
%TO.C,U4*%
X101130000Y-85000000D02*
X101130000Y-113000000D01*
X101130000Y-113000000D02*
X128870000Y-113000000D01*
X128870000Y-85000000D02*
X101130000Y-85000000D01*
X128870000Y-113000000D02*
X128870000Y-85000000D01*
D10*
X111790000Y-111630000D02*
G75*
G02*
X110590000Y-111630000I-600000J0D01*
G01*
X110590000Y-111630000D02*
G75*
G02*
X111790000Y-111630000I600000J0D01*
G01*
D11*
%TO.C,Q2*%
X179202500Y-71360000D02*
X183822500Y-71360000D01*
X179202500Y-74620000D02*
X180582500Y-74620000D01*
X179202500Y-78320000D02*
X180582500Y-78320000D01*
X179202500Y-81580000D02*
X179202500Y-71360000D01*
X180582500Y-81580000D02*
X180582500Y-71360000D01*
X183822500Y-71360000D02*
X183822500Y-81580000D01*
X183822500Y-81580000D02*
X179202500Y-81580000D01*
%TO.C,D3*%
X113670000Y-79264000D02*
X113670000Y-79420000D01*
X113670000Y-81580000D02*
X113670000Y-81736000D01*
X113670000Y-79264484D02*
G75*
G02*
X116901437Y-79420000I1560000J-1235516D01*
G01*
X114189039Y-79420000D02*
G75*
G02*
X116270961Y-79420000I1040961J-1080000D01*
G01*
X116270961Y-81580000D02*
G75*
G02*
X114189039Y-81580000I-1040961J1080000D01*
G01*
X116901437Y-81580000D02*
G75*
G02*
X113670000Y-81735516I-1671437J1080000D01*
G01*
%TO.C,U2*%
X133130000Y-49820000D02*
X133130000Y-115320000D01*
X133130000Y-115320000D02*
X158730000Y-115320000D01*
X158730000Y-49820000D02*
X133130000Y-49820000D01*
X158730000Y-115320000D02*
X158730000Y-49820000D01*
D10*
X135100000Y-107600000D02*
G75*
G02*
X133900000Y-107600000I-600000J0D01*
G01*
X133900000Y-107600000D02*
G75*
G02*
X135100000Y-107600000I600000J0D01*
G01*
D11*
%TO.C,D1*%
X125170000Y-79264000D02*
X125170000Y-79420000D01*
X125170000Y-81580000D02*
X125170000Y-81736000D01*
X125170000Y-79264484D02*
G75*
G02*
X128401437Y-79420000I1560000J-1235516D01*
G01*
X125689039Y-79420000D02*
G75*
G02*
X127770961Y-79420000I1040961J-1080000D01*
G01*
X127770961Y-81580000D02*
G75*
G02*
X125689039Y-81580000I-1040961J1080000D01*
G01*
X128401437Y-81580000D02*
G75*
G02*
X125170000Y-81735516I-1671437J1080000D01*
G01*
%TO.C,U1*%
X109900000Y-50400000D02*
X109900000Y-67600000D01*
X109900000Y-67600000D02*
X132100000Y-67600000D01*
X132100000Y-50400000D02*
X109900000Y-50400000D01*
X132100000Y-67600000D02*
X132100000Y-50400000D01*
D10*
X131330000Y-51770000D02*
G75*
G02*
X130130000Y-51770000I-600000J0D01*
G01*
X130130000Y-51770000D02*
G75*
G02*
X131330000Y-51770000I600000J0D01*
G01*
D11*
%TO.C,C5*%
X160280000Y-102330000D02*
X160974000Y-102330000D01*
X160280000Y-107670000D02*
X160280000Y-102330000D01*
X160974000Y-107670000D02*
X160280000Y-107670000D01*
X163026000Y-102330000D02*
X163720000Y-102330000D01*
X163720000Y-102330000D02*
X163720000Y-107670000D01*
X163720000Y-107670000D02*
X163026000Y-107670000D01*
%TO.C,C4*%
X146330000Y-96280000D02*
X151670000Y-96280000D01*
X146330000Y-96974000D02*
X146330000Y-96280000D01*
X146330000Y-99720000D02*
X146330000Y-99026000D01*
X151670000Y-96280000D02*
X151670000Y-96974000D01*
X151670000Y-99026000D02*
X151670000Y-99720000D01*
X151670000Y-99720000D02*
X146330000Y-99720000D01*
%TO.C,R4*%
X164630000Y-103230000D02*
X164630000Y-109770000D01*
X164630000Y-109770000D02*
X164960000Y-109770000D01*
X164960000Y-103230000D02*
X164630000Y-103230000D01*
X167040000Y-103230000D02*
X167370000Y-103230000D01*
X167370000Y-103230000D02*
X167370000Y-109770000D01*
X167370000Y-109770000D02*
X167040000Y-109770000D01*
%TO.C,R13*%
X176192500Y-82640000D02*
X176192500Y-82970000D01*
X176192500Y-85380000D02*
X176192500Y-85050000D01*
X182732500Y-82640000D02*
X176192500Y-82640000D01*
X182732500Y-82970000D02*
X182732500Y-82640000D01*
X182732500Y-85050000D02*
X182732500Y-85380000D01*
X182732500Y-85380000D02*
X176192500Y-85380000D01*
%TO.C,C3*%
X100330000Y-76280000D02*
X105670000Y-76280000D01*
X100330000Y-76974000D02*
X100330000Y-76280000D01*
X100330000Y-79720000D02*
X100330000Y-79026000D01*
X105670000Y-76280000D02*
X105670000Y-76974000D01*
X105670000Y-79026000D02*
X105670000Y-79720000D01*
X105670000Y-79720000D02*
X100330000Y-79720000D01*
%TO.C,SW1*%
X88930000Y-109350000D02*
X88930000Y-110850000D01*
X90180000Y-113350000D02*
X94680000Y-113350000D01*
X94680000Y-106850000D02*
X90180000Y-106850000D01*
X95930000Y-110850000D02*
X95930000Y-109350000D01*
%TO.C,RV1*%
X170080000Y-104380000D02*
X170080000Y-108317000D01*
X170080000Y-112684000D02*
X170080000Y-116620000D01*
X171730000Y-104380000D02*
X170080000Y-104380000D01*
X174229000Y-104380000D02*
X173470000Y-104380000D01*
X176350000Y-104380000D02*
X175970000Y-104380000D01*
X180121000Y-104380000D02*
X178800000Y-104380000D01*
X180121000Y-104380000D02*
X180121000Y-108317000D01*
X180121000Y-112684000D02*
X180121000Y-116620000D01*
X180121000Y-116620000D02*
X170080000Y-116620000D01*
%TO.C,R22*%
X143920000Y-81130000D02*
X143920000Y-81460000D01*
X143920000Y-83870000D02*
X143920000Y-83540000D01*
X150460000Y-81130000D02*
X143920000Y-81130000D01*
X150460000Y-81460000D02*
X150460000Y-81130000D01*
X150460000Y-83540000D02*
X150460000Y-83870000D01*
X150460000Y-83870000D02*
X143920000Y-83870000D01*
%TO.C,Q1*%
X179190000Y-86810000D02*
X183810000Y-86810000D01*
X179190000Y-90070000D02*
X180570000Y-90070000D01*
X179190000Y-93770000D02*
X180570000Y-93770000D01*
X179190000Y-97030000D02*
X179190000Y-86810000D01*
X180570000Y-97030000D02*
X180570000Y-86810000D01*
X183810000Y-86810000D02*
X183810000Y-97030000D01*
X183810000Y-97030000D02*
X179190000Y-97030000D01*
%TO.C,R18*%
X175242500Y-67130000D02*
X175242500Y-67460000D01*
X175242500Y-69870000D02*
X175242500Y-69540000D01*
X181782500Y-67130000D02*
X175242500Y-67130000D01*
X181782500Y-67460000D02*
X181782500Y-67130000D01*
X181782500Y-69540000D02*
X181782500Y-69870000D01*
X181782500Y-69870000D02*
X175242500Y-69870000D01*
%TO.C,R2*%
X112920000Y-68630000D02*
X112920000Y-68960000D01*
X112920000Y-71370000D02*
X112920000Y-71040000D01*
X119460000Y-68630000D02*
X112920000Y-68630000D01*
X119460000Y-68960000D02*
X119460000Y-68630000D01*
X119460000Y-71040000D02*
X119460000Y-71370000D01*
X119460000Y-71370000D02*
X112920000Y-71370000D01*
%TO.C,Q3*%
X179252500Y-55450000D02*
X183872500Y-55450000D01*
X179252500Y-58710000D02*
X180632500Y-58710000D01*
X179252500Y-62410000D02*
X180632500Y-62410000D01*
X179252500Y-65670000D02*
X179252500Y-55450000D01*
X180632500Y-65670000D02*
X180632500Y-55450000D01*
X183872500Y-55450000D02*
X183872500Y-65670000D01*
X183872500Y-65670000D02*
X179252500Y-65670000D01*
%TO.C,R14*%
X164552500Y-82640000D02*
X164552500Y-82970000D01*
X164552500Y-85380000D02*
X164552500Y-85050000D01*
X171092500Y-82640000D02*
X164552500Y-82640000D01*
X171092500Y-82970000D02*
X171092500Y-82640000D01*
X171092500Y-85050000D02*
X171092500Y-85380000D01*
X171092500Y-85380000D02*
X164552500Y-85380000D01*
%TO.C,R3*%
X144540000Y-101130000D02*
X151080000Y-101130000D01*
X144540000Y-101460000D02*
X144540000Y-101130000D01*
X144540000Y-103540000D02*
X144540000Y-103870000D01*
X144540000Y-103870000D02*
X151080000Y-103870000D01*
X151080000Y-101130000D02*
X151080000Y-101460000D01*
X151080000Y-103870000D02*
X151080000Y-103540000D01*
%TO.C,R20*%
X140230000Y-72130000D02*
X140230000Y-72460000D01*
X140230000Y-74870000D02*
X140230000Y-74540000D01*
X146770000Y-72130000D02*
X140230000Y-72130000D01*
X146770000Y-72460000D02*
X146770000Y-72130000D01*
X146770000Y-74540000D02*
X146770000Y-74870000D01*
X146770000Y-74870000D02*
X140230000Y-74870000D01*
%TO.C,C1*%
X98840302Y-68672500D02*
X99640302Y-68672500D01*
X99240302Y-68272500D02*
X99240302Y-69072500D01*
X103250000Y-66907500D02*
X103250000Y-75067500D01*
X103290000Y-66907500D02*
X103290000Y-75067500D01*
X103330000Y-66908500D02*
X103330000Y-75066500D01*
X103370000Y-66909500D02*
X103370000Y-75065500D01*
X103410000Y-66910500D02*
X103410000Y-75064500D01*
X103450000Y-66912500D02*
X103450000Y-75062500D01*
X103490000Y-66914500D02*
X103490000Y-75060500D01*
X103530000Y-66917500D02*
X103530000Y-75057500D01*
X103570000Y-66919500D02*
X103570000Y-75055500D01*
X103610000Y-66923500D02*
X103610000Y-75051500D01*
X103650000Y-66926500D02*
X103650000Y-75048500D01*
X103690000Y-66931500D02*
X103690000Y-75043500D01*
X103730000Y-66935500D02*
X103730000Y-75039500D01*
X103770000Y-66940500D02*
X103770000Y-75034500D01*
X103810000Y-66945500D02*
X103810000Y-75029500D01*
X103850000Y-66951500D02*
X103850000Y-75023500D01*
X103890000Y-66957500D02*
X103890000Y-75017500D01*
X103930000Y-66964500D02*
X103930000Y-75010500D01*
X103970000Y-66970500D02*
X103970000Y-69947500D01*
X103970000Y-72027500D02*
X103970000Y-75004500D01*
X104010000Y-66978500D02*
X104010000Y-69947500D01*
X104010000Y-72027500D02*
X104010000Y-74996500D01*
X104050000Y-66985500D02*
X104050000Y-69947500D01*
X104050000Y-72027500D02*
X104050000Y-74989500D01*
X104090000Y-66994500D02*
X104090000Y-69947500D01*
X104090000Y-72027500D02*
X104090000Y-74980500D01*
X104130000Y-67002500D02*
X104130000Y-69947500D01*
X104130000Y-72027500D02*
X104130000Y-74972500D01*
X104170000Y-67011500D02*
X104170000Y-69947500D01*
X104170000Y-72027500D02*
X104170000Y-74963500D01*
X104210000Y-67020500D02*
X104210000Y-69947500D01*
X104210000Y-72027500D02*
X104210000Y-74954500D01*
X104250000Y-67030500D02*
X104250000Y-69947500D01*
X104250000Y-72027500D02*
X104250000Y-74944500D01*
X104290000Y-67040500D02*
X104290000Y-69947500D01*
X104290000Y-72027500D02*
X104290000Y-74934500D01*
X104330000Y-67051500D02*
X104330000Y-69947500D01*
X104330000Y-72027500D02*
X104330000Y-74923500D01*
X104370000Y-67062500D02*
X104370000Y-69947500D01*
X104370000Y-72027500D02*
X104370000Y-74912500D01*
X104410000Y-67074500D02*
X104410000Y-69947500D01*
X104410000Y-72027500D02*
X104410000Y-74900500D01*
X104450000Y-67086500D02*
X104450000Y-69947500D01*
X104450000Y-72027500D02*
X104450000Y-74888500D01*
X104490000Y-67098500D02*
X104490000Y-69947500D01*
X104490000Y-72027500D02*
X104490000Y-74876500D01*
X104530000Y-67111500D02*
X104530000Y-69947500D01*
X104530000Y-72027500D02*
X104530000Y-74863500D01*
X104570000Y-67124500D02*
X104570000Y-69947500D01*
X104570000Y-72027500D02*
X104570000Y-74850500D01*
X104610000Y-67138500D02*
X104610000Y-69947500D01*
X104610000Y-72027500D02*
X104610000Y-74836500D01*
X104650000Y-67152500D02*
X104650000Y-69947500D01*
X104650000Y-72027500D02*
X104650000Y-74822500D01*
X104690000Y-67167500D02*
X104690000Y-69947500D01*
X104690000Y-72027500D02*
X104690000Y-74807500D01*
X104730000Y-67182500D02*
X104730000Y-69947500D01*
X104730000Y-72027500D02*
X104730000Y-74792500D01*
X104770000Y-67198500D02*
X104770000Y-69947500D01*
X104770000Y-72027500D02*
X104770000Y-74776500D01*
X104810000Y-67214500D02*
X104810000Y-69947500D01*
X104810000Y-72027500D02*
X104810000Y-74760500D01*
X104850000Y-67230500D02*
X104850000Y-69947500D01*
X104850000Y-72027500D02*
X104850000Y-74744500D01*
X104890000Y-67247500D02*
X104890000Y-69947500D01*
X104890000Y-72027500D02*
X104890000Y-74727500D01*
X104930000Y-67265500D02*
X104930000Y-69947500D01*
X104930000Y-72027500D02*
X104930000Y-74709500D01*
X104970000Y-67283500D02*
X104970000Y-69947500D01*
X104970000Y-72027500D02*
X104970000Y-74691500D01*
X105010000Y-67302500D02*
X105010000Y-69947500D01*
X105010000Y-72027500D02*
X105010000Y-74672500D01*
X105050000Y-67321500D02*
X105050000Y-69947500D01*
X105050000Y-72027500D02*
X105050000Y-74653500D01*
X105090000Y-67341500D02*
X105090000Y-69947500D01*
X105090000Y-72027500D02*
X105090000Y-74633500D01*
X105130000Y-67361500D02*
X105130000Y-69947500D01*
X105130000Y-72027500D02*
X105130000Y-74613500D01*
X105170000Y-67382500D02*
X105170000Y-69947500D01*
X105170000Y-72027500D02*
X105170000Y-74592500D01*
X105210000Y-67403500D02*
X105210000Y-69947500D01*
X105210000Y-72027500D02*
X105210000Y-74571500D01*
X105250000Y-67425500D02*
X105250000Y-69947500D01*
X105250000Y-72027500D02*
X105250000Y-74549500D01*
X105290000Y-67448500D02*
X105290000Y-69947500D01*
X105290000Y-72027500D02*
X105290000Y-74526500D01*
X105330000Y-67471500D02*
X105330000Y-69947500D01*
X105330000Y-72027500D02*
X105330000Y-74503500D01*
X105370000Y-67494500D02*
X105370000Y-69947500D01*
X105370000Y-72027500D02*
X105370000Y-74480500D01*
X105410000Y-67519500D02*
X105410000Y-69947500D01*
X105410000Y-72027500D02*
X105410000Y-74455500D01*
X105450000Y-67544500D02*
X105450000Y-69947500D01*
X105450000Y-72027500D02*
X105450000Y-74430500D01*
X105490000Y-67569500D02*
X105490000Y-69947500D01*
X105490000Y-72027500D02*
X105490000Y-74405500D01*
X105530000Y-67595500D02*
X105530000Y-69947500D01*
X105530000Y-72027500D02*
X105530000Y-74379500D01*
X105570000Y-67622500D02*
X105570000Y-69947500D01*
X105570000Y-72027500D02*
X105570000Y-74352500D01*
X105610000Y-67650500D02*
X105610000Y-69947500D01*
X105610000Y-72027500D02*
X105610000Y-74324500D01*
X105650000Y-67678500D02*
X105650000Y-69947500D01*
X105650000Y-72027500D02*
X105650000Y-74296500D01*
X105690000Y-67707500D02*
X105690000Y-69947500D01*
X105690000Y-72027500D02*
X105690000Y-74267500D01*
X105730000Y-67737500D02*
X105730000Y-69947500D01*
X105730000Y-72027500D02*
X105730000Y-74237500D01*
X105770000Y-67768500D02*
X105770000Y-69947500D01*
X105770000Y-72027500D02*
X105770000Y-74206500D01*
X105810000Y-67799500D02*
X105810000Y-69947500D01*
X105810000Y-72027500D02*
X105810000Y-74175500D01*
X105850000Y-67831500D02*
X105850000Y-69947500D01*
X105850000Y-72027500D02*
X105850000Y-74143500D01*
X105890000Y-67864500D02*
X105890000Y-69947500D01*
X105890000Y-72027500D02*
X105890000Y-74110500D01*
X105930000Y-67898500D02*
X105930000Y-69947500D01*
X105930000Y-72027500D02*
X105930000Y-74076500D01*
X105970000Y-67932500D02*
X105970000Y-69947500D01*
X105970000Y-72027500D02*
X105970000Y-74042500D01*
X106010000Y-67968500D02*
X106010000Y-69947500D01*
X106010000Y-72027500D02*
X106010000Y-74006500D01*
X106050000Y-68005500D02*
X106050000Y-73969500D01*
X106090000Y-68042500D02*
X106090000Y-73932500D01*
X106130000Y-68081500D02*
X106130000Y-73893500D01*
X106170000Y-68120500D02*
X106170000Y-73854500D01*
X106210000Y-68161500D02*
X106210000Y-73813500D01*
X106250000Y-68203500D02*
X106250000Y-73771500D01*
X106290000Y-68246500D02*
X106290000Y-73728500D01*
X106330000Y-68291500D02*
X106330000Y-73683500D01*
X106370000Y-68336500D02*
X106370000Y-73638500D01*
X106410000Y-68383500D02*
X106410000Y-73591500D01*
X106450000Y-68432500D02*
X106450000Y-73542500D01*
X106490000Y-68482500D02*
X106490000Y-73492500D01*
X106530000Y-68534500D02*
X106530000Y-73440500D01*
X106570000Y-68587500D02*
X106570000Y-73387500D01*
X106610000Y-68643500D02*
X106610000Y-73331500D01*
X106650000Y-68700500D02*
X106650000Y-73274500D01*
X106690000Y-68760500D02*
X106690000Y-73214500D01*
X106730000Y-68822500D02*
X106730000Y-73152500D01*
X106770000Y-68886500D02*
X106770000Y-73088500D01*
X106810000Y-68953500D02*
X106810000Y-73021500D01*
X106850000Y-69023500D02*
X106850000Y-72951500D01*
X106890000Y-69097500D02*
X106890000Y-72877500D01*
X106930000Y-69174500D02*
X106930000Y-72800500D01*
X106970000Y-69256500D02*
X106970000Y-72718500D01*
X107010000Y-69343500D02*
X107010000Y-72631500D01*
X107050000Y-69435500D02*
X107050000Y-72539500D01*
X107090000Y-69534500D02*
X107090000Y-72440500D01*
X107130000Y-69641500D02*
X107130000Y-72333500D01*
X107170000Y-69759500D02*
X107170000Y-72215500D01*
X107210000Y-69890500D02*
X107210000Y-72084500D01*
X107250000Y-70040500D02*
X107250000Y-71934500D01*
X107290000Y-70219500D02*
X107290000Y-71755500D01*
X107330000Y-70454500D02*
X107330000Y-71520500D01*
X107370000Y-70987500D02*
G75*
G02*
X99130000Y-70987500I-4120000J0D01*
G01*
X99130000Y-70987500D02*
G75*
G02*
X107370000Y-70987500I4120000J0D01*
G01*
%TO.C,C2*%
X97243631Y-72890000D02*
X97243631Y-72340000D01*
X97518631Y-72615000D02*
X96968631Y-72615000D01*
X97316369Y-71000000D02*
G75*
G02*
X91576369Y-71000000I-2870000J0D01*
G01*
X91576369Y-71000000D02*
G75*
G02*
X97316369Y-71000000I2870000J0D01*
G01*
%TO.C,R5*%
X164730000Y-98130000D02*
X164730000Y-98460000D01*
X164730000Y-100870000D02*
X164730000Y-100540000D01*
X171270000Y-98130000D02*
X164730000Y-98130000D01*
X171270000Y-98460000D02*
X171270000Y-98130000D01*
X171270000Y-100540000D02*
X171270000Y-100870000D01*
X171270000Y-100870000D02*
X164730000Y-100870000D01*
%TO.C,D2*%
X119440000Y-79264000D02*
X119440000Y-79420000D01*
X119440000Y-81580000D02*
X119440000Y-81736000D01*
X119440000Y-79264484D02*
G75*
G02*
X122671437Y-79420000I1560000J-1235516D01*
G01*
X119959039Y-79420000D02*
G75*
G02*
X122040961Y-79420000I1040961J-1080000D01*
G01*
X122040961Y-81580000D02*
G75*
G02*
X119959039Y-81580000I-1040961J1080000D01*
G01*
X122671437Y-81580000D02*
G75*
G02*
X119440000Y-81735516I-1671437J1080000D01*
G01*
%TO.C,R1*%
X112920000Y-71630000D02*
X119460000Y-71630000D01*
X112920000Y-71960000D02*
X112920000Y-71630000D01*
X112920000Y-74040000D02*
X112920000Y-74370000D01*
X112920000Y-74370000D02*
X119460000Y-74370000D01*
X119460000Y-71630000D02*
X119460000Y-71960000D01*
X119460000Y-74370000D02*
X119460000Y-74040000D01*
%TO.C,R6*%
X176040000Y-98130000D02*
X176040000Y-98460000D01*
X176040000Y-100870000D02*
X176040000Y-100540000D01*
X182580000Y-98130000D02*
X176040000Y-98130000D01*
X182580000Y-98460000D02*
X182580000Y-98130000D01*
X182580000Y-100540000D02*
X182580000Y-100870000D01*
X182580000Y-100870000D02*
X176040000Y-100870000D01*
%TO.C,R21*%
X143920000Y-84630000D02*
X143920000Y-84960000D01*
X143920000Y-87370000D02*
X143920000Y-87040000D01*
X150460000Y-84630000D02*
X143920000Y-84630000D01*
X150460000Y-84960000D02*
X150460000Y-84630000D01*
X150460000Y-87040000D02*
X150460000Y-87370000D01*
X150460000Y-87370000D02*
X143920000Y-87370000D01*
%TO.C,SW2*%
X89000000Y-101000000D02*
X89000000Y-102500000D01*
X90250000Y-105000000D02*
X94750000Y-105000000D01*
X94750000Y-98500000D02*
X90250000Y-98500000D01*
X96000000Y-102500000D02*
X96000000Y-101000000D01*
%TO.C,R19*%
X164742500Y-67130000D02*
X164742500Y-67460000D01*
X164742500Y-69870000D02*
X164742500Y-69540000D01*
X171282500Y-67130000D02*
X164742500Y-67130000D01*
X171282500Y-67460000D02*
X171282500Y-67130000D01*
X171282500Y-69540000D02*
X171282500Y-69870000D01*
X171282500Y-69870000D02*
X164742500Y-69870000D01*
%TD*%
M02*
